<svg xmlns="http://www.w3.org/2000/svg" viewBox="0 0 40.4 39.9"><title>starlightfarm</title><path d="M-88.2,188.4a6.7,6.7,0,0,0-2.2,1.4l-0.8,1.1-0.3.6a8.8,8.8,0,0,1-.8,1.4,1.4,1.4,0,0,1-.7.7c-0.6.2-.9,0.5-0.7,0.6s0,0.1-.2.3l-0.5.4-0.8.6a4.5,4.5,0,0,1-1.7.6,13.8,13.8,0,0,1-4.2.2h-2.5l-1.5.6-1.1.8a4.8,4.8,0,0,1-1.6,1,3.3,3.3,0,0,0-1.2.9,10.7,10.7,0,0,0-1.8,2.7,13.9,13.9,0,0,1-1.3,2.2l-0.2.3-0.2.3-0.3.5h0l-0.4.4-1.1,1.2-0.6.7-0.4.3-0.3.2,0.2-.2v-0.2l-0.5.6a4.7,4.7,0,0,1-1.2,1l-0.6.4-0.4.3-0.5.6h0.6v0.3h0v0.2l0.3-.2h0.8l-0.4.3h0.2l0.7-.2h0.6c0.1-.1.1,0,0,0.1l-0.5.3h0.5l0.5-.2,0.6-.3,0.3-.2h-0.1c-0.1.1-.1,0.1,0,0.1l0.7-.4,0.8-.4,0.7-.5,1.2-1.2,0.9-.9c0.1,0-.1.4-0.2,0.4h-0.1l0.2-.2a11.8,11.8,0,0,0,1.6-2.5,12.3,12.3,0,0,0,.9-3.4,15.2,15.2,0,0,1,.6-2.7s0,0,0,.1a12.3,12.3,0,0,0,0,2,6.8,6.8,0,0,0,.7,2l0.8,1.4,0.4,0.7a3,3,0,0,1,.2,1.6v0.8l-0.2.2a1.6,1.6,0,0,0-.4,1.4,9.5,9.5,0,0,1-.2,1.6l-0.3.5-0.2.4h0.1c0.1,0,.1,0,0,0.1h0v0.2c-0.1.2-.1,0.2,0,0.1h0.1v0.6a1.2,1.2,0,0,0-.1.5h0.1a3.8,3.8,0,0,1,0,.5,1.1,1.1,0,0,0,.1.5s0.1,0,.1.3v1a0.5,0.5,0,0,0,.1.3,0.3,0.3,0,0,1,.2.3,1,1,0,0,0,.2.5,1.8,1.8,0,0,0,1.4.2c0.7,0,.9,0,0.9-0.2l-0.2-.3a1.2,1.2,0,0,1-.3-0.6,3,3,0,0,0-.9-1.3l-0.3-.3v-0.4a5.3,5.3,0,0,1,.1-1.5v-0.7c0-.3.2-0.2,0.9,0.3l1.1,0.9,0.2,0.2h0.3l0.4,0.4,0.2,0.2h0.2l0.4,0.6a3.1,3.1,0,0,1,.2.7c0,0.1.1,0.1,0.1,0s0.2-.2.2,0.3v0.5a2.4,2.4,0,0,0,1.4,1.1h0.7v-0.2c0-.1,0-0.5,0-0.9a3.4,3.4,0,0,0-.1-0.8l-0.5-.7a3.1,3.1,0,0,1-.6-1.2l-0.6-.6-0.5-.3-1.9-1.3-0.4-.4-0.4-.5-0.2-.2,0.2-.7,0.2-.7,0.6-.7a6,6,0,0,0,1.4-1.8l0.5-1.3,0.2-.5,0.7-.8h0.3a8.4,8.4,0,0,0,2.3.7h1.7a6.9,6.9,0,0,0,2.4-.2l1.5-.3h0.2v0.4a16,16,0,0,1,.2,3.5,14.9,14.9,0,0,0,.1,1.7V211l-0.3.3-0.3.3h0.1c0.1-.1.2-0.1,0.1,0a1.1,1.1,0,0,0-.2.5v0.2c-0.1.2-.1,0.2,0,0.1s0.3-.2.1,0.1l-0.2.3h0.1l-0.2.4a1.4,1.4,0,0,0-.2.7l0.2-.2c0-.1,0,0,0,0.4a0.8,0.8,0,0,0,.1.7v0.2l0.2,0.5a3,3,0,0,1,.3.8v0.3c0,0.1,0,.1.1-0.1s0.1-.3.2-0.3h0.1l0.3,0.5,0.2,0.3a0.6,0.6,0,0,0,.4.4,5.9,5.9,0,0,0,2,.1c0.1-.1.1-0.1,0-0.2l-0.2-.4-0.3-.6a4.3,4.3,0,0,0-.7-1c-0.4-.6-0.5-0.6-0.5-1.9a16.1,16.1,0,0,1,.1-2.8,7.6,7.6,0,0,0,.2-1.4v-0.8a10,10,0,0,1,.7-3.3h0.6l1.1,0.3h0.6l1.6,0.5,0.9,0.2a0.4,0.4,0,0,1-.1.3,2.4,2.4,0,0,1-.4.7v0.5c-0.1.2-.1,0.2-0.1,0.2s0.1,0.1-.2.3-0.2.2-.2,0.3h0l-0.2.3a0.5,0.5,0,0,1-.4.3h-0.2c0.1,0,.1.1,0,0.1h-0.2c0.1,0,.1.1-0.2,0.2h-0.4l-0.7.2a1.7,1.7,0,0,0-.6.7,1.2,1.2,0,0,0-.2,1.3c0.1,0.1.2,0.1,0.7,0h1.3l0.5-.3,0.7-.4a1.4,1.4,0,0,0,.8-1.1,11.2,11.2,0,0,1,1.3-2.5c0.7-1.1.8-1.4,0.6-2a2.3,2.3,0,0,0-1-.9l-1.2-.8-0.8-.6a1.8,1.8,0,0,1-.9-0.8l0.2-.5a2.7,2.7,0,0,0,.5-1.6,4.9,4.9,0,0,0-.2-1.4,5.4,5.4,0,0,1-.2-1.7v-0.8l0.3-.5,0.9-1.4h0.2l0.2,0.2,0.3,0.3,0.3,0.4,0.7,2a0.5,0.5,0,0,1,0,.4v0.3a1.5,1.5,0,0,0,1.4,1h0.5l0.4-.2a1,1,0,0,0,.6-0.5,1.9,1.9,0,0,0,.1-0.8,18,18,0,0,1,.5-4,3,3,0,0,0,.1-0.8,1.8,1.8,0,0,1,0-.4l0.2,0.6v0.2c0-.1.1-0.1,0.1,0.1s0.1,0.1,0-.7v-0.5c0-.1.1,0.1,0.2,0.4v0.4h0a11.4,11.4,0,0,0-.3-1.2H-79v-0.2a0.7,0.7,0,0,1-.1-0.7,4.6,4.6,0,0,0,.1-1.1h-0.1l-0.4.2-0.3.2-0.3-.3-0.5-.5-0.3-.2h-0.2l-0.6-.2-2.2-.7A12.1,12.1,0,0,0-88.2,188.4Zm-20.4,16.5a0.9,0.9,0,0,1-.1.4s0,0,0-.1Zm-5.3,5.7-0.5.4c-0.3.2-.4,0.1,0-0.1Zm-2.8.1h0Zm1.2,0.6c0.1,0,.1,0,0,0.1h-0.2s0,0,0-.1h0.2Zm9.5,4.9a0.2,0.2,0,0,1,0,.2H-106C-106,216.3-106,216.2-105.9,216.3Z" transform="translate(119 -177.9)" style="fill:#fff"/><path d="M-111.5,209.3l-1.1,1h0.1l1.2-1.1Z" transform="translate(119 -177.9)" style="fill:#fff"/><path d="M-115.1,177.9s19.6,11.3,20.1,10.5S-115.1,177.9-115.1,177.9Z" transform="translate(119 -177.9)" style="fill:#fff"/><path d="M-117.1,181.9s14.2,8.4,14.5,7.9S-117.1,181.9-117.1,181.9Z" transform="translate(119 -177.9)" style="fill:#fff"/><path d="M-119,185s10.5,6.5,10.8,6S-119,185-119,185Z" transform="translate(119 -177.9)" style="fill:#fff"/></svg>