<svg xmlns="http://www.w3.org/2000/svg" viewBox="0 0 595.3 381.8"><title>title</title><path d="M-582.7,426.7v1.7c0,1.9-.7,5.3-2.1,9.8s-2.2,7.6-2.2,9.5,0,1.7,0,2.8a75.6,75.6,0,0,0,1.2,8.4c0.6,3.8.9,5.7,1.4,9.6a38.8,38.8,0,0,1,.3,6.3,23.5,23.5,0,0,1-1.2,7.3,8,8,0,0,1-3.9,4.6c-1.4.7-3.3,0.6-5.4-.2l-2-.9-1.9-1.3a17.1,17.1,0,0,1-3.7-4.4,29.4,29.4,0,0,1-3.2-7.6,32.6,32.6,0,0,1-1.3-9,38.9,38.9,0,0,1,.5-6.2,36.9,36.9,0,0,1,1.6-6.3,2.5,2.5,0,0,1,2-1.6,2.2,2.2,0,0,1,1.2.2l2.2,2.3a2.1,2.1,0,0,0,1.7.8,2.1,2.1,0,0,0,1.1-.5,7.4,7.4,0,0,0,1.5-2.5,16.8,16.8,0,0,0,.5-1.9,11.1,11.1,0,0,0,.1-1.7,31.1,31.1,0,0,0-.9-6.6,37.4,37.4,0,0,1-1-5.6v-1.2a7.1,7.1,0,0,1,.4-2.5,6.6,6.6,0,0,1,1.3-2.2l2.4-1.6,2.7-1.5a7.3,7.3,0,0,1,4.1-.8C-584.2,424.3-583.3,425.2-582.7,426.7Z" transform="translate(641.6 -120.3)" style="fill:#f0a227"/><path d="M-568,418a9.5,9.5,0,0,1,1.1,3.2,15,15,0,0,1,.3,3.6,38.2,38.2,0,0,1-.8,6.1c-0.4,2.2-.8,4.3-1.1,6.1s-0.5,2.9-.5,3.4a17.2,17.2,0,0,0,0,3.3,1.7,1.7,0,0,0,.9,1.2,2.2,2.2,0,0,0,1.6.2,4.4,4.4,0,0,0,2.3-1.3,6.3,6.3,0,0,0,1.5-2.9l0.5-3.1a54.7,54.7,0,0,0-.2-9c-0.4-4.2-.6-6.7-0.6-7.5a13.5,13.5,0,0,1,1.5-6.2,9.9,9.9,0,0,1,5.1-4.2c2.3-1,3.9-.8,4.8.1s1.3,2.7,1.2,5.4a39.1,39.1,0,0,1-1.3,7.5c-1,3.8-1.5,5.7-2.6,9.4a69.8,69.8,0,0,0-1.6,8.7c-0.5,3.8-.8,9.2-1.1,16.4s-0.5,12.4-.8,15.6a48.9,48.9,0,0,1-2.5,12.5c-1.2,3.2-3.2,5.3-6.1,6.1l-1.5-.2-1.5-.2c-3.1-.5-5.4-1.6-6.7-3.1a15.2,15.2,0,0,1-3.3-5.9,36.5,36.5,0,0,1-1.2-6.3q-0.1-1.6-.1-3.3t0-3.4a98.8,98.8,0,0,1,1.3-11c0.8-4.7,1.4-8.2,1.7-10.3s0.5-3.8.6-5l0.2-3.2a22.3,22.3,0,0,0-.2-3.2c-0.8-4.4-1.3-6.5-2.3-10.7v-1.7l0.4-1.7a10.2,10.2,0,0,1,2.2-3.3,9.9,9.9,0,0,1,3.1-2.2,7.2,7.2,0,0,1,3.4-.7A3.5,3.5,0,0,1-568,418Z" transform="translate(641.6 -120.3)" style="fill:#f0a227"/><path d="M-531.6,403.8c1.4,4.9,2.2,11.6,2.1,20.1s-0.4,11.2-.9,18.8c-0.3,4-.3,6.1,0,6.2a3.6,3.6,0,0,0,.5-1.1,144.1,144.1,0,0,0,2.7-19.2,108.7,108.7,0,0,0,.1-14.8c-0.3-3.7-.5-5.9-0.4-6.5a18.6,18.6,0,0,1,1.3-5.4,8.3,8.3,0,0,1,2.5-3.8l2.5-1.7,2.4-1.2a4.3,4.3,0,0,1,3.4.1,6.1,6.1,0,0,1,2.5,3.5c0,1.5,0,2.3,0,3.8s-1.3,7-3.6,13.7a137.3,137.3,0,0,0-4.4,14l-0.4,2.4a208.4,208.4,0,0,0-2.8,23.7c-0.8,10.9-1.4,18.9-1.9,23.4-0.4,2.3-.5,3.5-0.8,5.9l-0.4,2.8q-0.3,1.7-.6,3.2a10.2,10.2,0,0,1-2.3,3.9,3.6,3.6,0,0,1-2.6,1.2h-0.6l-0.9-.2-1.1-.5-1.6-1.1a19.3,19.3,0,0,1-1.9-7.5c-0.1-2-.1-3.9-0.1-5.5s0-2.7-.1-3.4c0.3-9.2.8-13.6,1.6-22.4a170,170,0,0,0,1.1-19.7l-0.2-.7H-537c-1.1,1.3-1.9,3.6-2.4,6.6q-0.3,1.7-.4,2.9c-0.1.8-.2,4-0.4,9.6-0.4,9.7-.6,14.6-0.4,24.8a61.3,61.3,0,0,1-1.5,8.4A29.4,29.4,0,0,1-545,495l-2.2.7H-549a5.1,5.1,0,0,1-3.4-1.9,8.3,8.3,0,0,1-1.8-4,59.9,59.9,0,0,1-.8-7.3v-3.6a91.4,91.4,0,0,1,3.6-17.3c2.1-7.3,3.8-12.7,4.7-16.2a79.8,79.8,0,0,0,1.9-8.4q0.3-2,.4-3.5c0.1-1,.1-2.5.1-4.3a29.3,29.3,0,0,0-.9-6.4c-0.3-2-.4-3-0.8-5.1a23.4,23.4,0,0,1-.1-4.1,18,18,0,0,1,.6-3.8,19.1,19.1,0,0,1,3.2-5.1,11.2,11.2,0,0,1,4.1-3.1,5.2,5.2,0,0,1,3.6-.3A5.2,5.2,0,0,1-531.6,403.8Z" transform="translate(641.6 -120.3)" style="fill:#f0a227"/><path d="M-487,391.4a23.2,23.2,0,0,1,1.2,5.6,26.1,26.1,0,0,1-.1,6,18.1,18.1,0,0,1-1.4,5.3,2.6,2.6,0,0,1-1.8,1.6c-0.6.1-1.1-.4-1.6-1.3l-1.1-3.9c-0.7-1.6-1.3-2.3-2-2.1a2.8,2.8,0,0,0-1.2.9,5.8,5.8,0,0,0-1.1,3,6.6,6.6,0,0,0,0,2.4c0.1,0.5,1,1.1,2.4,1.5s2,1.5,1.6,3.7l-0.5,3.1a30,30,0,0,1-.8,3.1,2.6,2.6,0,0,1-1.3,1.6h-0.9a3.5,3.5,0,0,0-1.8.9,6.7,6.7,0,0,0-1.6,2.2,13.2,13.2,0,0,0-1,2.8c-0.6,2.8-.7,4.3-0.1,4.5l1.4,0.2c0.8-.1,2.2-1.7,4-4.9s3-4.9,3.5-4.9,0.9,0.3,1.4,1.2,0.6,3,.1,6.7c-1.2,6.8-1.9,10.1-3.2,16.9l-1.6,6.3-1.5,6.5c-2.4,10.3-3.7,17.7-4.7,21.7a46.8,46.8,0,0,1-2.8,9.2,10,10,0,0,1-3.9,4.6,9.8,9.8,0,0,1-5.2,1,13.3,13.3,0,0,1-5.3-1.6,9.3,9.3,0,0,1-3.8-3.7,16,16,0,0,1-1.8-4.9,21.8,21.8,0,0,1,0-6.8,85.8,85.8,0,0,1,4-16.6c2.5-7.2,3.9-10.8,6.7-18a120,120,0,0,0,5.2-16.3c0.3-1.3.6-2.6,0.9-4s0.3-2.2.4-3.5a36.6,36.6,0,0,0,.2-5.5c-0.2-2.7-.3-4.1-0.6-6.8a41.9,41.9,0,0,1,0-7.1l0.4-3.2a17.5,17.5,0,0,1,3.9-6,12.5,12.5,0,0,1,5.2-2.7l1.9-.5,2-.5h4.3a1.1,1.1,0,0,1,1.2.6A6.9,6.9,0,0,1-487,391.4Z" transform="translate(641.6 -120.3)" style="fill:#f0a227"/><path d="M-443.5,394.8a26.2,26.2,0,0,1-.1,4.4,28.2,28.2,0,0,1-1.9,8.4,57.8,57.8,0,0,1-5.5,8.9c-2.8,3.9-4.7,6.5-5.5,7.7a12.6,12.6,0,0,0-1.7,4.5c-0.4,2.3,0,3.4,1.3,3.4a2.2,2.2,0,0,0,1.4-.5l1.2-1,1.8-1.8a4.8,4.8,0,0,1,2.2-1.6c0.5-.1,1.1.6,1.5,1.8a50.5,50.5,0,0,1,.7,13.2c-0.3,5.4-.9,11.4-1.8,18.2l-0.9,6.4c-0.4,3.3-.7,4.9-1.1,8.3a56.8,56.8,0,0,1-3.1,13.1,28.3,28.3,0,0,1-5.5,9.8l-4.7,2.3-2.5.6a9.3,9.3,0,0,1-2.5.1l-2.5-.4a11.4,11.4,0,0,1-2.6-1.4,9.3,9.3,0,0,1-3.1-4,36.3,36.3,0,0,1-2.3-14.5,104.4,104.4,0,0,1,2.4-19.1l1.3-6,1.5-6.1,0.6-2.9a75.2,75.2,0,0,1,10.7-23.9c4.4-6.6,6.5-10,10.3-16.9,2.1-3.8,3.1-6.1,3.2-6.8s0-2.8-.5-3.4l-1.4-.6a2.7,2.7,0,0,0-1.9,1.3,8.2,8.2,0,0,0-1.2,3.6,22.3,22.3,0,0,1-1.3,5.6c-0.6,1.3-1.5,2.6-2.2,2.9a2.2,2.2,0,0,1-2.1-1.2,6.5,6.5,0,0,1-.7-3.8c0.1-1.5.2-2.3,0.3-3.8a34,34,0,0,1,.9-4.7,33.7,33.7,0,0,1,1.8-4.9,10.9,10.9,0,0,1,2.6-3.9,16.1,16.1,0,0,1,2.5-1.8,5.2,5.2,0,0,1,2-.7,4.8,4.8,0,0,1,3.2.8l3,3.4A16.6,16.6,0,0,1-443.5,394.8Z" transform="translate(641.6 -120.3)" style="fill:#f0a227"/><path d="M-419.9,399.7c1,6.2,1.7,13.1,2.2,20.3s0.7,14.7.7,22.5a214.5,214.5,0,0,1-1.7,26.1,119.6,119.6,0,0,1-5.3,23.1,21.2,21.2,0,0,1-4.9,7.7,8.6,8.6,0,0,1-6.1,2.5h-2.1c-0.5,0-1.8-.7-3.7-2.1s-3.6-4.9-5-10.4a62.1,62.1,0,0,1-1.8-16c0.2-4.8.4-7.2,0.7-12s0.6-5.5,1-9.1,0.6-4.3.9-6.3,0.8-4.6,1.3-7.6,1.1-5.5,1.7-7.7a13.5,13.5,0,0,1,1.4-4,2.8,2.8,0,0,1,1.5-1,1.5,1.5,0,0,1,1.3,1,11.1,11.1,0,0,0,1.8,4.6,3.4,3.4,0,0,0,2.7,1.7,3.1,3.1,0,0,0,2.3-1.3,9.4,9.4,0,0,0,1.7-3.2,13.5,13.5,0,0,0,.7-3.4,7.8,7.8,0,0,0-.2-2.7L-433,420c-2.7-1.4-4.3-2.8-4.7-4.3a22.2,22.2,0,0,1-.9-4.8,35.3,35.3,0,0,1,.2-5.5l0.2-2.7,0.7-4.4a55.2,55.2,0,0,1,1.7-6.9,25.2,25.2,0,0,1,3-6.6c1.2-1.8,2.5-2.8,3.9-2.9s3.6,1.5,5.2,4.7A46.5,46.5,0,0,1-419.9,399.7Zm-9.9-3.1c-0.7.2-1.4,1.1-1.9,2.2a12.2,12.2,0,0,0-.9,4.3,8.5,8.5,0,0,0,1.8,5.2l3,1.6a9.7,9.7,0,0,0,.6-3.6l0.2-3.8a8.5,8.5,0,0,0-.7-4.5A2.3,2.3,0,0,0-429.8,396.5Z" transform="translate(641.6 -120.3)" style="fill:#f0a227"/><path d="M-390.5,437.1a19,19,0,0,1,1.6,5.8,53.4,53.4,0,0,1-.1,9.5c-0.2,2.8-.3,4.2-0.5,7a5.3,5.3,0,0,1-3.2,2.5,25.7,25.7,0,0,1-4.2,1.2,23.8,23.8,0,0,1-3.9.3,25.7,25.7,0,0,1-8.5-1.3c-2.6-.9-4.3-2.2-5.1-3.9,0.6-6.5,1.1-11.2,1.5-14.1a17.3,17.3,0,0,1,2.6-7.3h11Z" transform="translate(641.6 -120.3)" style="fill:#f0a227"/><path d="M-372,397a31.9,31.9,0,0,1,.9,4.1,45.9,45.9,0,0,1,.4,4.9c0.1,1.9.1,2.9,0.2,4.8a8.4,8.4,0,0,0-1.4,3.7,16.2,16.2,0,0,0,.1,4.5c0.4,2.5,2,6,4.7,10.3a122,122,0,0,1,7.2,13.5,106.8,106.8,0,0,1,6.4,20.4,74.3,74.3,0,0,1,1.8,13.5,40.9,40.9,0,0,1-1.1,11.5c-1.1,5.4-3.2,9.2-5.9,10.8s-6.7,2.4-11.1,2.6a6.4,6.4,0,0,1-4.7-1.8,14.2,14.2,0,0,1-3.6-6.1c-1-3-1.8-6.6-2.7-10.7q-0.6-3.2-1-5.7t-0.8-5.9c-0.6-5.9-1-12.8-1.3-20.7s-0.6-13.5-1-22.6a7.1,7.1,0,0,1,.3-1.8,0.9,0.9,0,0,1,.8-0.8c0.9,0,2.2,1.6,4.1,4.6s3.1,4.5,3.6,4.5a1.5,1.5,0,0,0,1.3-.8,4,4,0,0,0,.5-2.1,21.5,21.5,0,0,0-.3-3.8,17,17,0,0,0-1-3.7,6.9,6.9,0,0,0-1.3-2.1l-1.3-.6h-1l-1.3-.5a6,6,0,0,1-1-2.5,21.5,21.5,0,0,1-.3-4.6c0-1.3.4-2.8,0.8-2.9s2.4-.2,3-0.6,0.8-1.4.7-2.8l-0.2-2.8c-0.4-3.2-1.1-5.3-1.9-6.2a6.2,6.2,0,0,0-2.1-1.8c-1.1-.3-2.2,1.8-2.2,5.6a8.5,8.5,0,0,1-.1,2.8,3.8,3.8,0,0,1-1,2.1c-0.4.2-1.6-.5-2.3-1.4a10.1,10.1,0,0,1-1.7-4.3l-0.5-3.2a22.3,22.3,0,0,1,.4-6.2,17.9,17.9,0,0,1,1.4-4.7,19.5,19.5,0,0,1,1.3-2.3,10.5,10.5,0,0,1,1.7-1.7,3.9,3.9,0,0,1,2.9-.9,5.5,5.5,0,0,1,3.3,1.3,22.2,22.2,0,0,1,3.8,5.5A36.1,36.1,0,0,1-372,397Z" transform="translate(641.6 -120.3)" style="fill:#f0a227"/><path d="M-348.3,391.2c3.6,9.2,7.2,18.5,11,27.6s8.2,20.1,11.5,30.4c1,3.2,1.9,6.4,2.7,9.6a113.4,113.4,0,0,1,2.1,11.9,53.7,53.7,0,0,1,0,15.4,17.8,17.8,0,0,1-4.1,8.9,10.4,10.4,0,0,1-6.6,3.6c-2.8.3-5.3-2.3-7.7-7.7s-4.7-10.7-6.5-15.9-3.4-10-4.7-14.5-2.4-8.3-3.3-11.6a223.5,223.5,0,0,1-5.4-26.7,138.2,138.2,0,0,1-1.4-22.6c0.2-6,1.2-10,2.5-11.8s2.7-2.6,4.3-2.4l1.6,0.3a7.8,7.8,0,0,1,1.7,1.4A13.8,13.8,0,0,1-348.3,391.2Zm-5.9,13a55.6,55.6,0,0,0,1.5,10.6,62.3,62.3,0,0,0,2.7,8.8c1.1,2.8,2.3,4.2,3.6,4.2a1.6,1.6,0,0,0,1.5-.9,4.4,4.4,0,0,0,.4-2.7,53.1,53.1,0,0,0-1.4-6.4l-0.4-1.7-0.7-2.8c-0.8-2.8-1.2-4.2-2-7.1a52.5,52.5,0,0,0-2-6.8c-0.6-1.3-1.2-2.2-1.8-2.3S-354.4,399.5-354.2,404.2Z" transform="translate(641.6 -120.3)" style="fill:#f0a227"/><path d="M-302.1,404.9a28.2,28.2,0,0,1,.8,3.6,22.6,22.6,0,0,1,.4,6.7,41.7,41.7,0,0,1-2.2,6.7,42.4,42.4,0,0,0-1.9,6,8.1,8.1,0,0,0,.4,3.8c0.6,2,1.5,3,2.6,3.2a1.1,1.1,0,0,0,1-.3l0.6-.8,0.8-1.4a1.8,1.8,0,0,1,1.3-1.2c0.5,0,1.2.7,2,1.8a66.1,66.1,0,0,1,5.7,11.2,148.9,148.9,0,0,1,5.2,15.1c0.6,2.1.9,3.2,1.4,5.3s1,4,1.6,6.8a35.3,35.3,0,0,1,.7,10.8,20.6,20.6,0,0,1-2.4,8.6l-3,2.5-1.7.9-1.7.5h-1.8a6.7,6.7,0,0,1-1.9-.8,7.2,7.2,0,0,1-2.6-3,70.9,70.9,0,0,1-4.5-12.6l-4.8-17.4-1.6-5.6-1.7-5.7-0.9-2.7c-2.5-7.9-3.3-15.1-2.1-21.4a130.2,130.2,0,0,1,3.3-13.6c0.8-2.9,1.3-4.7,1.2-5.3a5.6,5.6,0,0,0-1.2-3.1l-1.5-.9a1.4,1.4,0,0,0-1.6.7,4.3,4.3,0,0,0-.3,2.9,19.7,19.7,0,0,1,.4,4.8c-0.1,1-.7,2.1-1.2,2.2s-1.6-.6-2.4-1.6a8.9,8.9,0,0,1-1.9-3.6l-0.8-3.4a18.5,18.5,0,0,1-.2-4.1,14,14,0,0,1,.9-4,4.7,4.7,0,0,1,2.1-2.7,8.6,8.6,0,0,1,2.2-.8,4.6,4.6,0,0,1,1.9.1,7.8,7.8,0,0,1,3.2,1.7l3.3,3.8A23.8,23.8,0,0,1-302.1,404.9Z" transform="translate(641.6 -120.3)" style="fill:#f0a227"/><path d="M-281.8,405.3c2.7,6.6,5.7,14,9.1,22.3s6.8,16.2,9.3,24.2c0.8,2.5,1.5,5,2.1,7.5a86,86,0,0,1,1.6,9.3,40.6,40.6,0,0,1-.1,11.9,14.6,14.6,0,0,1-3.3,7,8.5,8.5,0,0,1-5,3c-2.1.3-3.7-1.6-5.5-5.9s-3.5-8.6-5-12.9-3-8.3-4.2-12-2.3-6.9-3.2-9.7a174.2,174.2,0,0,1-5.6-22.2,84.2,84.2,0,0,1-1.4-18.1c0.2-4.7,1.2-7.6,2.4-8.8a3.7,3.7,0,0,1,3.8-1.1l1.4,0.6,1.5,1.4A13.6,13.6,0,0,1-281.8,405.3Zm-5.3,9a40.1,40.1,0,0,0,1.3,8.5,51.5,51.5,0,0,0,2.4,7.2c0.9,2.3,2,3.5,3.1,3.7a1.2,1.2,0,0,0,1.3-.6,3.1,3.1,0,0,0,.4-2.1,40.6,40.6,0,0,0-1.1-5.1l-0.3-1.3-0.6-2.2c-0.7-2.3-1-3.4-1.6-5.7a40.8,40.8,0,0,0-1.7-5.5,3.9,3.9,0,0,0-1.6-2.1C-286.5,408.8-287.2,410.6-287.1,414.3Z" transform="translate(641.6 -120.3)" style="fill:#f0a227"/><path d="M-254.3,416.1c0.1,0.9-.2,4.2.4,10.2a58.6,58.6,0,0,0,2.5,13.4c0.7,2,1.5,3.8,2.1,5.5s1.4,3.3,2.2,5l2.4,5c0.8,1.7,2.6,5.1,4.9,9.9a49.4,49.4,0,0,1,3.4,8.3,11.4,11.4,0,0,1-1.3,8,14.3,14.3,0,0,1-8.1,5.6l-2,.3a6.2,6.2,0,0,1-2.1-.4,4.5,4.5,0,0,1-2.3-2.6,58.6,58.6,0,0,1-2.2-6.4c-0.7-2.2-1.2-4.5-1.6-6.7a100,100,0,0,1-1.9-14.3c-0.3-5.7-.5-8.4-0.8-13.8a61.9,61.9,0,0,0-2-12.7c-0.6-2.3-1.4-4.6-2.3-6.8a59.8,59.8,0,0,0-2.7-6.1l-1.7-3.7-0.4-1.9v-1.1a4.8,4.8,0,0,1,2.9-2.9c1.2-.4,3.2-0.1,5.8.9l2.8,3A10.9,10.9,0,0,1-254.3,416.1Z" transform="translate(641.6 -120.3)" style="fill:#f0a227"/><path d="M-229.3,428.5c1.8,3,3.6,6.3,5.4,9.6s3.5,6.7,5.1,10.3a46.9,46.9,0,0,1,3.6,11.9,24.8,24.8,0,0,1-.9,11.1,13.5,13.5,0,0,1-2.9,4.6,11.2,11.2,0,0,1-4.1,2.7l-1.4.5a6.6,6.6,0,0,1-2.6-.1c-1.4-.2-2.6-1.6-4.2-4.2a51.5,51.5,0,0,1-4-8.5c-0.9-2.8-1.4-4.2-2.5-7l-1.9-5.4-1.3-3.8c-0.4-1.3-.8-2.8-1.3-4.6a38.1,38.1,0,0,1-1-4.6,3.8,3.8,0,0,1,0-2.2,1.4,1.4,0,0,1,1-.4,2.8,2.8,0,0,1,1.5.8,12.3,12.3,0,0,0,2.9,2.8,6,6,0,0,0,2.8,1.2,2.1,2.1,0,0,0,1.7-.5,2.4,2.4,0,0,0,.7-1.5,3.8,3.8,0,0,0-.2-1.7,4.3,4.3,0,0,0-.9-1.4l-4.8-2.1c-2.9-1.2-4.7-2.4-5.5-3.3a16.9,16.9,0,0,1-2.1-3,14.2,14.2,0,0,1-1.1-3.2l-0.3-1.5c-0.1-1-.1-1.4-0.2-2.4a8.4,8.4,0,0,1,.7-3.3,4.2,4.2,0,0,1,2.4-2.4,5.3,5.3,0,0,1,4,.2,16.8,16.8,0,0,1,5.9,4.5A44.8,44.8,0,0,1-229.3,428.5Zm-10.7-4.7a1.7,1.7,0,0,0-1.6.6,2.4,2.4,0,0,0-.2,2.1,8.1,8.1,0,0,0,2.8,3.3l3.2,1.5a2.2,2.2,0,0,0-.1-1.7l-0.5-1.9a4.8,4.8,0,0,0-1.4-2.5A5.4,5.4,0,0,0-240,423.9Z" transform="translate(641.6 -120.3)" style="fill:#f0a227"/><path d="M-616.3,132.1l0.9,3.7,1.4,5.1a35,35,0,0,1,4.9-11.4,20.9,20.9,0,0,1,7.7-7.1l2.3-.6h2.6a9.6,9.6,0,0,1,5.7,1.8,10.2,10.2,0,0,1,4,6.3c0.5,3.5-1.1,10.6-3.3,19.3s-3.3,15.1-3.3,19c0,1.8.8,7.8,2.4,18.1q3.6,22.4,7.3,44.7a52,52,0,0,1-1.7,13.8,38.3,38.3,0,0,1-6.2,12.3l-3.2,1.6-3.7.9a9.5,9.5,0,0,1-7.1-2.2c-2.1-1.7-3.9-4.7-4.9-8.8a64.7,64.7,0,0,1-1.3-14.6c0-5.1,1.4-14.5,3.8-27.6,1.7-9.1,3.7-18.7,3.8-28.1a66.9,66.9,0,0,0-1.1-12.8q-0.6-2.1-1.7-2.1a1.6,1.6,0,0,0-1.2.8c-0.5.8-.6,2.7-0.8,4.7l-0.3,5.6,0.2,8.3,0.2,8.3a27.6,27.6,0,0,1-1.8,10.6c-1.1,2.6-2.4,4-4,4s-2.5-1.4-3.5-4-1.5-6.3-1.5-11l0.3-7.3,0.4-7.9c0-2,0-3.3-.1-4.1s-0.3-2-.6-3.6-1-4.1-1.9-4.2-0.9.6-1.4,1.8a16.4,16.4,0,0,0-1,3.7l-0.2,3.6,0.3,6.3,0.3,5.8q4.1,25.4,8,50.9a49.1,49.1,0,0,1-1.4,11.9,31.7,31.7,0,0,1-4.8,10.4l-3.5.7H-629l-4-1a12.3,12.3,0,0,1-4.1-3.2c-1.5-1.7-2.6-4.5-3.4-8.4a65.7,65.7,0,0,1-1.1-12.4q0-2.4.1-5.1t0.3-5.4l2.1-18.5q2.2-17.6,4.6-35.3V167c0-.7,0-1.8-0.1-3.1s-0.2-2.3-.3-3-0.3-1.6-.5-2.7-0.7-3.9-1.3-6.3l-2.4-9.1a38.5,38.5,0,0,1-1.5-9.8,24.4,24.4,0,0,1,.4-4.3,13.6,13.6,0,0,1,1.5-4.2,10.3,10.3,0,0,1,8.6-4.3,12.4,12.4,0,0,1,7.9,2.9C-619.6,125.1-617.7,128.1-616.3,132.1Z" transform="translate(641.6 -120.3)" style="fill:#fff"/><path d="M-547.3,127.6a29.8,29.8,0,0,1,2.4,6.4,27.6,27.6,0,0,1,.9,6.7,15.1,15.1,0,0,1-.9,5.8,2.6,2.6,0,0,1-2.3,1.6q-1.2,0-2.8-1.8l-2.6-4.7q-1.9-2.9-3.4-2.9a2.9,2.9,0,0,0-1.6.8c-0.7.5-1,1.6-1.1,3.2a6.4,6.4,0,0,0,.5,2.9c0.3,0.7,1.7,1.5,4,2.2a4.3,4.3,0,0,1,3.4,4.6v3.5a26.8,26.8,0,0,1-.2,3.5,2.1,2.1,0,0,1-1.5,1.7h-1.3a4.2,4.2,0,0,0-2.5.9,5,5,0,0,0-1.7,2.4,9.9,9.9,0,0,0-.5,3.2q0,5.1,1.5,5.5l2.3,0.4c1.2-.1,2.7-1.9,4.5-5.6s2.9-5.5,3.6-5.5A4.5,4.5,0,0,1-544,164c1.1,1,1.9,3.6,2.5,7.7,0.7,7.7,1,11.5,1.7,19.2,0,2.8,0,4.3,0,7.1v7.2c0,11.6-.2,19.6-0.8,24.2a32.5,32.5,0,0,1-2.9,10.6,16.9,16.9,0,0,1-5.9,6.5,26,26,0,0,1-8.5,3.3,27.3,27.3,0,0,1-9.1.3,12.3,12.3,0,0,1-6.9-3,15.8,15.8,0,0,1-3.8-5.4,22.4,22.4,0,0,1-1.4-8.5,121.7,121.7,0,0,1,2.1-21.6c1.8-9.4,2.7-14,4.5-23.2a113.1,113.1,0,0,0,2.3-20.3c0-1.6.1-3.3,0-4.9s-0.3-2.8-.4-4.3a48.7,48.7,0,0,0-1.3-7l-2.5-8.8a35,35,0,0,1-1.2-8.7l0.3-3.7a13,13,0,0,1,5.3-5.8,17.1,17.1,0,0,1,7.5-1.5h5.6l6.3,0.9a2.1,2.1,0,0,1,1.8.9A9.7,9.7,0,0,1-547.3,127.6Z" transform="translate(641.6 -120.3)" style="fill:#fff"/><path d="M-510.9,146.8l-0.7-3.5a12.5,12.5,0,0,0-1.3-3.1q-0.5-.5-1.1.3a4.3,4.3,0,0,0-.9,2.1c-0.7,6.5.8,15.1,2.4,23.6,2,10,3,15,5,24.7a116,116,0,0,1,2.6,22.1,72.6,72.6,0,0,1-1.2,15.4,22.8,22.8,0,0,1-5.6,10.8,13.1,13.1,0,0,1-7.4,4.2,16.4,16.4,0,0,1-3.2.4l-2.5-.5a12.9,12.9,0,0,1-5.5-2.2c-1.8-1.4-3.1-3.8-3.9-6.9a46.5,46.5,0,0,1-1.2-11.2c0-1.8-.1-3.7,0-5.4s0.3-3,.3-3.8l0.5-7.4c0.5-3.2,2.3-12,5.7-25.8,2.6-10.7,4.8-21.8,5-32.9,0-1.1,0-1.6,0-2.7v-1.8a3.5,3.5,0,0,0-.5-1.8,1.2,1.2,0,0,0-1.6-.5c-0.5,1.4-1.1,5.1-1.6,10.8s-1.7,9.3-3.7,10.6q-3.4-.8-4.2-5.9c0-2.2,0-3.4,0-5.6s0-3.9,0-6.4,0.1-4.6.2-6.4a66.1,66.1,0,0,1,.9-6.8A14.4,14.4,0,0,1-531,124l2-.6,2.2-.3h15.1a11.8,11.8,0,0,1,4.4.6,12.5,12.5,0,0,1,3.3,6.7q0.7,3.9.9,6.9t0.3,6.9c0,2.3,0,3.5,0,5.8s0,3.3,0,5.5-1.8,5.2-4.1,5.9c-1.4-.9-2.5-2.8-3.1-5.9Z" transform="translate(641.6 -120.3)" style="fill:#fff"/><path d="M-468,128a32.6,32.6,0,0,1,2.4,6.7,29.1,29.1,0,0,1,.9,6.8,14.8,14.8,0,0,1-.9,5.8,2.4,2.4,0,0,1-2.3,1.4q-1.2-.1-2.8-1.9l-2.6-4.8c-1.3-2-2.4-3-3.4-3a2.8,2.8,0,0,0-1.6.7c-0.7.5-1,1.6-1.1,3.2a6.2,6.2,0,0,0,.5,2.8c0.3,0.7,1.7,1.5,4,2.3a4.5,4.5,0,0,1,3.4,4.6V156a24,24,0,0,1-.2,3.4,1.8,1.8,0,0,1-1.5,1.5h-1.3a4.1,4.1,0,0,0-2.5.7,4.2,4.2,0,0,0-1.7,2.1,8.2,8.2,0,0,0-.5,3c0,3.1.5,4.8,1.6,5.1l2.3,0.5c1.2,0.1,2.7-1.5,4.4-4.8s2.9-4.9,3.5-4.8a5.5,5.5,0,0,1,2.6,1.6c1.1,1,2,3.4,2.7,7.4,0.8,7.3,1.2,10.8,2,17.8,0,2.6.1,3.9,0.1,6.4l0.2,6.5c0.2,10.4,0,17.3-.6,21.2s-1.6,6.7-2.9,8.6a11.1,11.1,0,0,1-5.8,4.2,29.7,29.7,0,0,1-8.5,1.2,42.9,42.9,0,0,1-9.1-.9,16.1,16.1,0,0,1-6.9-3,14.6,14.6,0,0,1-3.9-4.6,15.9,15.9,0,0,1-1.5-7.1,84.7,84.7,0,0,1,1.9-18l4.3-19.7a87.1,87.1,0,0,0,2.1-18c0-1.4.1-3,0-4.5s-0.3-2.6-.5-4a44.5,44.5,0,0,0-1.4-6.5l-2.6-8.4a32.7,32.7,0,0,1-1.2-8.5l0.3-3.7a13.1,13.1,0,0,1,5.3-5.8,16.8,16.8,0,0,1,7.5-1.5h5.6l6.3,1a2.1,2.1,0,0,1,1.8,1A10.4,10.4,0,0,1-468,128Z" transform="translate(641.6 -120.3)" style="fill:#fff"/><path d="M-416.1,128.9c5.2,7.3,9.1,17.1,11.1,25.7,3.5,14.9,3.9,30.4,4.2,45.7,0.1,5.5.1,8.2,0.1,13.6a47.3,47.3,0,0,1-4.9,16.9A23.4,23.4,0,0,1-416,241.4a27.6,27.6,0,0,1-6,1.7,30.4,30.4,0,0,1-6.7.3,27.2,27.2,0,0,1-7.9-1.5c-2.3-.9-5-3-7.9-6.5s-5.4-8.9-7.3-16.4a103.1,103.1,0,0,1-3.1-24.4c0.1-4.6.1-6.9,0.1-11.5a77.5,77.5,0,0,1,.5-8.6c0.4-3.5.7-6.6,0.9-9.2,2-10.1,4.1-20.3,7.3-29.9,2.1-6.3,5.1-10,8.8-11l6.9-1.5h2.8a13.8,13.8,0,0,1,6,1.3A14.8,14.8,0,0,1-416.1,128.9Zm-14,11.9c-1.4,0-2.5.9-3.4,2.5a18.8,18.8,0,0,0-1.7,5l-0.6,5.3c0,1.7,0,2.6,0,4.3s0,4,0,6.6a4,4,0,0,0,1.7,3.5,6.8,6.8,0,0,0,4,1.2,6.4,6.4,0,0,0,4-1.2,4.1,4.1,0,0,0,1.6-3.4c0-2.4,0-3.6,0-6.1v-5.4a24.1,24.1,0,0,0-.9-5.2,26.5,26.5,0,0,0-1.7-5.4A3.2,3.2,0,0,0-430,140.9Z" transform="translate(641.6 -120.3)" style="fill:#fff"/><path d="M-339.9,137.5l0.5,4.7a17.8,17.8,0,0,1-1.6,8q-1.5,3-3.2,5.8t-4.3,6.4l14.3,18.2a107.4,107.4,0,0,1,9.3,21,71.6,71.6,0,0,1,3.7,22.2q0,4.4-.2,6.2c-0.1,1.2-.5,2.8-0.9,4.7a46.5,46.5,0,0,1-1.1,5.1,20.4,20.4,0,0,1-2.1,4.9,9.8,9.8,0,0,1-4.7,3.4,14.8,14.8,0,0,1-6.3.8l-2.5-.3-4.7-1c-2.1-.5-4.3-2.9-6.5-7.2a51.6,51.6,0,0,1-4.3-10.4q-1-3.9-1.5-6.2a20.3,20.3,0,0,1-.5-4.1l-0.2-4.6,0.4-10.4,0.5-9.3a50.6,50.6,0,0,0-.3-6.2c-0.2-1.3-.4-2.5-0.6-3.5a22.6,22.6,0,0,0-1.1-3.3,3,3,0,0,0-3-1.9,2,2,0,0,0-1.8,1.1,7.4,7.4,0,0,0-.7,3.7l-0.4,4.8a80,80,0,0,0,1.6,13.4l2,10.6a51.5,51.5,0,0,1,1.6,13.1q0,2.2,0,4.6a29.5,29.5,0,0,1-1,5.7,10.2,10.2,0,0,1-5.5,6.7c-3.1,1.6-7,2.3-11.7,2a18.5,18.5,0,0,1-9.1-3.1,16,16,0,0,1-5.9-7.3,31.6,31.6,0,0,1-1.7-10.9v-2.5a21.6,21.6,0,0,1,.2-3.1l0.5-5.7a194.3,194.3,0,0,0,6.3-22,96.6,96.6,0,0,0,2.3-20.8,67.3,67.3,0,0,0-2.1-17.3,47.7,47.7,0,0,0-7.3-15.1v-1.7a6.8,6.8,0,0,1,1.6-4.5,19.2,19.2,0,0,1,5-4.4c2.7-1.5,6.4-2.1,9-2.6l6.6-1a47.2,47.2,0,0,1,5.6-.3,36.4,36.4,0,0,1,15.5,3.2A22.2,22.2,0,0,1-339.9,137.5Zm-29.9,3.9c1.1,7,1.6,10.4,2.7,17.2l1.4,0.6a2.9,2.9,0,0,0,1.9-1.2l1.5-1.8,2.2-5.5,0.3-3.2-0.4-3.3a5,5,0,0,0-2-2.9,7.7,7.7,0,0,0-3.9-1.5A4.8,4.8,0,0,0-369.7,141.4Z" transform="translate(641.6 -120.3)" style="fill:#fff"/><path d="M-235,132.2a16,16,0,0,1,1.4,3.8q0.8,2.8,1.3,5.4a28.1,28.1,0,0,1,.5,5.4,17.5,17.5,0,0,1-.4,4.5,3.1,3.1,0,0,1-3.1,2.2l-1.9-.5a45.3,45.3,0,0,1-3.9-6.2c-1.9-3.4-3.6-5-5-5a3.4,3.4,0,0,0-1.7.6,2.8,2.8,0,0,0-1.3,1.5l-0.3,1.6c0.3,2.4,2.1,4.2,4.9,5s4.3,2.7,4.3,6a32,32,0,0,1-.3,5.4,5.3,5.3,0,0,1-2,3.1h-2.7a6.8,6.8,0,0,0-2.1,1.1,5.9,5.9,0,0,0-2.1,4.6c-0.4,5.8,1.2,12.8,3.5,19.9s4.3,12.7,7,21.3a65.8,65.8,0,0,1,3.4,19.7,49.3,49.3,0,0,1-1,10.5c-1.9,3.9-4.4,6.5-7.5,7.8a23.2,23.2,0,0,1-11.3,1.3l-6.6-1.1-5.6-1.1a33.5,33.5,0,0,1-7.5-4.5,15.1,15.1,0,0,1-5-7,38.9,38.9,0,0,1-1.1-10.8,62.8,62.8,0,0,1,3.8-20.3c3.1-8.8,4.6-13.3,7.6-22.3a69,69,0,0,0,3.9-21l-5.2-25.4a16,16,0,0,1,1.2-6.1,9.5,9.5,0,0,1,3-4.1,15,15,0,0,1,5.7-2.2l8.2-.6a36.2,36.2,0,0,1,11.2,1.6A11.6,11.6,0,0,1-235,132.2Z" transform="translate(641.6 -120.3)" style="fill:#fff"/><path d="M-196.1,128.1a33.1,33.1,0,0,1,2.5,6.9,31.7,31.7,0,0,1,1,7.2,17.2,17.2,0,0,1-.9,6.3,2.5,2.5,0,0,1-2.3,1.6q-1.2,0-2.8-2l-2.6-5.1q-2-3.1-3.4-3.1a2.8,2.8,0,0,0-1.6.8c-0.6.5-1,1.7-1,3.4a7.3,7.3,0,0,0,.5,3c0.3,0.7,1.7,1.6,4.1,2.4a4.8,4.8,0,0,1,3.4,5v3.8a30.8,30.8,0,0,1-.2,3.8,2.1,2.1,0,0,1-1.5,1.8h-1.3a3.9,3.9,0,0,0-2.5.9,5,5,0,0,0-1.7,2.5,10.9,10.9,0,0,0-.5,3.4q0,5.4,1.5,5.9l2.3,0.5q1.9,0,4.4-5.7t3.5-5.8c0.6,0,1.4.6,2.5,1.7s2,4,2.6,8.6l1.8,21.4v16.1c0.1,13-.2,22.1-0.8,27s-1.6,8.7-2.9,11.1a11.1,11.1,0,0,1-5.8,5.3,18.9,18.9,0,0,1-8.4.8,30.2,30.2,0,0,1-9-2.5,18.9,18.9,0,0,1-6.8-5.1,25.5,25.5,0,0,1-4.1-6.4,22.8,22.8,0,0,1-1.5-8.7A107,107,0,0,1-225,214c1.9-9,2.7-13.6,4.5-22.7a115.1,115.1,0,0,0,2.1-20.7c0-1.6.1-3.4,0-5.1s-0.3-2.9-.5-4.5a53.2,53.2,0,0,0-1.4-7.3l-2.6-9.2a38.2,38.2,0,0,1-1.3-9.2l0.3-3.9c1.4-2.8,3.2-5.1,5.2-6.2a16.1,16.1,0,0,1,7.5-1.6h5.6l6.3,1a2.1,2.1,0,0,1,1.8,1A10.6,10.6,0,0,1-196.1,128.1Z" transform="translate(641.6 -120.3)" style="fill:#fff"/><path d="M-151.8,136a20.8,20.8,0,0,1,.8,5.7,25,25,0,0,1-.3,4.6,33.2,33.2,0,0,1-1.6,5.1c-0.8,2.2-2.2,3.3-4.2,3.3a3.9,3.9,0,0,1-3-1.3c-0.5-.7-1.3-4.2-2.1-9.6s-2-8.2-3.8-8.2l-1.6.5a5.4,5.4,0,0,0-2.4,3,24.3,24.3,0,0,0-1,3.3,14.2,14.2,0,0,0-.3,2.8,8.9,8.9,0,0,0,.6,3.1c0.4,1,3.7,5.1,10.1,12.3s10,14,11.4,19.7a125.1,125.1,0,0,1,3.5,29.1,156,156,0,0,1-1.1,20.1q-1.2,8.3-2.3,13a62.7,62.7,0,0,1-2.7,9.3,21.5,21.5,0,0,1-6.2,8.2,16,16,0,0,1-3.7,1.9,9.8,9.8,0,0,1-3.9.4,12.5,12.5,0,0,1-6.4-2.2c-3-2.4-5.4-6.4-7.2-11.8a95.6,95.6,0,0,1-4.2-18.7V210.3a179.8,179.8,0,0,1,.6-18.7,72,72,0,0,1,1.9-10.8l1.6-.7q0.9,0,3.3,1.8a11.9,11.9,0,0,0,3.6,2.2,2,2,0,0,0,1.7-.8,12,12,0,0,0,1.6-3.6c-0.4-4.8-2.3-10.3-5.8-16.5s-5.3-12-5.3-17.4v-2a25.9,25.9,0,0,1,1.6-9.3,22.1,22.1,0,0,1,4.6-7.8,12.8,12.8,0,0,1,8.8-3.3,12.1,12.1,0,0,1,8.1,3C-155.1,128.5-153.3,131.6-151.8,136Z" transform="translate(641.6 -120.3)" style="fill:#fff"/><path d="M-117.6,148.3l-0.7-3.8a13.9,13.9,0,0,0-1.4-3.3q-0.5-.5-1.1.3a4.9,4.9,0,0,0-.8,2.3c-0.6,7.1.9,16.7,2.5,26.6s3.3,19.8,4.9,29.7a167.9,167.9,0,0,1,2.5,28.1,123.7,123.7,0,0,1-1.3,19.8,27.8,27.8,0,0,1-5.6,13.1,9.1,9.1,0,0,1-7.3,3.8,12,12,0,0,1-3.1-.3l-2.5-1.2a16.3,16.3,0,0,1-5.4-4.1c-1.8-2.2-3.1-5.4-3.9-9.3a71.5,71.5,0,0,1-1.2-13.7c0-2.1-.1-4.4,0-6.4s0.3-3.5.3-4.4l0.5-8.7c1.5-10,3.6-20,5.6-29.9,2.4-12.3,4.7-24.8,4.8-37.4v-5a4,4,0,0,0-.6-2,1.1,1.1,0,0,0-1.6-.5c-0.5,1.6-1,5.5-1.5,11.9s-1.7,10.4-3.6,11.9c-2.2-.6-3.7-2.9-4.2-6.7V145.9q0-4,.1-6.9c0.1-1.9.4-4.4,0.8-7.3a15.2,15.2,0,0,1,3.4-7.6,7.4,7.4,0,0,1,2-.6l2.2-.3h15.1a11.7,11.7,0,0,1,4.4.6,12.8,12.8,0,0,1,3.4,6.9c0.5,2.7.8,5.1,1,7.3s0.3,4.6.3,7.5v12.6c-0.4,3.7-1.8,6-4.1,6.9-1.4-1-2.5-3.2-3.1-6.6Z" transform="translate(641.6 -120.3)" style="fill:#fff"/><path d="M-51.1,180.7a15.6,15.6,0,0,1,1.2,6.5,65.5,65.5,0,0,1-1.6,11.2l-1.6,8.4a9,9,0,0,1-4.3,3.5,37.3,37.3,0,0,1-5.3,2,30.5,30.5,0,0,1-4.7.9,29.6,29.6,0,0,1-10.3-.6c-3.2-.8-5.3-2.2-6.3-4.1,0.8-7.8,1.5-13.4,2.1-16.9a19.3,19.3,0,0,1,3.7-8.8l15.2-1.3Z" transform="translate(641.6 -120.3)" style="fill:#fff"/><path d="M-607.1,287.7l0.3,5.1a33.6,33.6,0,0,1-1,8.9q-1,3.4-2,6.6t-2.8,7.4c3.6,7.9,5.4,11.7,9.1,19.1a155.6,155.6,0,0,1,6,21.7,114.9,114.9,0,0,1,2.3,23.2c0,3.2-.1,5.3-0.2,6.6s-0.4,3-.6,5.1-0.4,4-.7,5.5a34.5,34.5,0,0,1-1.4,5.5,11.4,11.4,0,0,1-3.1,4.4,7.5,7.5,0,0,1-4.1,1.9h-1.6l-3-.4c-1.4-.2-2.7-2.5-4.1-6.7a67.7,67.7,0,0,1-2.7-10.6c-0.4-2.7-.7-5-0.9-6.6a36.2,36.2,0,0,1-.3-4.4v-5l0.3-11.6,0.4-10.5c0-3.2,0-5.5-.2-7s-0.2-2.8-.4-3.9-0.4-2.4-.7-3.8-1-2.1-1.9-2.1-0.9.4-1.1,1.3a14.4,14.4,0,0,0-.4,4.3l-0.3,5.5c0,3.8.3,8.8,0.9,15.1l1.2,11.7a93.3,93.3,0,0,1,.9,14.2q0,2.3-.1,4.9a49.9,49.9,0,0,1-.7,6,11.1,11.1,0,0,1-3.6,7,8.2,8.2,0,0,1-7.5,1.6,10.8,10.8,0,0,1-5.8-4.2,21.6,21.6,0,0,1-3.8-8.4,54.2,54.2,0,0,1-1-11.7v-2.7c0-.9.1-2,0.2-3.2l0.3-6.1c1.8-7.9,3.2-15.9,4.2-23.7a183.2,183.2,0,0,0,1.5-23.6,136.2,136.2,0,0,0-1.3-20,86.6,86.6,0,0,0-4.7-18v-1.9a9.9,9.9,0,0,1,1-4.8,13.9,13.9,0,0,1,3.2-4.3c1.6-1.1,4.1-1.7,5.8-2l4.2-.7a20.3,20.3,0,0,1,3.6-.1,17.2,17.2,0,0,1,9.8,3.7C-610.9,278.5-608.7,282.3-607.1,287.7Zm-19,4.6,1.7,19.6,0.9,0.7c0.4,0,.8-0.4,1.2-1.3l1-2.1,1.4-6.2,0.2-3.6-0.3-3.7a6.8,6.8,0,0,0-1.3-3.3,4.3,4.3,0,0,0-2.5-1.8C-624.5,290.5-625.4,291.1-626.1,292.2Z" transform="translate(641.6 -120.3)" style="fill:#fff"/><path d="M-542.2,264.5a10.3,10.3,0,0,1,1.9,6.3,39.5,39.5,0,0,1-1.5,8.5,71.5,71.5,0,0,0-1.8,8.8,99.8,99.8,0,0,0-.8,11,71.5,71.5,0,0,0,2.9,19.6l5.6,18.9a91.5,91.5,0,0,1,2.2,11,82.7,82.7,0,0,1,.7,11.2,42.1,42.1,0,0,1-1.1,10.4,18.2,18.2,0,0,1-3.7,7.4,35.5,35.5,0,0,1-4.8,4.6l-3.6,2.7a18.6,18.6,0,0,1-2.7,1.5,11.5,11.5,0,0,1-4.7,1.2q-2,0-3.7-2.4a18.2,18.2,0,0,1-2.5-7,55.2,55.2,0,0,1-.8-10.2q0-7.4,1.4-20.2t1.8-18q0.5-5.3.4-8.4a23.9,23.9,0,0,0-1-7.4c-0.7-2-1.9-3.1-3.2-2.8a6.4,6.4,0,0,0-3.5,2.7,9.7,9.7,0,0,0-1.7,4.8l-0.3,4.2c0,1,0,1.4,0,2.4a167.1,167.1,0,0,0,1.8,21.6,156.7,156.7,0,0,1,1.8,20,75.7,75.7,0,0,1-.6,10,79.1,79.1,0,0,1-1.9,9.3,16.5,16.5,0,0,1-4.5,8,19.8,19.8,0,0,1-6.8,4.4l-1.6.5-2.6.4a5.6,5.6,0,0,1-3.1-.7,8.6,8.6,0,0,1-3-3,27.2,27.2,0,0,1-2.2-5.8q-0.3-2.6-.4-4.9t-0.2-5.1a97.4,97.4,0,0,1,3-22.2l6-24.9a100.3,100.3,0,0,0,3.1-22.8,70.3,70.3,0,0,0-.4-8.7,88.2,88.2,0,0,0-2.1-10.1,44.6,44.6,0,0,1-1.7-9.4,27.7,27.7,0,0,1,.5-4.8,14.5,14.5,0,0,1,5-6.5,20.4,20.4,0,0,1,7.2-3l3.4-.8,5.3-1.2,2-.5,1.6-.4a5.8,5.8,0,0,1,1.6-.9l3.8-.8,3.3-.3a13.7,13.7,0,0,1,3,.3A12.8,12.8,0,0,1-542.2,264.5Zm-19.5,16.7c-1.1.6-2.1,2.5-2.6,4.5a28.9,28.9,0,0,0-.8,6.9l1.3,0.3,1.6-.8,1.4-.9a2,2,0,0,1,1.9.4q0.9-.7.9-2.9v-3.9C-558.5,281.8-560.3,280.4-561.7,281.2Z" transform="translate(641.6 -120.3)" style="fill:#fff"/><path d="M-502.1,260.1l0.9,3.1,1.5,4.3a34.8,34.8,0,0,1,4.8-11.1,22,22,0,0,1,7.7-7.2l2.3-.7,2.6-.3a10.2,10.2,0,0,1,5.8,1.4,9,9,0,0,1,4.1,5.3c0.6,2.9-.9,9-3,16.4s-3.1,12.9-3,16.2c0,1.5.9,6.5,2.7,15q4.2,19.4,7.8,39a41.3,41.3,0,0,1-1.7,12.5,31.7,31.7,0,0,1-6.3,10.8l-3.3,1.3-3.8.8a11.7,11.7,0,0,1-7.2-1.3,11.4,11.4,0,0,1-5-6.8,45,45,0,0,1-1.4-12.3c0-4.4,1.3-12.7,3.8-24.5s3.7-19.7,3.7-24.5a45.9,45.9,0,0,0-1.3-10.6c-0.4-1.1-1-1.6-1.7-1.5a2.1,2.1,0,0,0-1.3.9,13.2,13.2,0,0,0-.8,4.2l-0.2,4.8,0.3,6.9,0.3,7a22.3,22.3,0,0,1-1.8,9.4c-1.1,2.5-2.4,4-4.1,4.5s-2.5-.4-3.6-2.3-1.6-4.8-1.7-8.8l0.2-6.4,0.3-6.9a29.1,29.1,0,0,0-.2-3.5c-0.1-.6-0.4-1.7-0.6-2.9s-1.1-3.3-2-3-1,.8-1.4,2a16.3,16.3,0,0,0-1,3.6l-0.2,3.2,0.3,5.3,0.3,4.9q4.4,20.2,8.6,40.5a40.4,40.4,0,0,1-1.4,10.7,39.9,39.9,0,0,1-5,10.8l-3.7,2-3.8,1.6-4.2,1.1a8.4,8.4,0,0,1-4.3-.6q-2.3-.9-3.5-5.3a39.3,39.3,0,0,1-1.2-10.1q0-2.1.1-4.5t0.4-4.9l2.2-17.3,4.6-33.4v-1.9q0-1-.2-2.8t-0.3-2.6c-0.1-.6-0.3-1.4-0.5-2.3a48.1,48.1,0,0,0-1.4-5.3l-2.5-7.8a31.3,31.3,0,0,1-1.6-9.2,26.8,26.8,0,0,1,.3-4.5,17.7,17.7,0,0,1,1.5-4.7,13,13,0,0,1,8.7-6.3,11.5,11.5,0,0,1,8.1,1.3A14.6,14.6,0,0,1-502.1,260.1Z" transform="translate(641.6 -120.3)" style="fill:#fff"/><path d="M-417,265.9l0.5,3.9a13.8,13.8,0,0,1-.8,5.8l-1.9,3.6-2.6,4.4a175.7,175.7,0,0,1,9.5,17.6c1.6,3.7,2.6,6.4,3.2,8.2s1.3,4.6,2.2,8.5a55.1,55.1,0,0,1,1.4,12.1,50.3,50.3,0,0,1-2.8,17.4,32.5,32.5,0,0,1-7.8,12.6,24.9,24.9,0,0,1-11.9,6.3,39.1,39.1,0,0,1-13.7.7,35.7,35.7,0,0,1-8.7-2.3,16.4,16.4,0,0,1-6.2-3.9,25.5,25.5,0,0,1-3.7-5.6,20.3,20.3,0,0,1-2.1-7.6c-0.4-6.3.8-13.5,2.6-20.5,2.1-8.7,3.2-12.9,5.3-21.2s3-14,2.6-19.9a61.7,61.7,0,0,0-1.1-7.2q-0.7-3.4-1.7-7.6a44,44,0,0,0-3.8-9.6v-1.8c-0.1-3.6,1-6.1,3.1-6.8s8.3-1.5,13.6-1.1a44,44,0,0,1,16.1,4C-421.3,258.1-418.2,261.4-417,265.9Zm-20.7-1.1a2.5,2.5,0,0,0-1.2,2.5,11.6,11.6,0,0,0,1.1,3.7,19.7,19.7,0,0,1,1.3,4,4.4,4.4,0,0,0,2.5-2.5,8.4,8.4,0,0,0,.9-4.4,4.2,4.2,0,0,0-1.7-2.6A3.2,3.2,0,0,0-437.8,264.8Zm1.4,25.2-0.8,13.9a3.1,3.1,0,0,0,.6,1.9l1.8,0.8,2.1-.3c0.8-.2,1.5-1.1,2.1-2.7a16.1,16.1,0,0,0,.9-5.9,26.9,26.9,0,0,0-.3-3.4,5.3,5.3,0,0,0-1.5-2.9,4.8,4.8,0,0,0-2.9-1.7A3.5,3.5,0,0,0-436.4,290Z" transform="translate(641.6 -120.3)" style="fill:#fff"/><path d="M-361.3,262.3a69.3,69.3,0,0,1-3.7,10.4l-3.6,9.1-0.7,3.5-0.2,4a18.5,18.5,0,0,0,.8,5.7,17,17,0,0,0,1.6,3.6c0.6,0.9,1.5,2.6,2.5,3.2s3.6,0,4.5-1.7l2.7-4.8a3.6,3.6,0,0,1,3.4-2,6.3,6.3,0,0,1,3.4,1.5c4.4,5.1,7.1,12.6,8,22.4s0.8,15.3,1.3,25.7-1.4,20-4.2,25-6.5,8.3-11.2,9.6l-10.2-.8-10.3-.8a30.5,30.5,0,0,1-13-4.5c-3.5-2.3-6.3-6.4-8.5-12.1l-0.5-8.6c0.2-10,2.9-20.1,5.4-29.5s5.3-18.5,5.4-27.7c0-3.1-1.7-8.2-5.1-14.9s-5-11.5-5.1-14.4a8.7,8.7,0,0,1,1.7-5.5,14.4,14.4,0,0,1,5.9-4.2l7-1h6.9a29.7,29.7,0,0,1,7.6,1.4,27.6,27.6,0,0,1,6.8,3.5,3.4,3.4,0,0,1,1.2,2.2v1.7Z" transform="translate(641.6 -120.3)" style="fill:#fff"/><path d="M-287.7,267.2a27.4,27.4,0,0,1,3.6,6.8,20.7,20.7,0,0,1,1.3,6.9,10.5,10.5,0,0,1-1.3,5.7,3.6,3.6,0,0,1-3.4,1.1,7.7,7.7,0,0,1-4.1-2.3l-3.8-5.1q-2.9-3.2-5.1-3.4a5.3,5.3,0,0,0-2.4.5c-1,.4-1.6,1.4-1.6,3a4.7,4.7,0,0,0,.7,2.9c0.5,0.7,2.6,1.7,6.1,2.8s5,2.7,5,5.1v3.5a17.2,17.2,0,0,1-.3,3.5c-0.2.8-.9,1.3-2.2,1.4l-2-.2a8.1,8.1,0,0,0-3.7.4,4.5,4.5,0,0,0-2.5,2,6,6,0,0,0-.8,3q0,4.9,2.3,5.7l3.5,0.9c1.9,0.2,4.1-1.2,6.6-4.5s4.3-4.8,5.2-4.7a9,9,0,0,1,3.7,2q2.4,1.9,3.6,8.4l2.4,20.1c0,2.9,0,4.4,0,7.4v7.6c0,12.1-.5,20.4-1.5,24.9s-2.3,7.8-4.3,9.9a14.2,14.2,0,0,1-8.6,4.1,44.6,44.6,0,0,1-12.6-.5,74.2,74.2,0,0,1-13.6-3.6,33.9,33.9,0,0,1-10.4-5.7,25.8,25.8,0,0,1-5.7-6.7,17,17,0,0,1-2.1-8.6,66.2,66.2,0,0,1,3.3-19.7l6.9-20.5a61.7,61.7,0,0,0,3.4-18.6c0-1.5.1-3.2,0-4.6s-0.5-2.7-.7-4.2a33.2,33.2,0,0,0-2.1-6.8l-4-8.7a22.8,22.8,0,0,1-1.9-8.4l0.4-3.5a15.7,15.7,0,0,1,8.1-4.9,37.9,37.9,0,0,1,11.4-.5l4.1,0.4,4.4,0.4,9.4,1.8a4.2,4.2,0,0,1,2.6,1.2A11.6,11.6,0,0,1-287.7,267.2Z" transform="translate(641.6 -120.3)" style="fill:#fff"/><path d="M-229.1,281.9a19.3,19.3,0,0,1,.9,5.8,20.1,20.1,0,0,1-.4,4.5,23.1,23.1,0,0,1-1.8,4.6c-1,1.9-2.6,2.7-5,2.3a6.2,6.2,0,0,1-3.7-1.9c-0.6-.7-1.5-4.3-2.5-9.7s-2.4-8.3-4.7-8.6l-2,.2a5,5,0,0,0-3.1,2.4,16.7,16.7,0,0,0-1.3,3,9.4,9.4,0,0,0-.4,2.6,7.1,7.1,0,0,0,.8,3c0.5,1.1,5,5.5,12.7,13.7s11.8,15.6,13.4,21.2a110,110,0,0,1,3.9,28.2,111.2,111.2,0,0,1-1.2,18.2,91.2,91.2,0,0,1-2.6,11.4,38.2,38.2,0,0,1-3.2,7.8,15.9,15.9,0,0,1-7.5,6,20.8,20.8,0,0,1-4.6.9,17.8,17.8,0,0,1-5-.5,25.7,25.7,0,0,1-8.4-3.4,31.2,31.2,0,0,1-9.8-12.4,74,74,0,0,1-5.6-18.2V345.4a107.4,107.4,0,0,1,1-17.1,42.7,42.7,0,0,1,2.8-9.6l2.2-.3a14.8,14.8,0,0,1,4.5,2.4,22.6,22.6,0,0,0,4.8,2.8,2.8,2.8,0,0,0,2.2-.4,8,8,0,0,0,2.1-3c-0.5-4.5-2.9-10.1-7.6-16.6s-7.1-12.2-7.1-17.3v-1.9a16.5,16.5,0,0,1,2.2-8.5,19.4,19.4,0,0,1,6.3-6.7c3.1-1.8,7.5-2.3,11.5-1.8a18.4,18.4,0,0,1,9.9,4.2C-232.9,273.9-230.7,277.4-229.1,281.9Z" transform="translate(641.6 -120.3)" style="fill:#fff"/><path d="M-194.3,300.5l-0.7-4.1a17.4,17.4,0,0,0-1.4-3.7q-0.5-.6-1.1.2a4.4,4.4,0,0,0-.8,2.2c-0.6,7.3.9,17.2,2.5,27.2l4.9,29.9a172.5,172.5,0,0,1,2.5,26.9,95.1,95.1,0,0,1-1.3,17.8,18,18,0,0,1-5.6,10.4,7.7,7.7,0,0,1-7.3,1.7,15.2,15.2,0,0,1-3.1-1l-2.5-1.7a22.4,22.4,0,0,1-5.3-5,24.4,24.4,0,0,1-3.8-9.5,65.2,65.2,0,0,1-1.2-12.9c0-2-.1-4,0-5.9s0.3-3.2.3-4l0.5-7.9c0.5-3.4,2.3-12.2,5.5-26.7,2.6-11.6,4.7-23.5,4.8-35.4v-5a4.7,4.7,0,0,0-.6-2.1,1.3,1.3,0,0,0-1.6-.8q-0.8,2.2-1.5,11.6t-3.6,10.9q-3.3-1.7-4.2-7.4v-13q0-4,.1-6.8t0.8-7.2a13.5,13.5,0,0,1,3.4-7.2,6.5,6.5,0,0,1,2-.4h2.2l7.3,1,7.7,1a11.8,11.8,0,0,1,4.4,1.2,16.6,16.6,0,0,1,3.4,7.9q0.7,4.5,1,7.9t0.3,7.9v13c-0.4,3.7-1.8,5.7-4.1,6.1q-2.2-1.9-3.1-7.3Z" transform="translate(641.6 -120.3)" style="fill:#fff"/><path d="M-151.9,284.5c4.2,9.6,6.3,20,7.9,30,2.9,17.7,2.8,36.6,3,54.9v16.4a86.3,86.3,0,0,1-3.4,20q-2.7,8.6-7.5,12.3a13.7,13.7,0,0,1-4.4,1.8,13.8,13.8,0,0,1-5,.1,15.3,15.3,0,0,1-6.1-2.3c-1.8-1.2-3.9-4-6.4-8.5s-4.5-11.6-6.1-21a176.3,176.3,0,0,1-2.5-30.6l0.2-14q0-4.1.5-10.3t0.8-10.8c1.7-11.1,3.4-22.4,6.2-33.3,1.7-6.7,4.1-10.5,7-11.3l5.3-1.1,2.1,0.2a8,8,0,0,1,4.5,1.8A15.5,15.5,0,0,1-151.9,284.5ZM-162,297q-1.6-.2-2.6,2.6a27,27,0,0,0-1.3,5.5l-0.4,6v12.9a6.6,6.6,0,0,0,1.3,4.3,4.7,4.7,0,0,0,3,1.8,3.3,3.3,0,0,0,3-1.1,5.7,5.7,0,0,0,1.2-4V311.7a43.4,43.4,0,0,0-.7-6,44.2,44.2,0,0,0-1.3-6.3Q-160.4,297.2-162,297Z" transform="translate(641.6 -120.3)" style="fill:#fff"/><path d="M-103.9,287.7a32.2,32.2,0,0,1,1.9,7.7,59.5,59.5,0,0,1,.7,10.9,13.4,13.4,0,0,1-1.4,5.4,11.3,11.3,0,0,1-2.3,3.2l-1.7.9a3.8,3.8,0,0,1-3.2-1.5,9.7,9.7,0,0,1-1.6-4.9v-2.2q0-1.8-.1-3.6a36.1,36.1,0,0,0-.4-3.8,6.6,6.6,0,0,0-1.9-3.6q-1.9,0-3.1,2.7a21.3,21.3,0,0,0-1.7,6.8l-0.8,7.5-0.3,7.5v2.9a30.9,30.9,0,0,0,.3,3.6q0.3,2.4.5,3.6t0.8,3.1a21.6,21.6,0,0,0,3.2,5.9,4.8,4.8,0,0,0,3.6,2.1,3.8,3.8,0,0,0,2.4-.9,19.4,19.4,0,0,0,2.3-4.8c0.9-2.6,1.8-4.1,2.7-4.1a2.2,2.2,0,0,1,1.6.7,158.1,158.1,0,0,1,3.5,18.8,167,167,0,0,1,1.4,20.5,132.8,132.8,0,0,1-1.5,21.3c-1.1,6.7-2.5,11.8-4.2,15.6s-3.2,6.2-4.4,7.2a17.4,17.4,0,0,1-3.4,2.3,8.5,8.5,0,0,1-3.7.9h-2.3c-3.5,0-6.6-1.9-9.3-5.8s-5.1-10.4-7-19.8c-2.4-11.3-3-23.1-3-34.4a239.6,239.6,0,0,1,2.4-36.1,158.6,158.6,0,0,1,7.5-31.1,24.8,24.8,0,0,1,5.8-8.9q3.6-3.4,7.2-3.5C-109.8,280.1-106.5,282.6-103.9,287.7Z" transform="translate(641.6 -120.3)" style="fill:#fff"/><path d="M-72.9,280.2a19.2,19.2,0,0,1,1.9,8.8,66.9,66.9,0,0,1-1.2,10.4,66.7,66.7,0,0,0-1.2,10.5v2.9l0.5,2.4a1.5,1.5,0,0,0,1.5,1.2h0.6l1-.9a17.2,17.2,0,0,0,1.8-5.8,50.4,50.4,0,0,0,.5-7.6v-8c0-.8-0.2-2.2-0.3-3.8a28.8,28.8,0,0,1,.9-8.6,9.9,9.9,0,0,1,3.7-5.6l2.5-2.2,3.2-1.3q4.2-.7,7.1,3c1.2,1.8,1.7,4.7,1.7,8.7a31.6,31.6,0,0,1-.3,4,41.6,41.6,0,0,1-1.2,5.5c-0.6,2.3-2.9,6.6-6.7,12.8s-6.3,11.4-7.2,15.6c0.5,3.7,2.5,9.2,5.9,16.1s5.6,11.7,6.7,14.6a102.2,102.2,0,0,1,3.4,13.5,90.4,90.4,0,0,1,1.8,17.9,60.6,60.6,0,0,1-1.4,14.5,19.3,19.3,0,0,1-3.7,8,12.2,12.2,0,0,1-5.1,3.6,6.8,6.8,0,0,1-5.5-.1c-1.6-.8-2.9-2.7-4-5.7a47.4,47.4,0,0,1-1.1-7l-0.4-7.9c0-1.2,0-2.8.1-5s0.2-4.9.3-8.1l0.5-13q0-2.5-.1-4.2c-0.1-1.1-.2-3.4-0.5-6.8s-0.4-6-.6-7.8a30.3,30.3,0,0,0-.7-4.1c-0.4-1.7-1.1-2.8-2.3-2.9a11.9,11.9,0,0,0-3,6.1,39.3,39.3,0,0,0-.8,8.8c0,3,.1,5.1.2,6.5s0.2,2.3.2,2.9,0.2,1.8.5,3.5l2,13.5a113.4,113.4,0,0,1,1.4,15.4c0,4.9-.4,10.1-2,14.1a16.6,16.6,0,0,1-4.3,5.9,10.6,10.6,0,0,1-5,2.7,10.2,10.2,0,0,1-6.5-.9,7.4,7.4,0,0,1-3.3-4.8l-2-9.9c0.1-11.3,2.1-22.7,4.2-33.8s4.1-22.1,4.3-33.3v-3.2c0-4.7-.9-12-2.8-22s-2.8-17.1-2.8-21.2v-3.8c2.1-5.3,5.1-8,9.1-8.4S-75.1,276.9-72.9,280.2Z" transform="translate(641.6 -120.3)" style="fill:#fff"/></svg>