<?xml version="1.0" standalone="no"?>
<!DOCTYPE svg PUBLIC "-//W3C//DTD SVG 1.1//EN" "http://www.w3.org/Graphics/SVG/1.1/DTD/svg11.dtd" >
<svg xmlns="http://www.w3.org/2000/svg" xmlns:xlink="http://www.w3.org/1999/xlink" version="1.1">
<metadata>
Created by FontForge 20170731 at Sun Jun  2 22:11:40 2013
 By Aleksey,,,
Fontgrube Bellybeans
</metadata>
<defs>
<font id="BellybeansFG" horiz-adv-x="439" >
  <font-face 
    font-family="Bellybeans FG"
    font-weight="600"
    font-stretch="normal"
    units-per-em="1000"
    panose-1="4 0 5 0 0 0 0 0 0 0"
    ascent="800"
    descent="-200"
    x-height="630"
    cap-height="815"
    bbox="-3 -220 924 1040"
    underline-thickness="20"
    underline-position="-162"
    unicode-range="U+0020-2122"
  />
<missing-glyph horiz-adv-x="500" 
d="M63 0v999h375v-999h-375zM125 63h250v874h-250v-874z" />
    <glyph glyph-name=".notdef" horiz-adv-x="500" 
d="M63 0v999h375v-999h-375zM125 63h250v874h-250v-874z" />
    <glyph glyph-name=".null" horiz-adv-x="0" 
 />
    <glyph glyph-name="nonmarkingreturn" horiz-adv-x="262" 
 />
    <glyph glyph-name="space" unicode=" " horiz-adv-x="262" 
 />
    <glyph glyph-name="exclam" unicode="!" horiz-adv-x="462" 
d="M234 415q-24 0 -48 4q-49 9 -56 14q-15 10 -15 52q0 9 12 43.5t12 49.5q0 33 -52.5 83t-52.5 73q0 43 77 66q54 15 113 15q57 0 114 -15q80 -21 80 -60q0 -40 -52 -89q-56 -51 -61 -85q-2 -13 5 -44q8 -35 8 -45q0 -39 -23 -52q-17 -10 -61 -10zM18 165q0 144 95 182
q44 18 130 18q37 0 53 -8q23 -11 31 -40q7 -23 26 -69q4 -8 50 -69q32 -43 32 -74q0 -66 -80 -100q-61 -26 -138 -26q-93 0 -146 47t-53 139z" />
    <glyph glyph-name="quotedbl" unicode="&#x22;" horiz-adv-x="463" 
d="M59 523q0 13 19 41t19 46q0 22 -28 62t-28 60q0 33 27 77q31 49 64 49q86 0 86 -128q0 -69 -37 -140q-45 -84 -111 -81q-11 0 -11 14zM271 522q0 13 19.5 41t19.5 46q0 23 -28.5 62.5t-28.5 59.5q0 33 28 77q30 49 63 49q86 0 86 -128q0 -69 -37 -139q-45 -84 -111 -82
q-11 0 -11 14z" />
    <glyph glyph-name="numbersign" unicode="#" horiz-adv-x="616" 
d="M548 363q21 0 21 -54q0 -68 1 -52q-3 -36 -23 -36q-4 0 -12.5 1t-12.5 1q-15 0 -18 -5.5t-3 -23.5q0 -31 12 -83t12 -74q0 -52 -91 -52q-37 0 -118 5q-16 2 -26.5 19.5t-10.5 36.5q0 29 22 82.5t22 82.5q0 19 -14 22q-3 1 -28 1q-38 0 -45 -12q-3 -6 -3 -51q0 -18 6 -54
t6 -54q0 -46 -23 -63q-18 -14 -63 -14q-13 0 -37 1h-37q-18 0 -32 32q-11 27 -11 48q0 27 25 76.5t25 74.5q0 12 -16 16q-26 6 -30 8q-17 10 -17 37q0 44 7 60q11 28 47 28q7 0 22 -1.5t23 -1.5q30 0 30 87q0 28 -36 28q-6 0 -17.5 -1t-15.5 -1q-23 0 -23 43q0 32 11 45.5
t42 13.5q6 0 18.5 -2t19.5 -2q25 0 34 55q8 51 15 103q14 55 52 55q43 0 43 -32q0 -12 1 -36v-35q0 -15 -5.5 -45t-5.5 -45q0 -22 72 -22q22 0 26 55q2 51 4 103q6 55 32 55q36 0 45 -63q2 -18 2 -94q0 -8 -1 -23.5t-1 -22.5q0 -10 12 -13q8 -2 24 -1q23 2 21 2q28 0 39 -9
t11 -38q0 -35 -3 -42q-5 -15 -29 -15q-9 0 -25.5 1t-24.5 1q-18 0 -18 -38q0 -48 10 -58t61 -10zM264 392q0 -27 32 -27q38 0 53.5 14t15.5 53q0 32 -6.5 39.5t-35.5 7.5q-33 0 -44 -18q-4 -8 -13 -51q-2 -11 -2 -18z" />
    <glyph glyph-name="dollar" unicode="$" horiz-adv-x="392" 
d="M189 -6q-23 0 -27 25q0 1 1 42q-143 39 -143 251q0 45 8 88q12 63 36 63q13 0 32.5 -22t31.5 -22t22 9.5t10 20.5q0 27 -27 52l-48 44q-26 32 -26 76q0 40 36 68q2 1 67 37q10 5 13 20q5 23 5 25q3 6 24 6t25 -17q2 -4 1 -39q103 -20 103 -109q0 -22 -14 -39.5t-35 -17.5
q-29 0 -39 22q-5 21 -11 42.5t-26 21.5q-13 0 -26.5 -10t-13.5 -23q0 -46 53 -76q81 -46 99 -64q53 -55 53 -164q0 -93 -37 -159q-18 -32 -72 -64q-46 -28 -46 -42q0 -3 3 -17q2 -10 -1 -16q-6 -12 -31 -12z" />
    <glyph glyph-name="percent" unicode="%" horiz-adv-x="738" 
d="M406 164q0 64 26 129q32 85 88 85q70 0 103 -78q23 -57 23 -135q0 -63 -18 -110q-27 -66 -82 -66q-140 0 -140 175zM105 34q37 81 133 231q123 192 139 220q29 62 58 125q46 87 88 87q45 0 45 -22q0 -28 -121 -229l-152 -246q-16 -25 -85 -150q-27 -49 -54 -49
q-16 0 -33 6q-20 8 -20 20q0 3 2 7zM66 498q0 54 22 109q28 72 76 72q60 0 88 -67q21 -47 21 -113q0 -53 -16 -93q-23 -56 -71 -56q-120 0 -120 148zM529 323q-29 0 -29 -67q0 -30 33 -30q24 0 24 12v28q0 15 -7 34q-9 23 -21 23zM171 632q-24 0 -24 -56q0 -26 28 -26
q21 0 21 10v24q0 13 -7 30.5t-18 17.5z" />
    <glyph glyph-name="ampersand" unicode="&#x26;" horiz-adv-x="671" 
d="M550 -23q-31 0 -65 22q-29 22 -57 43q-48 -57 -150 -57q-116 0 -180 60.5t-64 176.5q0 165 170 346q-5 18 -34 76q-23 46 -23 78q0 93 145 93q48 0 83 -29t35 -76q0 -39 -35 -88l-62 -76q1 -27 38 -100q39 -78 60 -78q14 0 29 25.5t28 25.5q52 0 52 -157q0 -18 -6 -80
q31 -63 46 -83q26 -36 73 -59q13 -7 13 -17q0 -20 -39 -34q-32 -12 -57 -12zM240 725q0 -40 34 -81q43 43 43 82q0 10 -14.5 19.5t-24.5 9.5q-38 0 -38 -30zM219 407q0 -22 16.5 -41.5t38.5 -19.5q12 0 20 9q-16 75 -53 107q-22 -32 -22 -55z" />
    <glyph glyph-name="quotesingle" unicode="'" horiz-adv-x="231" 
d="M59 523q0 13 19 41t19 46q0 22 -28 62t-28 60q0 33 27 77q31 49 64 49q86 0 86 -128q0 -69 -37 -140q-45 -84 -111 -81q-11 0 -11 14z" />
    <glyph glyph-name="parenleft" unicode="(" horiz-adv-x="425" 
d="M397 -11q0 -47 -40.5 -81.5t-89.5 -34.5q-21 0 -40 7q-37 13 -86 75q-40 50 -65 99q-37 74 -50 144q-10 56 -10 150q0 112 72 241q59 106 199 275q19 23 43 23q34 0 34 -34q0 -11 -5 -22q-9 -24 -71 -144q-52 -99 -69 -169q-9 -35 -18 -69q-1 -8 -1 -74q0 -115 51 -190
q17 -24 95 -99q51 -48 51 -97z" />
    <glyph glyph-name="parenright" unicode=")" horiz-adv-x="426" 
d="M407 348q0 -94 -10 -150q-13 -70 -50 -144q-25 -49 -65 -99q-49 -62 -86 -75q-19 -7 -40 -7q-49 0 -89.5 34.5t-40.5 81.5q0 49 51 97q78 75 95 99q51 75 51 190q0 66 -1 74q-9 34 -18 69q-17 70 -69 169q-62 120 -71 144q-5 11 -5 22q0 34 34 34q24 0 43 -23
q140 -169 199 -275q72 -129 72 -241z" />
    <glyph glyph-name="asterisk" unicode="*" horiz-adv-x="606" 
d="M387 423q1 -14 35 -49.5t34 -52.5q0 -16 -26.5 -35t-45.5 -22q-17 6 -47.5 52t-36.5 46q-8 0 -38 -49t-47 -49t-41 20t-29 37q12 37 66 97l1 5q-6 13 -66 27q-54 14 -54 35q0 22 10 54q12 40 28 40q15 0 37 -11v1q19 -10 39 -21q24 -10 43 -10l9 4q3 10 3 32
q0 12 -1 37.5t-1 37.5q0 31 10 38t42 7q37 0 45 -9t8 -49q0 -13 -1.5 -40.5t-1.5 -40.5q0 -5 2 -12l5 -6q15 4 50 24q31 18 52 18q14 0 27 -40q11 -35 11 -54q0 -20 -50 -36l-68 -18z" />
    <glyph glyph-name="plus" unicode="+" horiz-adv-x="562" 
d="M191 331q-14 0 -43.5 -4t-43.5 -4q-35 0 -44 20q-7 12 -7 50q0 24 9 32.5t33 9.5l99 1q31 0 38 41q2 40 14 118q8 29 15 34q4 3 28 3q36 0 36 -33q0 -19 4 -53.5t4 -52.5q0 -58 27 -58h96q34 0 45 -9t11 -41q0 -33 -8 -44q-10 -14 -41 -14l-92 1q-7 0 -15 -6t-3 -23
l24 -84q1 -5 1 -10q0 -27 -30.5 -48.5t-62.5 -21.5q-33 0 -61 20.5t-28 49.5q0 6 2 12l18 86q2 8 2 13q0 15 -27 15z" />
    <glyph glyph-name="comma" unicode="," horiz-adv-x="285" 
d="M48 -201q-8 10 -8 21t23 45.5t23 61.5q0 36 -24.5 102.5t-24.5 102.5q0 45 25 79q28 38 71 38q108 0 108 -168q0 -88 -47 -178q-56 -104 -136 -104h-10z" />
    <glyph glyph-name="hyphen" unicode="-" horiz-adv-x="429" 
d="M209 260q-148 0 -188 35q13 67 18 82q16 46 47 66q177 0 309 -2q13 -17 13 -38q0 -22 -36 -117q-39 -26 -163 -26z" />
    <glyph glyph-name="hyphen" unicode="&#x2010;" horiz-adv-x="429" 
d="M209 260q-148 0 -188 35q13 67 18 82q16 46 47 66q177 0 309 -2q13 -17 13 -38q0 -22 -36 -117q-39 -26 -163 -26z" />
    <glyph glyph-name="period" unicode="." horiz-adv-x="311" 
d="M32 102q0 47 37 112q42 71 86 71q52 0 90 -69q32 -60 32 -117q0 -109 -134 -109q-62 0 -86.5 25t-24.5 87z" />
    <glyph glyph-name="slash" unicode="/" horiz-adv-x="604" 
d="M18 117q0 89 101 199q59 61 118 123q68 74 103 136q11 20 39 112q23 76 50 99q33 29 72 29q26 0 50 -13q28 -16 28 -41q0 -14 -32 -44q-74 -68 -103 -176q-9 -36 -22 -190q-11 -144 -35 -216q-35 -108 -111 -131q-38 -11 -115 -11q-64 0 -101 30q-42 33 -42 94z" />
    <glyph glyph-name="zero" unicode="0" horiz-adv-x="505" 
d="M25 349q0 101 38 240q45 168 109 199q39 19 74 19q51 0 92 -34q60 -49 104 -199q38 -132 38 -229q0 -352 -257 -352q-98 0 -154 135q-44 106 -44 221zM251 730q-30 0 -47 -51q-12 -38 -12 -78q0 -95 52 -95q57 0 57 76v33q0 33 -11 68q-14 47 -39 47z" />
    <glyph glyph-name="one" unicode="1" horiz-adv-x="421" 
d="M21 164q0 64 39 141q36 65 73 130q39 76 39 139q0 44 -17 82q-11 24 -44 72q-9 13 -9 24q0 10 7 19q27 33 75 41q19 3 90 3q17 0 51.5 -21.5t34.5 -38.5q0 -46 -29 -133.5t-29 -133.5q0 -72 50.5 -199.5t50.5 -176.5q0 -125 -201 -123q-181 3 -181 175z" />
    <glyph glyph-name="two" unicode="2" horiz-adv-x="464" 
d="M17 287v46q1 30 1 45q0 65 67 142q36 41 125 116q67 56 67 72q0 30 -41 30q-27 0 -36 -13q-5 -6 -7 -29t-11 -35q-14 -19 -33 -19q-66 0 -66 63q0 51 52 79q43 23 99 23q57 0 107 -25q61 -30 61 -81q0 -45 -47 -84l-88 -60q-47 -32 -47 -61q0 -26 35 -26q18 0 48.5 17
t45.5 17q86 0 86 -279q0 -121 -52 -175q-53 -57 -173 -57q-122 0 -165 94q-28 62 -28 200z" />
    <glyph glyph-name="three" unicode="3" horiz-adv-x="479" 
d="M18 196q0 46 18 156q20 119 36 146q11 17 23 17q23 0 56.5 -32t46.5 -32q20 0 33.5 13.5t13.5 33.5q0 31 -21 39q-2 1 -41 5q-24 3 -27 20q-3 10 -3 23q0 19 11 24q7 4 28 4q3 0 8.5 -1t8.5 -1q52 0 52 48q0 23 -16.5 39t-39.5 16q-33 0 -50.5 -36.5t-32.5 -36.5
q-26 0 -44.5 16.5t-18.5 42.5q0 48 58 80q50 27 103 27q57 0 107 -30q59 -35 59 -87q0 -47 -17 -67l-30 -26q-18 -16 -18 -34t47 -82q54 -74 60 -88q22 -49 22 -146q0 -83 -33 -146q-38 -72 -112 -95q-41 -13 -131 -13q-89 0 -126 60q-30 48 -30 143z" />
    <glyph glyph-name="four" unicode="4" horiz-adv-x="526" 
d="M439 413q-27 0 -27 -38q0 -47 38 -129t38 -129q0 -65 -52 -97q-43 -27 -113 -27q-52 0 -113 18q-77 22 -90 58q-7 18 -7 59q0 48 68.5 139t68.5 131q0 30 -46 34.5t-93 7.5q-60 11 -85 54q0 78 73 187q83 126 208 126q111 0 171 -65q8 -9 4 -26q-18 -26 -35 -51
q-33 -49 -33 -99q0 -12 3 -29q45 -7 60 -17q23 -16 23 -55q0 -42 -12 -51q-7 -7 -23 -4q-27 3 -26 3zM167 595q0 -35 90 -47q14 64 14 90q0 27 -28 27t-52 -20.5t-24 -49.5z" />
    <glyph glyph-name="five" unicode="5" horiz-adv-x="497" 
d="M349 645q2 41 -22 53q-14 8 -60 8q-41 0 -56 -11q-19 -14 -19 -55q0 -28 20 -38q12 -6 50 -10t58 -12q84 -33 117 -126q24 -67 24 -178q0 -145 -56 -211q-61 -72 -204 -72q-146 0 -146 196q0 44 5 126q7 102 14 115q14 24 25 24q8 0 19 -8q18 -15 38 -29.5t43 -14.5
q78 0 78 59q0 34 -27 54.5t-62 20.5q-17 0 -43 -9l-40 -14q-7 -2 -24 21q-5 7 -31 107.5t-26 112.5q0 54 199 54q47 0 130 -11q104 -13 113 -30q6 -11 6 -24q0 -37 -13 -76q-17 -51 -46 -51q-44 0 -64 29z" />
    <glyph glyph-name="six" unicode="6" horiz-adv-x="478" 
d="M15 318q0 114 31 221q36 121 102 197q62 71 126 71q62 0 103 -34.5t41 -96.5q0 -33 -18 -58t-51 -25q-31 0 -38 32q-1 29 -4 59.5t-27 30.5q-32 0 -56 -55q-20 -46 -20 -84q0 -36 22 -36q84 0 129 -26q92 -55 92 -245q0 -115 -48 -189q-58 -87 -168 -87q-117 0 -173 110
q-43 84 -43 215zM209 409q0 -44 77 -44q35 0 35 31q0 23 -27 41t-52 18q-15 0 -24 -14.5t-9 -31.5z" />
    <glyph glyph-name="seven" unicode="7" horiz-adv-x="435" 
d="M413 118q0 -78 -63 -106q-42 -19 -132 -19q-83 0 -139 47q-59 50 -59 132q0 66 56 154l104 154q55 93 55 172q0 46 -39 46q-26 0 -59 -38t-57 -38q-31 0 -31 44q0 39 25 90q28 59 62 59h180q30 0 63 -17q38 -19 38 -47q0 10 -37 -74t-37 -136q0 -72 35 -211t35 -212z" />
    <glyph glyph-name="eight" unicode="8" horiz-adv-x="492" 
d="M26 199q0 56 36 135q13 29 66 128q36 66 36 88q0 11 -36.5 67t-36.5 90q0 51 51 78q41 22 96 22q72 0 119 -23q61 -30 61 -94q0 -42 -40 -79.5t-41 -55.5q44 -79 87 -158q43 -90 43 -174q0 -73 -44 -141q-47 -75 -115 -86q-19 -3 -60 -3q-104 0 -161 50q-61 53 -61 156z
M232 671v-14q0 -14 13.5 -33t27.5 -19q19 0 29 26q7 19 7 42q0 16 -12.5 28.5t-27.5 12.5q-37 0 -37 -43zM224 427q0 -33 45 -33q38 0 41 36q-5 23 -10 45q-8 28 -31 28q-18 0 -33 -30q-12 -25 -12 -46z" />
    <glyph glyph-name="nine" unicode="9" horiz-adv-x="469" 
d="M18 341q0 170 57 170q17 0 45.5 -25t66.5 -25q26 0 48 15q26 17 26 41q0 20 -21 24q-106 19 -123 26q-67 27 -67 93q0 63 43.5 105t107.5 42q130 0 193 -149q45 -109 45 -261q0 -112 -33 -219q-42 -137 -120 -175q-21 -10 -47 -11q25 1 -48 1q-18 0 -48 13
q-125 54 -125 335zM200 714q-19 0 -34.5 -13.5t-13.5 -31.5q2 -28 33 -39q17 -6 59 -9q17 -1 17 26v25q0 42 -61 42z" />
    <glyph glyph-name="colon" unicode=":" horiz-adv-x="309" 
d="M67 518q0 43 33 107q37 71 75 71q39 0 66 -66q22 -54 22 -100q0 -85 -118 -85q-34 0 -56 19.5t-22 53.5zM42 105q0 48 37 114q42 73 86 73q52 0 90 -72q32 -60 32 -119q0 -111 -133 -111q-61 0 -86.5 26.5t-25.5 88.5z" />
    <glyph glyph-name="semicolon" unicode=";" horiz-adv-x="321" 
d="M67 518q0 43 33 107q37 71 75 71q39 0 66 -66q22 -54 22 -100q0 -85 -118 -85q-34 0 -56 19.5t-22 53.5zM62 -207q-8 10 -8 21t22.5 45t22.5 59q0 36 -29.5 100.5t-29.5 100.5q0 44 31.5 79.5t74.5 35.5q139 0 139 -165q0 -54 -62 -153q-64 -102 -113 -117q-19 -6 -39 -6
h-9z" />
    <glyph glyph-name="less" unicode="&#x3c;" horiz-adv-x="613" 
d="M31 338q0 39 23 54q27 18 79 38l82 32l338 147q21 -1 21 -43q0 -55 -25 -66l-368 -161l368 -139q26 -10 26 -58t-20 -51q-242 89 -501 192q-23 18 -23 55z" />
    <glyph glyph-name="equal" unicode="=" horiz-adv-x="429" 
d="M219 441q-136 0 -175 26q11 45 19 62q15 34 42 48h170q-2 0 119 -2q12 -13 12 -29q0 -17 -34 -84q-36 -21 -153 -21zM210 201q-149 0 -188 35q13 67 18 82q16 46 47 66h183l126 -2q13 -18 13 -39t-36 -115q-39 -27 -163 -27z" />
    <glyph glyph-name="greater" unicode="&#x3e;" horiz-adv-x="613" 
d="M45 142q0 48 26 58l369 139l-368 161q-25 11 -25 66q0 41 18 43q247 -105 391 -167q51 -22 110 -50q23 -18 23 -54q0 -40 -23 -55q-4 -2 -33 -12q-88 -32 -234 -89q-174 -69 -233 -91q-21 2 -21 51z" />
    <glyph glyph-name="question" unicode="?" horiz-adv-x="507" 
d="M327 482q0 -44 -106 -44q-78 0 -114 47q0 43 40 77q37 26 75.5 53.5t38.5 56.5q0 16 -15.5 29.5t-31.5 13.5q-30 0 -37 -47t-27 -47q-87 0 -87 73q0 56 77 84q56 21 125 21h52q59 0 100 -16q60 -22 60 -70q0 -37 -40 -74q-36 -28 -73 -57q-40 -31 -40 -56q0 -8 1.5 -22.5
t1.5 -21.5zM18 159q0 70 19 131q26 81 75 102q43 18 114 18q48 0 70 -6q39 -10 50 -43q1 -10 4 -31q4 -24 22 -59q25 -42 50 -85q32 -56 32 -91q0 -72 -83 -108q-61 -26 -145 -26q-208 0 -208 198z" />
    <glyph glyph-name="at" unicode="@" horiz-adv-x="586" 
d="M211 494q0 34 32 94q36 66 67 67l12 1q10 0 18 -4.5t14 -4.5q3 0 8 2t8 2q19 0 29 -48.5t32 -48.5q11 0 21 7t10 14q0 59 -54 96q-49 33 -109 33q-42 0 -86 -56q-37 -47 -47 -91.5t-10 -87.5q0 -37 5 -59q8 -39 49.5 -77.5t81.5 -38.5q43 0 114 31t84 31q32 0 46 -45
q11 -31 11 -72q0 -142 -85 -201q-65 -45 -194 -45q-130 0 -186 93q-51 83 -53 264q-1 144 67 272q81 153 214 153q140 0 190 -132q25 -65 25 -136q0 -35 -20 -66q-23 -38 -60 -38q-19 0 -35 14.5t-18 14.5q-8 0 -38 -23t-56 -23q-43 0 -66 35q-21 30 -21 73zM331 606
q-34 0 -34 -54q0 -18 37 -18q32 0 32 41q0 12 -11.5 21.5t-23.5 9.5z" />
    <glyph glyph-name="A" unicode="A" horiz-adv-x="688" 
d="M358 148q0 49 20 144t20 143q0 28 -10 49q-13 27 -38 27q-37 0 -51 -22q-10 -16 -10 -57q0 -46 20 -136t20 -136q0 -92 -37.5 -129.5t-129.5 -37.5q-63 0 -97 44q-31 39 -31 104q0 76 67 208.5t67 208.5q0 34 -24.5 93t-24.5 87q0 78 199 78q17 0 53 -1h54q160 0 160 -69
q0 -32 -23.5 -91t-23.5 -91q0 -77 63 -217.5t63 -219.5q0 -133 -170 -133q-67 0 -103 44q-33 41 -33 110zM345 714q-42 -1 -42 -48q0 -26 9.5 -33t35.5 -7q46 0 47 41q1 25 -11 36t-39 11z" />
    <glyph glyph-name="B" unicode="B" horiz-adv-x="569" 
d="M26 98q0 80 58.5 225t58.5 225q0 50 -16 93q-8 21 -32 60q-16 29 -16 44q0 70 145 70q243 0 243 -119q0 -45 -50 -107q131 -188 131 -321q0 -137 -89 -209q-82 -66 -223 -66q-135 0 -186 59q-24 27 -24 46zM273 699q0 -19 6.5 -42.5t12.5 -22.5q33 15 33 62
q0 12 -11.5 19.5t-24.5 7.5q-16 0 -16 -24zM284 513q-6 -61 -4 -90q1 -21 24 -19q50 5 50 47q0 10 -3 24q-11 55 -42 57q-23 1 -25 -19z" />
    <glyph glyph-name="C" unicode="C" horiz-adv-x="487" 
d="M24 354q0 157 57 289q73 172 208 172q137 0 137 -145q0 -16 -21 -33t-37 -17q-37 0 -46 28q-4 27 -8.5 54.5t-29.5 27.5q-72 0 -72 -162q0 -40 30 -74.5t70 -34.5q30 0 45 27.5t29 27.5q47 0 66 -97q12 -58 12 -136q0 -120 -47 -196q-56 -92 -169 -92q-121 0 -180 127
q-44 96 -44 234z" />
    <glyph glyph-name="D" unicode="D" horiz-adv-x="517" 
d="M13 111q0 9 23 77q64 190 64 302q0 65 -28 134q-2 4 -29 60q-23 47 -23 53q0 78 176 78q73 0 121 -22q86 -39 138 -185q44 -121 44 -236q0 -379 -332 -379q-57 0 -102 30q-52 33 -52 88zM225 666l7 -107l4 -58q6 -40 26 -39q26 1 42 40q13 30 13 61q0 39 -13 75
q-17 47 -49 47q-28 0 -30 -19z" />
    <glyph glyph-name="E" unicode="E" horiz-adv-x="492" 
d="M123 556q0 34 -31 93.5t-31 93.5q0 72 141 72h68q72 0 97 -10q45 -18 45 -77q0 -48 -38 -48q-25 0 -42 16t-47 16q-36 0 -36 -29q0 -23 23 -28t45 -10q23 -12 23 -51q0 -21 -23 -25.5t-45 -7.5q-24 -8 -24 -37q0 -25 11 -33t36 -8q22 0 52 32.5t41 32.5q78 0 78 -284
q0 -151 -26 -199q-41 -72 -179 -72q-89 0 -149 21q-88 32 -88 103q0 77 49.5 219.5t49.5 219.5z" />
    <glyph glyph-name="F" unicode="F" horiz-adv-x="443" 
d="M320 701q-31 0 -31 -26q0 -19 40.5 -31t40.5 -44q0 -33 -24 -41q-37 -12 -38 -12q-19 -11 -19 -33q0 -70 64.5 -192t64.5 -192q0 -45 -10 -67q-15 -34 -69 -54q-44 -16 -88 -16q-112 0 -155 19q-70 31 -70 128q0 76 61.5 209t61.5 204q0 31 -22.5 89.5t-22.5 90.5
q0 55 78 71q32 6 123 6q80 0 110 -20q39 -26 39 -102q0 -41 -33 -41q-11 0 -22 14q-15 19 -25 26q-20 14 -54 14z" />
    <glyph glyph-name="G" unicode="G" horiz-adv-x="501" 
d="M381 59q-72 -66 -156 -66q-200 0 -200 365q0 373 201 453q18 7 54 7q152 0 152 -109q0 -72 -69 -70q-34 1 -44 41.5t-38 40.5q-32 0 -58 -70q-22 -58 -22 -97q0 -37 18 -66q20 -33 55 -33q13 0 25.5 11t12.5 24q0 34 -35 33q-15 0 -15 20q0 28 16 37q10 5 28 6
q12 1 32 -0.5t23 -1.5q76 2 91 -21q9 -13 9 -58q0 -24 -3.5 -71t-3.5 -70q0 -55 11 -166t11 -165q0 -40 -32 -40q-20 0 -37 24z" />
    <glyph glyph-name="H" unicode="H" horiz-adv-x="681" 
d="M371 168q0 49 16.5 149.5t16.5 149.5q0 101 -56 101q-75 0 -75 -96q0 -52 29.5 -154t29.5 -154q0 -90 -27 -127q-32 -44 -117 -44q-80 0 -117 36.5t-37 115.5q0 64 40.5 185.5t40.5 185.5q0 41 -27.5 117t-27.5 117q0 65 129 65q108 0 108 -58q0 -13 -8 -39t-8 -40
q0 -28 24 -37q14 -5 49 -5q60 0 60 33q0 14 -4 42t-4 42q0 39 31 53q20 9 65 9q125 0 125 -73q0 -32 -27.5 -101t-27.5 -109q0 -76 44 -219t44 -219q0 -30 -26 -59t-66 -38q-22 -4 -75 -4q-8 0 -39 14q-55 24 -71 63q-12 28 -12 98z" />
    <glyph glyph-name="I" unicode="I" horiz-adv-x="374" 
d="M18 152q0 71 48.5 201.5t48.5 201.5q0 33 -28 89.5t-28 87.5q0 83 138 83q67 0 95 -11q45 -19 45 -76q0 -39 -36 -108.5t-36 -110.5q0 -59 44.5 -172t44.5 -175q0 -169 -148 -169q-56 0 -106 22q-61 26 -75 72q-7 22 -7 65z" />
    <glyph glyph-name="J" unicode="J" horiz-adv-x="454" 
d="M21 290q0 69 13 134q19 95 57 95q20 0 45.5 -29.5t46.5 -29.5q28 0 44 32q13 27 13 58q0 34 -18.5 99.5t-18.5 99.5q0 45 47 59q26 8 84 8q40 0 70.5 -21.5t30.5 -60.5q0 -40 -34 -112t-34 -113q0 -61 37 -175t37 -175q0 -86 -57 -136q-55 -46 -143 -46q-113 0 -172 104
q-48 85 -48 209z" />
    <glyph glyph-name="K" unicode="K" horiz-adv-x="593" 
d="M325 158q0 27 6.5 80.5t6.5 80.5q0 50 -9 90q-12 64 -41 62q-48 -4 -48 -85q0 -45 24.5 -130.5t24.5 -129.5q0 -63 -34 -98t-96 -35q-84 0 -111 46q-22 38 -22 64q0 74 51 209.5t51 208.5q0 42 -30.5 119t-30.5 119q0 33 35 51q28 13 67 13q42 0 73 -17q39 -22 39 -61
q0 -20 -13 -57t-13 -56q0 -44 34 -44q20 0 32 29q9 23 9 47q0 12 -2.5 35.5t-2.5 35.5q0 45 38 68q32 20 79 20q101 0 101 -74q0 -40 -46 -80q-45 -34 -89 -67q-48 -40 -48 -58q0 -10 11.5 -26.5t22.5 -31.5q17 -26 74 -85q50 -51 71 -95q32 -65 32 -160q0 -153 -119 -153
q-127 0 -127 165z" />
    <glyph glyph-name="L" unicode="L" horiz-adv-x="485" 
d="M112 538q0 37 -39.5 96.5t-39.5 93.5q0 90 177 90q28 0 60 -12q42 -14 42 -36q0 -30 -30.5 -92t-30.5 -103q0 -28 10 -51q13 -30 37 -30q16 0 35 34t36 34q57 0 80 -141q13 -80 13 -189q0 -129 -44 -184q-48 -62 -172 -62q-93 0 -123 7q-65 16 -89 76q-10 24 -10 58
q0 44 33 155q35 117 37 126q18 72 18 130z" />
    <glyph glyph-name="M" unicode="M" horiz-adv-x="711" 
d="M376 130q0 59 44.5 166.5t44.5 166.5q0 94 -34 94q-27 0 -27 -71q0 -18 4 -54t4 -55q0 -29 -19 -53.5t-47 -24.5q-27 0 -44 27q-15 23 -15 51q0 18 4 53.5t4 53.5q0 20 -7 41q-9 28 -25 28t-25 -24q-7 -17 -7 -36q0 -68 30 -157l54 -152q17 -51 17 -70q0 -38 -19 -72
t-51 -50q-11 -6 -26 -7q-11 -2 -27 -1q-26 1 -28 1q-73 0 -107 29q-38 31 -38 102q0 70 41 202.5t41 201.5q0 43 -34 114.5t-34 106.5q0 90 117 90q111 0 155 -80q9 -20 29 -61q25 63 78.5 97.5t122.5 34.5q76 0 103 -52q2 -5 2 -11q0 -18 -38 -104t-38 -131q0 -35 36 -156
q28 -93 52.5 -159.5t24.5 -80.5q0 -38 -27 -83t-62 -58q-26 -11 -89 -11q-68 0 -104 42t-36 112z" />
    <glyph glyph-name="N" unicode="N" horiz-adv-x="643" 
d="M500 -7q-50 0 -77 12t-45 56q-14 38 -14 73q0 76 -18 157q-1 7 -38 144q-25 93 -58 92q-18 0 -18 -67q0 -62 44.5 -181t44.5 -173q0 -51 -28 -82.5t-78 -31.5q-60 0 -86 5q-47 10 -71 45.5t-24 69.5q0 72 44.5 207.5t44.5 206.5q0 46 -33.5 119t-33.5 107q0 41 45 63
q35 16 82 16q67 0 106 -45q30 -34 116 -342l8 -38q7 -29 15 -29q9 0 12 24q3 17 1 29q-21 163 -57 258q-18 47 -18 57q0 75 144 75q31 0 61 -15q35 -17 35 -45q0 -45 -34.5 -114.5t-34.5 -109.5q0 -70 43.5 -205.5t43.5 -221.5q0 -68 -28 -92t-96 -24z" />
    <glyph glyph-name="O" unicode="O" horiz-adv-x="522" 
d="M31 314q0 131 19 225q18 84 50 154q45 97 102 113q31 9 84 9q125 0 178 -200q33 -125 33 -302v-113q0 -59 -39 -122q-63 -101 -192 -101q-121 0 -184 114q-51 92 -51 223zM265 706q-25 0 -38 -29q-1 -2 -18 -56q-8 -27 -5 -79q0 -17 22 -27q18 -8 39 -8q19 0 37 8
q22 11 22 27q2 52 -6 79q-15 51 -17 56q-13 29 -36 29z" />
    <glyph glyph-name="P" unicode="P" horiz-adv-x="420" 
d="M360 85q0 -108 -159 -108q-181 0 -181 98q0 73 31 215.5t31 215.5q0 105 -62 211q-2 3 -2 9q0 63 83 85q45 12 133 12q77 0 133 -32q67 -40 67 -111q0 -60 -52 -110q-49 -36 -97 -73q-53 -40 -53 -76q0 -63 64 -170t64 -166zM200 683q0 -89 17 -89q8 0 23 23q21 31 21 57
v15q0 14 -12.5 24t-25.5 10q-23 0 -23 -40z" />
    <glyph glyph-name="Q" unicode="Q" horiz-adv-x="516" 
d="M306 -2q-25 -5 -49 -5q-117 0 -180 136q-50 107 -50 239q0 142 50 277q66 178 183 178q108 0 175 -191q52 -148 52 -286q0 -157 -37 -235q-9 -18 -50 -79q12 -30 45 -38q27 -4 54 -9q25 -9 25 -42q0 -25 -23.5 -44t-48.5 -19q-45 0 -86 40q-24 23 -60 78zM200 603
q0 -56 25 -92q19 19 81 22q11 14 11 45q0 144 -54 144q-34 0 -51 -45q-12 -32 -12 -74z" />
    <glyph glyph-name="R" unicode="R" horiz-adv-x="574" 
d="M273 442q-13 0 -20 -29q-5 -21 -5 -39q0 -47 15 -140t15 -140q0 -63 -30.5 -90t-94.5 -27q-124 0 -124 164q0 46 21 112q34 105 35 109q17 70 17 145q0 67 -14.5 113t-52.5 101q-5 6 -5 13q0 44 84 66q57 15 120 15q68 0 123 -25q69 -33 69 -92q0 -66 -70 -134
q-3 -1 -5 -5q0 -4 4 -7q99 -65 153 -172q52 -103 52 -226q0 -177 -111 -177q-33 0 -52 5q-41 11 -65 89q-18 59 -19 119l-4 159q-2 93 -36 93zM206 696l18 -102q1 -10 9 -9q50 1 50 76q0 53 -49 53q-30 0 -28 -18z" />
    <glyph glyph-name="S" unicode="S" horiz-adv-x="477" 
d="M25 340q0 38 9 74q13 52 39 52q14 0 38.5 -12t38.5 -12t27 8t13 20q0 36 -32 73q-30 31 -59 63q-32 41 -32 85q0 60 56 94q48 30 112 30q58 0 105 -26q57 -31 57 -83q0 -30 -18 -53.5t-48 -23.5q-31 0 -44 30q-8 28 -17 57.5t-35 29.5q-23 0 -41 -18.5t-18 -42.5
q0 -10 111 -100q117 -96 132 -124q35 -64 35 -159q0 -128 -49 -209q-59 -100 -178 -100q-101 0 -154 77q-48 67 -48 172v98z" />
    <glyph glyph-name="T" unicode="T" horiz-adv-x="395" 
d="M254 687q0 -85 54.5 -246t54.5 -247q0 -201 -161 -201q-101 0 -142 52q-35 46 -35 150q0 80 64 232t64 241q0 31 -23 31q-14 0 -19 -34q-9 -55 -11 -62q-11 -34 -40 -34q-39 0 -39 73q0 84 11 116q21 57 89 57h184q23 0 36 -4q51 -16 51 -165q0 -37 -3 -49
q-7 -28 -33 -28q-31 0 -44 36l-14 66q-8 36 -25 36q-6 0 -12.5 -7t-6.5 -13z" />
    <glyph glyph-name="U" unicode="U" horiz-adv-x="528" 
d="M504 179q0 -74 -35 -120q-18 -24 -57.5 -45t-68.5 -21h-62q-127 0 -184 52t-57 178q0 58 17.5 173.5t17.5 173.5q0 33 -24.5 90.5t-24.5 83.5q0 71 98 71q124 0 124 -103q0 -28 -15.5 -89.5t-15.5 -89.5q0 -61 56 -61q69 0 69 70q0 31 -16.5 97.5t-16.5 96.5q0 76 110 76
q102 0 102 -74q0 -42 -28.5 -120t-28.5 -120q0 -54 20 -159.5t20 -159.5z" />
    <glyph glyph-name="V" unicode="V" horiz-adv-x="604" 
d="M433 129q0 -52 -34.5 -94t-85.5 -42q-90 0 -114 105q-9 40 -9 176q0 110 -48 224q-26 62 -109 205q-8 15 -7 33q4 42 45 63q32 16 77 16q125 0 125 -112q0 -30 -8.5 -88.5t-8.5 -87.5q0 -26 16 -57q18 -36 41 -36q28 0 46 40q15 31 15 64q0 29 -16.5 84.5t-16.5 85.5
q0 96 133 96q117 0 117 -66q0 -32 -39 -115q-28 -59 -56 -117q-67 -154 -67 -304q0 -13 2 -37t2 -36z" />
    <glyph glyph-name="W" unicode="W" horiz-adv-x="651" 
d="M503 -7q-71 0 -112.5 47t-41.5 119q0 36 11.5 106t11.5 106q0 112 -49 112q-36 0 -36 -73q0 -42 9.5 -125.5t9.5 -125.5q0 -166 -137 -166q-54 0 -92 34.5t-38 87.5q0 68 37.5 195.5t37.5 194.5q0 55 -40 137.5t-40 111.5q0 61 157 61q57 0 57 -51q0 -19 -8 -58t-8 -59
q0 -36 17 -36q26 0 32.5 49t12.5 96q14 51 55 51q30 0 37 -47l4 -88q5 -47 33 -47q18 0 18 32q0 15 -5.5 45t-5.5 45q0 66 94 66q96 0 96 -66q0 -30 -36.5 -117t-36.5 -142q0 -66 42 -190.5t42 -191.5q0 -57 -37 -86q-33 -27 -91 -27z" />
    <glyph glyph-name="X" unicode="X" horiz-adv-x="591" 
d="M325 90q0 29 13.5 86t13.5 86q0 153 -53 226q-46 -48 -46 -135q0 -83 10 -142q18 -98 18 -110q0 -59 -39 -90q-35 -29 -96 -29q-69 0 -97 40q-23 33 -23 105q0 115 63 246q33 70 131 221q-16 44 -96 107q-73 59 -73 72q0 47 114 47q46 0 77 -42q40 -54 61 -65
q41 55 50 65q37 40 67 40q111 0 111 -42q0 -9 -69 -78q-77 -77 -85 -88q98 -142 143 -244q61 -138 61 -274q0 -56 -43 -85q-36 -25 -95 -25q-54 0 -86 27.5t-32 80.5z" />
    <glyph glyph-name="Y" unicode="Y" horiz-adv-x="491" 
d="M413 159q0 -77 -46 -121.5t-123 -44.5q-87 0 -136.5 50.5t-49.5 137.5q0 58 53 157t53 156q0 51 -69 129.5t-69 131.5q0 38 29 51q20 9 62 9q62 0 76 -27q8 -15 8 -84q0 -80 45 -80q41 0 51 47q4 17 4 79q0 40 31 54q20 9 66 9q29 0 53 -12q29 -15 29 -42q0 -31 -39 -81
q-36 -45 -73 -91q-39 -56 -39 -100q0 -37 21 -85q18 -40 36 -81q27 -69 27 -162z" />
    <glyph glyph-name="Z" unicode="Z" 
d="M226 -10q-166 0 -194 72q-8 22 -8 112q0 211 44 315q21 52 75 107l96 94q5 6 5 11q0 8 -12 14.5t-22 6.5q-33 0 -69.5 -49.5t-59.5 -49.5q-21 0 -29 12q-24 32 -24 116q0 29 13 37q46 27 167 27q199 0 199 -75q0 -37 -96 -123.5t-96 -125.5q0 -31 30 -31q22 0 41.5 43.5
t39.5 43.5q17 0 30.5 -14.5t13.5 -31.5q0 -64 24.5 -189t24.5 -188q0 -72 -24 -102q-20 -26 -67 -30q-10 -2 -102 -2z" />
    <glyph glyph-name="bracketleft" unicode="[" horiz-adv-x="425" 
d="M397 -11q0 -48 -32.5 -78.5t-80.5 -30.5q-21 0 -40 7q-36 13 -86 75q-40 50 -64 99q-76 149 -76 341q0 157 64 302q81 184 217 184q45 0 73.5 -31.5t28.5 -77.5q0 -38 -40.5 -79.5t-81.5 -80.5q-48 -51 -60 -101q-1 -5 -11 -74q-8 -56 -8 -69q0 -115 51 -190
q17 -24 95 -99q51 -48 51 -97z" />
    <glyph glyph-name="backslash" unicode="\" horiz-adv-x="604" 
d="M572 117q0 -61 -39.5 -92.5t-102.5 -31.5q-78 0 -116 11q-76 23 -111 131q-23 72 -35 216q-13 154 -22 190q-28 108 -103 176q-31 30 -31 44q0 25 27 41q24 13 50 13q39 0 73 -29q27 -23 49 -99q28 -92 39 -112q35 -62 104 -136q59 -62 118 -123q100 -110 100 -199z" />
    <glyph glyph-name="bracketright" unicode="]" horiz-adv-x="426" 
d="M21 -20q0 42 33 81q13 15 68 62q44 38 60 68q38 72 38 215q0 111 -49 186q-20 30 -91 99q-50 46 -50 87q0 46 38 78q35 32 81 32q130 0 200 -191q53 -144 53 -302q0 -157 -64 -315q-81 -200 -213 -200q-39 0 -71.5 30.5t-32.5 69.5z" />
    <glyph glyph-name="asciicircum" unicode="^" horiz-adv-x="505" 
d="M250 606q-27 0 -72.5 -28t-72.5 -28q-15 0 -26.5 10.5t-11.5 25.5q0 31 74 85.5t107 54.5q34 0 111.5 -53.5t77.5 -84.5q0 -14 -10.5 -25.5t-24.5 -11.5q-28 0 -75.5 27.5t-76.5 27.5z" />
    <glyph glyph-name="underscore" unicode="_" horiz-adv-x="505" 
d="M2 -69h505v-119h-505v119z" />
    <glyph glyph-name="grave" unicode="`" horiz-adv-x="427" 
d="M135 817q0 25 60 38q38 9 72 -47q31 -49 31 -91t-29 -42q-27 0 -80.5 58t-53.5 84z" />
    <glyph glyph-name="a" unicode="a" horiz-adv-x="427" 
d="M233 -7q-102 0 -152 33q-60 41 -60 138q0 152 76 236q6 6 80 55q58 38 58 63q0 34 -32 34q-22 0 -40.5 -44.5t-50.5 -44.5q-45 0 -45 60q0 56 60 88q49 26 110 26q104 0 129 -57q1 -4 1 -11q0 -16 -19 -81.5t-19 -97.5q0 -42 39 -134.5t39 -148.5q0 -50 -10 -63
q-25 -33 -74 -44q-31 -7 -90 -7zM167 324q0 -65 36 -59q17 2 19 34q-2 -28 -2 53v40q0 4 -3 6t-7 0q-43 -21 -43 -74z" />
    <glyph glyph-name="b" unicode="b" horiz-adv-x="427" 
d="M168 -7q-50 0 -86 18q-43 21 -47 63q-2 17 -2 36q0 58 25 177.5t25 180.5q0 94 -11 140q-4 14 -31 80q-23 58 -23 73q0 37 39 49q19 6 68 6q67 0 67 -26q0 -33 -15 -83.5t-15 -83.5q0 -23 22 -23q18 0 45.5 17.5t46.5 17.5q17 0 34 -10q36 -21 67 -178q26 -132 26 -203
q0 -125 -33 -179q-43 -72 -160 -72h-42zM175 470q5 -36 10 -97q0 -10 13 -18t22 -6q23 3 39 31q14 25 14 52q0 30 -10 52q-13 30 -40 27q-49 -4 -48 -41z" />
    <glyph glyph-name="c" unicode="c" horiz-adv-x="423" 
d="M24 295q0 135 47 225q59 115 179 115q98 0 98 -107q0 -39 -19 -55q-14 -13 -46 -13q-24 0 -27 5q-7 29 -14.5 58.5t-35.5 24.5q-43 -9 -43 -111q0 -34 23.5 -62t55.5 -28q20 0 53 23.5t45 23.5q34 0 51 -72q12 -50 12 -103q0 -226 -199 -226q-101 0 -147 105
q-33 77 -33 197z" />
    <glyph glyph-name="d" unicode="d" horiz-adv-x="450" 
d="M18 274q0 101 21 207q31 156 90 156q13 0 38 -14.5t43 -14.5q16 0 20 4q13 11 13 41q0 22 -17 53t-17 53q0 56 91 56q48 0 90 -27q9 -6 6 -16q-51 -143 -51 -268q0 -110 40 -214q43 -114 43 -161q0 -144 -213 -144q-123 0 -167 90q-30 61 -30 199zM160 443v-24
q0 -22 3 -31l9 -26q8 -15 24 -16q35 -2 35 35v43q0 99 -33 99q-16 0 -28 -32q-10 -27 -10 -48z" />
    <glyph glyph-name="e" unicode="e" horiz-adv-x="434" 
d="M22 285q0 130 44 226q57 125 170 125q47 0 81 -18q42 -22 48 -64q2 -13 2 -24q0 -63 -56 -89q-26 -12 -34 -12q-14 0 -42 3t-42 3q-33 0 -33 -29q0 -57 81 -57q30 0 63 31t43 31q37 0 56 -103q13 -70 13 -142q0 -75 -63 -126q-58 -47 -133 -47q-65 0 -102 27
q-46 33 -73 121q-23 74 -23 144zM202 560q-15 -1 -27.5 -16t-12.5 -27q0 -9 7 -8l93 -4q16 -1 16 19q0 16 -14.5 27t-30.5 10z" />
    <glyph glyph-name="f" unicode="f" horiz-adv-x="386" 
d="M252 716q-28 0 -28 -42q0 -37 12 -46q8 -5 46 -5q28 0 33 -16q1 -5 1 -32q0 -47 -39 -46q-52 0 -52 -30q0 -76 56.5 -213.5t56.5 -188.5q0 -110 -120 -110h-45q-139 0 -139 140q0 46 26 104q43 97 44 99q13 39 13 97q0 83 -39 106q-46 3 -47 3q-20 7 -20 38q0 32 7 40
t39 8t32 22q0 11 -2 32t-2 32q0 53 37 81q34 27 90 27q166 0 166 -134q0 -41 -42 -41q-33 0 -45 20q-6 17 -12.5 36t-26.5 19z" />
    <glyph glyph-name="g" unicode="g" horiz-adv-x="466" 
d="M22 194q0 179 61 179q16 0 55 -16.5t63 -16.5q28 0 50.5 13t22.5 39q0 24 -16 24q-4 0 -13 -1.5t-13 -1.5q-15 0 -42.5 -3t-42.5 -3q-36 0 -64.5 28.5t-28.5 64.5q0 70 68 107q55 30 132 30q48 0 92 -12q65 -17 65 -51q0 -29 -21 -84.5t-21 -85.5q0 -50 38.5 -141
t38.5 -139q0 -67 -68 -102q-54 -29 -127 -29q-229 0 -229 201zM230 544q-18 0 -37 -9q-22 -10 -22 -27q0 -18 25 -18h10q7 1 11 1h16q8 0 24 -3t24 -3q17 0 17 13q0 20 -23.5 33t-44.5 13z" />
    <glyph glyph-name="h" unicode="h" horiz-adv-x="533" 
d="M290 137q0 48 5.5 143t5.5 142q0 18 -6 45q-7 35 -17 35q-11 0 -21 -30q-9 -25 -9 -40v-141q0 -28 6.5 -83.5t6.5 -83.5q0 -131 -123 -131q-44 0 -75 18q-37 22 -37 63q0 72 51.5 205t51.5 205q0 55 -40 142t-40 118q0 81 97 81q89 0 89 -56q0 -21 -18 -58.5t-18 -58.5
q0 -45 34 -45q22 0 63 17.5t63 17.5q41 0 68 -35q10 -14 10 -46q0 -29 -13.5 -90t-13.5 -90q0 -40 54 -151.5t54 -157.5q0 -40 -33 -61q-28 -18 -71 -18q-78 0 -104 34q-20 28 -20 110z" />
    <glyph glyph-name="i" unicode="i" horiz-adv-x="329" 
d="M83 759q0 37 23 67.5t59 30.5q33 0 62.5 -22t29.5 -55q0 -38 -19 -69q-21 -36 -57 -36q-40 0 -67 21q-31 24 -31 63zM18 117q0 50 44.5 149t44.5 158q0 31 -24 79.5t-24 70.5q0 38 44 56q32 13 77 13q32 0 58.5 -21.5t26.5 -51.5q0 -28 -24.5 -87t-24.5 -94
q0 -52 48.5 -143.5t48.5 -136.5q0 -56 -51 -91q-45 -32 -103 -32q-63 0 -102 34.5t-39 96.5z" />
    <glyph glyph-name="j" unicode="j" horiz-adv-x="418" 
d="M211 756q0 33 23 58t55 25t57 -23.5t25 -55.5q0 -33 -22.5 -57.5t-55.5 -24.5q-32 0 -57 23.5t-25 54.5zM14 255q0 228 74 228q18 0 41 -31t42 -31q22 0 38.5 13.5t16.5 35.5q0 21 -19.5 55t-19.5 54q0 32 35 49q28 13 64 13q29 0 50 -12q27 -14 27 -40q0 -31 -20 -87
t-20 -86q0 -52 37.5 -147t37.5 -147q0 -71 -62 -106q-49 -29 -126 -29q-196 0 -196 268z" />
    <glyph glyph-name="k" unicode="k" horiz-adv-x="510" 
d="M285 220q0 93 -38 149q-4 6 -11 6q-22 0 -22 -23q0 -43 16 -128t16 -129q0 -58 -20 -80t-78 -22q-75 0 -100 35q-22 29 -22 107q0 67 40.5 195t40.5 195q0 42 -24.5 120t-24.5 119q0 39 34 52q20 7 67 7q81 0 81 -61q0 -24 -13 -71t-13 -71q0 -85 10 -147q25 19 46 65
q26 56 37 69q26 33 72 33q80 0 86 -32q5 -31 -34 -62q-37 -25 -74 -51q-41 -30 -41 -58q0 -11 46 -58q57 -59 85 -105q46 -77 46 -161q0 -120 -95 -120q-58 0 -79 20t-31 79q-4 25 -5 47q0 15 1 39q1 29 1 42z" />
    <glyph glyph-name="l" unicode="l" horiz-adv-x="337" 
d="M18 159q0 35 34 131q33 91 43 127q20 74 20 133q0 42 -28 110.5t-28 83.5q0 71 129 71q43 0 72 -24.5t29 -66.5q0 -12 -36.5 -83.5t-36.5 -126.5q0 -76 52.5 -207.5t52.5 -182.5q0 -131 -166 -131q-86 0 -114 43q-23 33 -23 123z" />
    <glyph glyph-name="m" unicode="m" horiz-adv-x="689" 
d="M462 135q0 46 4.5 137.5t4.5 137.5q0 102 -28 102q-17 0 -27 -65q-6 -44 -6 -79q0 -46 12 -136t12 -136q0 -40 -14 -68q-18 -35 -54 -35q-44 0 -66 53q-17 39 -17 91q0 35 9 104t9 103q0 168 -49 168q-30 0 -30 -56q0 -111 18 -213q17 -91 17 -119q0 -62 -16 -92
q-22 -39 -79 -39q-128 0 -128 102q0 52 40.5 150.5t40.5 152.5q0 41 -35.5 102t-35.5 95q0 42 50 42q31 0 68 -58q24 32 36 42q24 22 54 22q50 0 70 -25q16 -31 33 -62q29 52 63 68q29 15 90 15q93 0 100 -72q3 -28 -16.5 -79t-19.5 -77q0 -51 48.5 -148.5t48.5 -152.5
q0 -117 -120 -117q-43 0 -67 52q-20 41 -20 90z" />
    <glyph glyph-name="n" unicode="n" horiz-adv-x="513" 
d="M311 435q0 29 -10 56q-12 37 -36 37q-26 0 -39 -46q-9 -32 -9 -69q0 -51 13 -152t13 -152q0 -86 -29 -99q-9 -4 -44 -11q-31 -6 -52 -6q-38 0 -65 22t-27 60q0 66 43 171t44 154q2 46 -16 94.5t-39 60.5q-12 6 -12 25q0 21 13.5 40t32.5 19q9 0 19 -5q22 -10 34 -32
q10 -18 19 -18q3 0 8 2q22 33 57 45q25 9 73 9t79 -19q38 -23 38 -68q0 -23 -7.5 -68.5t-7.5 -68.5q0 -53 52 -175q41 -98 41 -187q0 -32 -48 -49q-34 -12 -74 -12q-62 0 -83 41q-13 28 -13 97q0 51 16 152t16 152z" />
    <glyph glyph-name="o" unicode="o" horiz-adv-x="413" 
d="M21 283q0 106 39 214q52 140 137 140q5 0 17 1h16q80 0 127 -142q35 -107 35 -211q0 -179 -72 -250q-43 -42 -84 -42q-215 0 -215 290zM210 544q-27 0 -41 -58q-9 -40 -9 -83q0 -53 54 -53q50 0 50 41q0 34 -13 86q-17 67 -41 67z" />
    <glyph glyph-name="p" unicode="p" horiz-adv-x="428" 
d="M294 47q0 -54 -111 -54h-45q-63 0 -90 21q-30 25 -30 86q0 51 40.5 133.5t40.5 125.5q0 36 -31 99t-31 94q0 85 153 85q87 0 148 -30q79 -39 79 -117q0 -54 -38 -74q-16 -9 -81 -20q-55 -10 -77 -33q-13 -14 -13 -23q0 -52 43 -146.5t43 -146.5zM188 519q0 -18 4 -39
q7 -29 18 -29q20 0 38 23t18 43q0 27 -56 27q-22 0 -22 -25z" />
    <glyph glyph-name="q" unicode="q" horiz-adv-x="471" 
d="M144 106q0 59 46 150q49 98 54 147q-22 12 -54 14q4 0 -57 0q-106 0 -106 115q0 108 207 108q119 0 188 -55l-38 -114q-26 -85 -26 -109q0 -43 47.5 -94.5t47.5 -102.5q0 -76 -54.5 -125.5t-130.5 -49.5q-57 0 -90.5 30t-33.5 86zM183 540q0 -42 76 -54q22 13 22 49
q0 38 -53 38q-45 0 -45 -33z" />
    <glyph glyph-name="r" unicode="r" horiz-adv-x="396" 
d="M262 438q0 8 3.5 23.5t3.5 23.5q0 13 -14 13q-25 0 -38 -44q-9 -32 -9 -64q0 -65 52.5 -177t52.5 -131q0 -90 -157 -90q-59 0 -96 25q-42 29 -42 86q0 50 40.5 139t40.5 139q0 40 -32.5 107t-32.5 100q0 49 76 49q54 0 66 -39q0 -4 10 -18q41 28 59 37q32 15 67 15
q36 0 54 -61q13 -43 13 -93q0 -28 -22.5 -49.5t-50.5 -21.5q-44 0 -44 31z" />
    <glyph glyph-name="s" unicode="s" horiz-adv-x="381" 
d="M18 227q0 47 9 95q12 70 36 70q10 0 22 -22.5t27 -22.5q25 0 36 21q0 34 -49 70.5t-49 50.5v32q0 55 45 87q39 29 97 29q123 0 123 -112q0 -56 -42 -56q-29 0 -39 22q-6 20 -12 40.5t-28 20.5q-34 0 -34 -27q0 -37 51 -67q72 -43 97 -75q52 -67 52 -192q0 -23 -12 -60
q-23 -70 -57 -101q-40 -37 -109 -37q-89 0 -131 77q-33 61 -33 157z" />
    <glyph glyph-name="t" unicode="t" horiz-adv-x="338" 
d="M26 126q0 54 36.5 156.5t36.5 157.5q0 35 -7 64q-10 13 -48 22q-26 7 -26 46q0 29 32.5 34t32.5 35q0 12 -8 32.5t-8 32.5q0 44 87 44q32 0 57 -7q37 -12 37 -35q0 -16 -16 -42.5t-16 -41.5q0 -21 35 -25q42 -5 49 -12q10 -10 10 -34t-26 -27q-44 -6 -49 -8
q-27 -14 -27 -61q0 -61 56 -165.5t56 -161.5q0 -137 -141 -137q-153 0 -153 133z" />
    <glyph glyph-name="u" unicode="u" 
d="M28 122q0 42 23.5 122t23.5 122q0 39 -28.5 102.5t-28.5 94.5q0 74 103 74q39 0 59 -28.5t20 -68.5q0 -28 -12 -76t-12 -75q0 -44 49 -44q60 0 60 58q0 37 -16 82q-16 39 -33 78q0 36 36 57q30 17 69 17q44 0 69 -40v-11q0 -40 -19.5 -117t-19.5 -117q0 -37 19.5 -106.5
t19.5 -105.5q0 -76 -58 -114q-50 -33 -130 -33q-194 0 -194 129z" />
    <glyph glyph-name="v" unicode="v" horiz-adv-x="507" 
d="M26 556q0 39 33 61q28 20 68 20q22 0 52 -15q40 -20 54.5 -42.5t14.5 -65.5q0 -14 -4 -45.5t-4 -44.5q0 -72 28 -72q25 0 25 64q0 18 -4 60t-4 60q0 44 33 68q29 21 75 21q90 0 90 -78q0 -14 -44 -117q-28 -64 -56 -129q-29 -74 -51 -221q-13 -87 -71 -87q-48 0 -73 74
q-15 48 -22.5 145t-21.5 142q-9 33 -67 99q-51 58 -51 103z" />
    <glyph glyph-name="w" unicode="w" horiz-adv-x="519" 
d="M272 137q0 42 10.5 122t10.5 123q0 47 -23 47q-30 0 -30 -58q0 -39 5.5 -112.5t5.5 -113.5q0 -75 -17 -107q-23 -45 -92 -45q-51 0 -83.5 30.5t-32.5 81.5q0 49 40.5 134.5t40.5 133.5q0 51 -21 98q-12 27 -39 67q-21 30 -21 41q0 51 110 51q67 0 67 -48
q0 -15 -9.5 -47.5t-9.5 -48.5q0 -23 15 -23q19 0 28 41l14 76q11 41 35 41q38 0 38 -65q0 -9 -1 -23.5t-1 -18.5q0 -16 7 -31q9 -18 22 -18q17 0 17 31q0 17 -10 49t-10 45q0 27 31 35q14 4 51 4q63 0 63 -56q0 -30 -28.5 -91t-28.5 -99q0 -52 38 -147t38 -146
q0 -63 -34 -83q-25 -14 -92 -14q-62 0 -86 44q-18 32 -18 100z" />
    <glyph glyph-name="x" unicode="x" horiz-adv-x="504" 
d="M357 -7q-88 0 -88 109q0 29 8 86t8 86q0 68 -36 109q-33 -45 -33 -106q0 -27 8 -79.5t8 -78.5q0 -76 -51 -119q-32 -7 -61 -7q-52 0 -74 27q-20 24 -20 78q0 160 170 357q-14 35 -78 77q-57 38 -57 58q0 39 72 39q74 0 121 -81q27 7 47 29q27 29 37 35q27 18 77 18
q43 0 43 -36q0 -19 -59 -64q-75 -58 -78 -62q97 -145 114 -178q48 -96 48 -206q0 -56 -39 -76q-28 -15 -87 -15z" />
    <glyph glyph-name="y" unicode="y" horiz-adv-x="360" 
d="M309 131q0 -62 -41.5 -100t-103.5 -38q-60 0 -95.5 37t-35.5 98q0 50 47.5 138t47.5 134q0 44 -31 82q-9 11 -59 55q-31 28 -31 48q0 26 26 41q22 11 51 11q49 0 65 -37q9 -21 11 -79q2 -61 18 -61q18 0 26 46q12 68 20 85q21 46 69 46q57 0 57 -33q0 -20 -29 -53
q-43 -48 -54 -66q-30 -47 -30 -101q0 -46 36 -127.5t36 -125.5z" />
    <glyph glyph-name="z" unicode="z" horiz-adv-x="381" 
d="M213 346q19 0 42 26t40 26q26 0 33 -89q0 -39 7 -115q1 -7 10 -45q7 -28 7 -47q0 -60 -58 -88q-43 -21 -111 -21q-162 0 -162 109q0 42 24 151q26 117 46 139l70 60q41 35 48 77q-12 8 -24 8q-21 0 -37 -34.5t-35 -34.5q-33 0 -51 37q-14 29 -14 65q0 34 15 47
q12 11 47 15q47 6 116 6q145 0 145 -71q0 -18 -86.5 -98t-86.5 -109q0 -14 15 -14z" />
    <glyph glyph-name="braceleft" unicode="{" horiz-adv-x="364" 
d="M129 54q0 19 2 59t2 60q0 57 -15 98q-21 57 -68 58v53q83 0 83 165q0 16 -1 40.5t-1 31.5q0 84 14 124q23 68 89 68h65v-61h-42q-51 0 -51 -113q0 -12 1 -36.5t1 -36.5q0 -81 -12 -123q-20 -70 -77 -86v-5q68 -20 83 -123q4 -91 7 -181q5 -93 49 -93h41v-61h-66
q-56 0 -84 56q-20 42 -20 106z" />
    <glyph glyph-name="bar" unicode="|" horiz-adv-x="283" 
d="M99 -17v761q0 29 38 29q39 0 39 -29v-761q0 -25 -37 -25q-40 0 -40 25z" />
    <glyph glyph-name="braceright" unicode="}" horiz-adv-x="364" 
d="M219 49q0 -62 -21 -103q-27 -54 -82 -54h-66v61h42q48 0 48 116q0 14 -1 35v25q0 88 11 130q20 74 81 91l-2 5q-91 24 -91 191q0 17 1.5 50.5t1.5 50.5q0 63 -13 81q-17 23 -78 22v61h66q102 0 102 -180q0 -16 -1 -43.5t-1 -36.5q0 -169 83 -170v-57q-47 -1 -69 -58
q-16 -41 -16 -98q0 -20 2.5 -59.5t2.5 -59.5z" />
    <glyph glyph-name="asciitilde" unicode="~" horiz-adv-x="505" 
d="M173 611q-10 0 -18 -4q-4 -21 -9 -42q-4 -15 -39 -15q-73 0 -73 54q0 45 30.5 79t74.5 34q39 0 105.5 -27t99.5 -27q10 4 13 15l-1 7q0 12 16.5 23t29.5 11q83 0 83 -52q0 -44 -29 -79q-31 -38 -74 -38q-39 0 -108 30.5t-101 30.5z" />
    <glyph glyph-name="nonbreakingspace" unicode="&#xa0;" horiz-adv-x="262" 
 />
    <glyph glyph-name="exclamdown" unicode="&#xa1;" horiz-adv-x="462" 
d="M115 711q0 44 35 103q37 65 77 65q47 0 81 -63q30 -55 30 -108q0 -100 -121 -100q-56 0 -79 23t-23 80zM36 72q0 57 29 121q17 36 55 93q29 45 29 57q0 19 -10 57.5t-10 58.5q0 7 1 19q29 64 92 64q47 0 76 -20q33 -24 33 -69q0 -20 -6 -60t-6 -60q0 -13 26 -55
q34 -56 49 -87q26 -60 26 -113q0 -45 -78 -68q-56 -17 -116 -17q-64 0 -115 14q-75 21 -75 65z" />
    <glyph glyph-name="cent" unicode="&#xa2;" horiz-adv-x="423" 
d="M210 9q-25 0 -28 9q-3 15 -6 29q-7 14 -33 27q-32 17 -39 23q-41 37 -65 120q-21 71 -21 139q0 79 21 159q24 96 68 141q16 11 48 34q16 12 30 41q10 19 33 19q33 0 30 -34q53 -9 75 -34.5t22 -78.5q0 -32 -10.5 -43.5t-41.5 -20.5q-19 -6 -27 -6q-13 0 -21 38
q-8 44 -20 54l-8 1q-25 0 -41 -35q-14 -29 -14 -57q0 -42 19 -71q22 -35 60 -35q20 0 52 20t50 21q51 -69 51 -183t-44 -167q-20 -24 -81 -53q-44 -21 -45 -57h-14z" />
    <glyph glyph-name="sterling" unicode="&#xa3;" horiz-adv-x="501" 
d="M131 452q1 21 -19.5 26t-40.5 9q-21 11 -21 45q0 29 32.5 43t63.5 26q36 20 42 58q9 73 47 116q43 50 112 50q62 0 62 -58q0 -26 -20 -42t-45 -16q-20 0 -33.5 18t-14.5 18q-8 0 -19.5 -41t-11.5 -55q0 -25 35.5 -33t35.5 -37q0 -43 -27 -55q-25 -7 -50 -13
q-27 -11 -27 -51q0 -31 1 -37q7 -23 38 -23q7 0 16 1q16 2 55 21q35 18 53 18q83 0 83 -204q0 -123 -57 -183t-181 -60q-90 0 -155 47q-72 52 -72 139q0 140 71 187q29 19 31 22q15 18 16 64z" />
    <glyph glyph-name="currency" unicode="&#xa4;" horiz-adv-x="413" 
d="M211 520q-21 0 -33 -32q-8 -24 -8 -52q0 -31 44 -31q42 0 42 24q0 20 -11 51q-14 40 -34 40zM348 274q38 -39 38 -82q0 -10 -8.5 -21.5t-18.5 -11.5q-24 0 -68 52q-30 -18 -58 -18q-73 0 -116 30q-46 -58 -71 -58q-10 0 -18.5 12t-8.5 22q0 20 14 48t34 43q-12 32 -12 75
q0 53 25 112q-20 11 -44 45.5t-24 51.5q0 19 21 24q38 9 85 -61q23 25 51 33q19 6 59 6q35 0 63 -25q45 62 80 54q22 -5 22 -24q0 -15 -19.5 -45t-39.5 -46q28 -63 28 -124q0 -58 -14 -92z" />
    <glyph glyph-name="yen" unicode="&#xa5;" horiz-adv-x="563" 
d="M444 159q0 -76 -46 -121t-123 -45q-87 0 -137 50.5t-50 137.5q0 37 16 81q-57 2 -60 3q-30 8 -30 45q0 48 55 62q26 7 93 6q9 19 17 38h-39q-24 -1 -39 -1q-62 0 -62 29q0 63 108 63h25q17 -1 21 -1q-6 47 -73 123q-63 72 -63 126q0 18 5 37q25 23 85 23q62 0 76 -27
q8 -15 8 -84q0 -80 46 -80q40 0 50 47q4 17 4 79q0 40 31 54q21 9 66 9q29 0 53 -12q29 -15 29 -42q0 -31 -68 -117q-72 -91 -81 -136l155 -1q17 -7 17 -18q0 -46 -61 -60q-21 -4 -98 -7q7 -19 17 -42q17 0 50 1t49 1q48 0 48 -28q0 -53 -28 -69q-16 -10 -77 -16
q11 -62 11 -108z" />
    <glyph glyph-name="brokenbar" unicode="&#xa6;" horiz-adv-x="283" 
d="M99 443v301q0 29 38 29q39 0 39 -29v-301q0 -25 -37 -25q-40 0 -40 25zM99 -17v301q0 29 38 29q39 0 39 -29v-301q0 -25 -37 -25q-40 0 -40 25z" />
    <glyph glyph-name="section" unicode="&#xa7;" horiz-adv-x="460" 
d="M162 670q-16 9 -25.5 24t-9.5 23v20q0 68 133 68q47 0 75 -18.5t27 -48.5q0 -20 -3 -25q-6 -9 -32 -9q-37 0 -44 25.5t-33 25.5q-12 0 -24 -8t-12 -16q0 -25 54 -42q75 -24 102 -45q54 -41 54 -124q0 -15 -10.5 -37.5t-20.5 -42.5q-12 -23 -26 -32q68 -84 68 -214
q0 -24 -14 -63q-25 -72 -72 -105t-131 -33q-103 0 -153 83q-39 65 -39 169q0 51 10 103q15 74 43 74q11 0 25.5 -24.5t32.5 -24.5q29 0 42 24q0 18 -10 30.5t-21 24.5l-54 46q-28 27 -29 42l-1 21q-3 74 98 109zM151 578q10 -17 42 -43.5t44 -26.5q50 0 47 59q-1 8 -28 33
t-53 36q-19 -11 -38 -22.5t-17 -21.5z" />
    <glyph glyph-name="dieresis" unicode="&#xa8;" horiz-adv-x="413" 
d="M222 733q0 29 15 57q19 33 47 33q26 0 45 -25q16 -23 16 -51t-11 -54q-15 -34 -40 -34q-33 0 -52.5 21t-19.5 53zM72 727q0 32 12 60q15 36 43 36q27 0 47 -25t20 -52q0 -26 -13 -52q-15 -31 -40 -31q-69 0 -69 64z" />
    <glyph glyph-name="copyright" unicode="&#xa9;" horiz-adv-x="768" 
d="M18 319q0 139 97.5 236.5t235.5 97.5q139 0 236.5 -97.5t97.5 -236.5q0 -140 -97 -237t-237 -97q-138 0 -235.5 97.5t-97.5 236.5zM55 319q0 -123 87 -214.5t209 -91.5q124 0 210.5 91t86.5 215q0 125 -86 215.5t-211 90.5q-123 0 -209.5 -90.5t-86.5 -215.5zM166 300
q0 88 46 162q60 97 171 97q112 0 112 -82q0 -9 -17 -18.5t-31 -9.5q-30 0 -37 16q-3 15 -7 30.5t-24 15.5q-59 0 -59 -91q0 -23 24.5 -42.5t56.5 -19.5q26 0 38 15.5t24 15.5q63 0 63 -130q0 -68 -38 -111q-46 -52 -138 -52q-100 0 -148 72q-36 54 -36 132z" />
    <glyph glyph-name="ordfeminine" unicode="&#xaa;" horiz-adv-x="351" 
d="M192 379q-76 0 -113 22q-45 26 -45 90q0 100 57 154q4 5 59 36q43 25 43 41q0 23 -24 23q-16 0 -30 -29t-37 -29q-34 0 -34 39q0 36 45 57q36 18 82 18q77 0 95 -38q2 -3 2 -7q0 -10 -14.5 -53t-14.5 -64q0 -27 29 -88t29 -97q0 -33 -8 -42q-29 -33 -121 -33zM142 596
q0 -43 27 -39q13 1 14 22q-1 -18 -1 35v26q-2 3 -8 4q-32 -14 -32 -48z" />
    <glyph glyph-name="guillemotleft" unicode="&#xab;" horiz-adv-x="539" 
d="M277 268q0 40 81.5 128t121.5 88q18 0 32 -10.5t14 -28.5q0 -27 -45 -83.5t-45 -91.5q0 -26 45 -90v1q15 -22 30 -43q17 -28 17 -48q0 -14 -11.5 -27t-25.5 -13q-43 0 -128.5 87t-85.5 131zM18 267q0 39 82.5 128t120.5 89q18 0 32.5 -11.5t14.5 -28.5q0 -27 -44 -83
t-44 -92q0 -27 43 -90v1q15 -22 31 -43q17 -27 17 -48q0 -14 -12 -27t-26 -13q-43 0 -129 87t-86 131z" />
    <glyph glyph-name="logicalnot" unicode="&#xac;" horiz-adv-x="455" 
d="M250 263q-193 0 -229 32q8 39 15 78q11 44 35 68q31 0 167 1q107 1 167 0q5 -7 12 -129q7 -106 7 -130q0 -35 -78 -35q-63 0 -73 20q-2 8 0 62q2 33 -23 33z" />
    <glyph glyph-name="minus" unicode="&#xad;" horiz-adv-x="429" 
d="M209 260q-148 0 -188 35q13 67 18 82q16 46 47 66q177 0 309 -2q13 -17 13 -38q0 -22 -36 -117q-39 -26 -163 -26z" />
    <glyph glyph-name="minus" unicode="&#x2212;" horiz-adv-x="429" 
d="M209 260q-148 0 -188 35q13 67 18 82q16 46 47 66q177 0 309 -2q13 -17 13 -38q0 -22 -36 -117q-39 -26 -163 -26z" />
    <glyph glyph-name="registered" unicode="&#xae;" horiz-adv-x="768" 
d="M18 315q0 137 98.5 233.5t234.5 96.5q138 0 236 -96t98 -234t-98 -234t-236 -96t-235.5 96t-97.5 234zM55 314q0 -123 87 -212t209 -89q124 0 210.5 89t86.5 213t-87 213t-211 89q-123 0 -209 -89.5t-86 -213.5zM360 345q-17 0 -17 -35q0 -24 10 -72t10 -72
q0 -60 -86 -60q-85 0 -85 84q0 24 14 58q23 54 24 56q12 36 12 75q0 60 -46 110q-4 3 -4 7q0 23 59 34q39 7 82 7q47 0 85 -13q48 -17 48 -47q0 -34 -49 -69q-2 0 -3 -3q0 -2 2 -3q142 -70 142 -205q0 -91 -76 -91q-24 0 -36 2q-29 6 -45 46q-13 30 -14 61l-2 82
q-2 48 -25 48zM314 476l12 -53q0 -5 6 -4q35 0 35 39q0 27 -34 27q-21 0 -19 -9z" />
    <glyph glyph-name="macron" unicode="&#xaf;" horiz-adv-x="498" 
d="M60 721q2 23 53 29q28 3 147 3h133q40 -4 52 -30q2 -3 2 -7q0 -29 -187 -29q-118 0 -149 4q-53 6 -51 30z" />
    <glyph glyph-name="macron" unicode="&#x2c9;" horiz-adv-x="498" 
d="M60 721q2 23 53 29q28 3 147 3h133q40 -4 52 -30q2 -3 2 -7q0 -29 -187 -29q-118 0 -149 4q-53 6 -51 30z" />
    <glyph glyph-name="degree" unicode="&#xb0;" horiz-adv-x="371" 
d="M34 579q0 63 32 128q43 84 113 84h14h14q66 0 104 -85q29 -63 29 -125q0 -107 -59 -149q-36 -25 -69 -25q-178 0 -178 172zM190 735q-21 0 -33 -32q-9 -25 -9 -52q0 -32 45 -32q42 0 42 25q0 20 -11 51q-15 40 -34 40z" />
    <glyph glyph-name="plusminus" unicode="&#xb1;" horiz-adv-x="562" 
d="M192 354q-14 0 -42.5 -4t-43.5 -4q-33 0 -43 19q-6 11 -6 47q0 22 9 30t32 8l97 1q31 1 38 38q2 37 13 110q8 27 15 31q4 3 28 3q35 0 35 -31q0 -17 4 -49t4 -49q0 -54 26 -54h95q33 0 44 -8t11 -38q0 -31 -8 -41q-10 -13 -40 -13l-91 1q-6 0 -14 -5.5t-4 -21.5l24 -78
q1 -4 1 -9q0 -25 -30 -45.5t-61 -20.5q-32 0 -60 19.5t-28 46.5q0 5 2 11l18 79q2 8 2 13q0 14 -27 14zM274 -17q-167 0 -211 30q14 59 20 72q17 40 53 58q199 0 347 -2q15 -15 15 -34t-40 -101q-44 -23 -184 -23z" />
    <glyph glyph-name="twosuperior" unicode="&#xb2;" horiz-adv-x="368" 
d="M63 604v42q3 42 43 88q21 24 74 67q39 33 39 43q0 19 -25 19q-23 0 -28.5 -29t-24.5 -29q-39 0 -39 37q0 31 32 47q25 14 58 14q34 0 64 -15q36 -18 36 -48q0 -34 -54.5 -69t-54.5 -54q0 -17 21 -17q11 0 29 10.5t28 10.5q51 0 51 -167q0 -72 -31.5 -105.5t-102.5 -33.5
q-77 0 -101 62q-14 36 -14 127z" />
    <glyph glyph-name="threesuperior" unicode="&#xb3;" horiz-adv-x="357" 
d="M54 529q0 32 14 106q17 85 32 85q13 0 33 -19.5t28 -19.5q30 0 30 29q0 25 -27 28t-27 10q0 27 31.5 31t31.5 28q0 14 -10 23.5t-24 9.5q-20 0 -31 -21.5t-19 -21.5q-15 0 -26 9.5t-11 24.5q0 29 35 48q29 16 61 16q34 0 64 -18q34 -21 34 -52q0 -26 -19 -44.5t-19 -31.5
q0 -6 20 -37q25 -38 37 -66q20 -45 20 -86q0 -87 -47 -122q-40 -30 -130 -30q-81 0 -81 121z" />
    <glyph glyph-name="acute" unicode="&#xb4;" 
d="M341 817q0 -26 -53.5 -84t-81.5 -58t-28 42t31 91q34 56 72 47q60 -13 60 -38z" />
    <glyph glyph-name="mu1" unicode="&#xb5;" horiz-adv-x="558" 
d="M320 85q-69 -100 -156 -100q-39 0 -101 50q0 -31 16 -91.5t16 -91.5q0 -69 -41 -69q-23 0 -34 23q-10 19 -10 44q0 26 12 78t12 79v477h77v-323q0 -50 24 -81q26 -34 74 -34q33 0 68 24q32 22 48 53v361h77v-371q0 -29 12 -53q15 -30 42 -30q24 0 37 23q5 8 15 44l15 -1
q-24 -111 -117 -111q-42 0 -63 31q-14 21 -23 69z" />
    <glyph glyph-name="mu1" unicode="&#x3bc;" horiz-adv-x="558" 
d="M320 85q-69 -100 -156 -100q-39 0 -101 50q0 -31 16 -91.5t16 -91.5q0 -69 -41 -69q-23 0 -34 23q-10 19 -10 44q0 26 12 78t12 79v477h77v-323q0 -50 24 -81q26 -34 74 -34q33 0 68 24q32 22 48 53v361h77v-371q0 -29 12 -53q15 -30 42 -30q24 0 37 23q5 8 15 44l15 -1
q-24 -111 -117 -111q-42 0 -63 31q-14 21 -23 69z" />
    <glyph glyph-name="paragraph" unicode="&#xb6;" horiz-adv-x="719" 
d="M515 -169h-52v834h-150v-834h-52v496q-74 11 -118 63t-44 127q0 96 64 150q59 51 157 51h230v-53h-35v-834z" />
    <glyph glyph-name="periodcentered" unicode="&#xb7;" horiz-adv-x="170" 
d="M26 296q0 24 17 41.5t42 17.5q24 0 41 -18.5t17 -42.5q0 -23 -17 -41t-40 -18q-25 0 -42.5 18t-17.5 43z" />
    <glyph glyph-name="periodcentered" unicode="&#x2219;" horiz-adv-x="170" 
d="M26 296q0 24 17 41.5t42 17.5q24 0 41 -18.5t17 -42.5q0 -23 -17 -41t-40 -18q-25 0 -42.5 18t-17.5 43z" />
    <glyph glyph-name="cedilla" unicode="&#xb8;" horiz-adv-x="381" 
d="M112 -201q-6 5 -6 10t16.5 21.5t16.5 28.5q0 17 -17.5 48.5t-17.5 47.5q0 22 19 39t50 17q78 0 78 -79q0 -42 -35 -84q-40 -49 -97 -49h-7z" />
    <glyph glyph-name="onesuperior" unicode="&#xb9;" horiz-adv-x="336" 
d="M52 507q0 46 45.5 123t45.5 123q0 34 -21 68.5t-21 37.5q0 19 43 30q32 7 59 7q10 0 30.5 -12.5t20.5 -22.5q0 -27 -17.5 -79.5t-17.5 -80.5q0 -43 30.5 -119.5t30.5 -105.5q0 -71 -125 -71q-103 0 -103 102z" />
    <glyph glyph-name="ordmasculine" unicode="&#xba;" horiz-adv-x="347" 
d="M34 567q0 70 29 141q39 93 103 93h12h13q60 0 95 -94q26 -70 26 -139q0 -117 -54 -164q-32 -28 -63 -28q-161 0 -161 191zM176 739q-20 0 -31 -37q-7 -27 -7 -56q0 -35 40 -35q38 0 38 27q0 23 -10 57q-13 44 -30 44z" />
    <glyph glyph-name="guillemotright" unicode="&#xbb;" horiz-adv-x="539" 
d="M283 89q0 16 9 31v1q82 111 82 149q0 34 -43.5 87.5t-44.5 85.5l-1 2q0 17 14 28t31 11q39 0 122 -87.5t83 -126.5q0 -44 -85.5 -132.5t-128.5 -88.5q-14 0 -26 13t-12 27zM7 90q0 15 10 31v1q25 35 50 71q32 49 32 77q0 35 -44 89.5t-44 85.5q0 17 14.5 28t31.5 11
q38 0 120.5 -87.5t82.5 -126.5q0 -44 -85 -132t-129 -88q-14 0 -26.5 13t-12.5 27z" />
    <glyph glyph-name="onequarter" unicode="&#xbc;" horiz-adv-x="840" 
d="M714 221q0 -28 23 -77.5t23 -77.5q0 -73 -98 -73q-31 0 -67 10q-46 14 -54 34q-4 11 -4 36q0 29 41 83t41 79q0 19 -33 23q-60 6 -62 6q-33 10 -33 45q0 59 51 114.5t110 55.5q33 0 66 -12q42 -16 42 -43q0 -13 -22 -36.5t-22 -52.5q0 -7 2 -18q26 -4 35 -10
q14 -9 14 -32q0 -20 -7.5 -25t-26.5 -5t-19 -24zM52 507q0 46 45.5 123t45.5 123q0 34 -21 68.5t-21 37.5q0 19 43 30q32 7 59 7q10 0 30.5 -12.5t20.5 -22.5q0 -27 -17.5 -79.5t-17.5 -80.5q0 -43 30.5 -119.5t30.5 -105.5q0 -71 -125 -71q-103 0 -103 102zM85 119
q0 89 100 199q59 61 119 123q68 74 103 136q11 19 38 112q23 76 50 99q34 29 73 29q26 0 51.5 -15t25.5 -39q0 -14 -31 -44q-67 -62 -103 -176q-44 -145 -89 -289q-75 -223 -120 -248q-23 -13 -48 -13q-87 0 -121 19q-48 27 -48 107zM567 353q0 -21 65 -30q8 40 8 55
q0 5 -10 11.5t-16 6.5q-18 0 -32.5 -12.5t-14.5 -30.5z" />
    <glyph glyph-name="onehalf" unicode="&#xbd;" horiz-adv-x="834" 
d="M504 187v42q3 41 44 87q21 24 73 68q39 32 39 42q0 19 -25 19q-23 0 -28.5 -28.5t-23.5 -28.5q-40 0 -40 37q0 30 32 47q25 13 58 13q35 0 64 -14q36 -18 36 -49q0 -33 -54.5 -68t-54.5 -55q0 -16 22 -16q11 0 28.5 10.5t28.5 10.5q50 0 50 -167q0 -72 -31 -105.5
t-103 -33.5q-76 0 -101 62q-14 36 -14 127zM52 507q0 46 45.5 123t45.5 123q0 43 -41 97l-2 10l2 5q28 31 101 31q10 0 30.5 -12.5t20.5 -22.5q0 -27 -17.5 -79.5t-17.5 -80.5q0 -43 30.5 -119.5t30.5 -105.5q0 -71 -125 -71q-103 0 -103 102zM85 119q0 89 100 199
q59 61 119 123q68 74 103 136q11 19 38 112q23 76 50 99q34 29 73 29q26 0 51.5 -14.5t25.5 -39.5q0 -14 -31 -44q-67 -62 -103 -176q-44 -145 -89 -289q-75 -223 -120 -248q-23 -13 -48 -13q-87 0 -121 19q-48 27 -48 107z" />
    <glyph glyph-name="threequarters" unicode="&#xbe;" horiz-adv-x="834" 
d="M732 245q-18 0 -18 -24q0 -28 23 -77.5t23 -77.5q0 -73 -98 -73q-31 0 -67 10q-46 14 -54 34q-4 12 -4 36q0 29 41 83t41 79q0 18 -28 21t-56 5q-36 7 -50 31q0 66 51.5 126.5t115.5 60.5q65 0 106 -42l2 -7q0 -1 -22 -33t-22 -62q0 -7 2 -18q26 -4 35 -10q14 -9 14 -32
q0 -16 -6 -30h-29zM34 529q0 32 14 106q17 85 32 85q13 0 33 -19.5t28 -19.5q30 0 30 29q0 25 -27 28t-27 10q0 27 31.5 31t31.5 28q0 14 -10 23.5t-24 9.5q-20 0 -31 -21.5t-19 -21.5q-15 0 -26 9.5t-11 24.5q0 29 35 48q29 16 61 16q34 0 64 -18q34 -21 34 -52
q0 -26 -19 -44.5t-19 -31.5q0 -6 20 -37q25 -38 37 -66q20 -45 20 -86q0 -87 -47 -122q-40 -30 -130 -30q-81 0 -81 121zM85 119q0 89 100 199q59 61 119 123q68 74 103 136q11 19 38 112q23 76 50 99q34 29 73 29q26 0 51.5 -14.5t25.5 -39.5q0 -14 -31 -44
q-67 -62 -103 -176q-44 -145 -89 -289q-75 -223 -120 -248q-23 -13 -48 -13q-87 0 -121 19q-48 27 -48 107zM567 353q0 -22 56 -29q8 39 8 55q0 5 -6 11t-11 6q-18 0 -32.5 -12.5t-14.5 -30.5z" />
    <glyph glyph-name="questiondown" unicode="&#xbf;" horiz-adv-x="469" 
d="M193 705q0 35 26 85q30 58 62 58q39 0 66 -57q22 -46 22 -89q0 -85 -96 -85q-47 0 -65 22q-15 19 -15 66zM27 222q0 43 1 60q4 52 50 111q25 31 84 87q45 41 45 54.5t28 21.5q22 7 41 7q54 0 54 -35q0 -41 -51.5 -87.5t-51.5 -70.5q0 -20 34 -20q17 0 47 13t46 13
q85 0 85 -209q0 -100 -64 -141q-51 -33 -158 -33q-114 0 -156 60q-34 49 -34 169z" />
    <glyph glyph-name="Agrave" unicode="&#xc0;" horiz-adv-x="698" 
d="M358 148q0 49 20 144t20 143q0 28 -10 49q-13 27 -38 27q-37 0 -51 -22q-10 -16 -10 -57q0 -46 20 -136t20 -136q0 -92 -37.5 -129.5t-129.5 -37.5q-63 0 -97 44q-31 39 -31 104q0 76 67 208.5t67 208.5q0 34 -24.5 93t-24.5 87q0 78 199 78q17 0 53 -1h54q160 0 160 -69
q0 -32 -23.5 -91t-23.5 -91q0 -77 63 -217.5t63 -219.5q0 -133 -170 -133q-67 0 -103 44q-33 41 -33 110zM345 714q-42 -1 -42 -48q0 -26 9.5 -33t35.5 -7q46 0 47 41q1 25 -11 36t-39 11zM245 977q0 25 60 38q38 9 72 -47q31 -49 31 -91t-29 -42q-27 0 -80.5 58t-53.5 84z
" />
    <glyph glyph-name="Aacute" unicode="&#xc1;" horiz-adv-x="698" 
d="M358 148q0 49 20 144t20 143q0 28 -10 49q-13 27 -38 27q-37 0 -51 -22q-10 -16 -10 -57q0 -46 20 -136t20 -136q0 -92 -37.5 -129.5t-129.5 -37.5q-63 0 -97 44q-31 39 -31 104q0 76 67 208.5t67 208.5q0 34 -24.5 93t-24.5 87q0 78 199 78q17 0 53 -1h54q160 0 160 -69
q0 -32 -23.5 -91t-23.5 -91q0 -77 63 -217.5t63 -219.5q0 -133 -170 -133q-67 0 -103 44q-33 41 -33 110zM345 714q-42 -1 -42 -48q0 -26 9.5 -33t35.5 -7q46 0 47 41q1 25 -11 36t-39 11zM471 987q0 -26 -53.5 -84t-81.5 -58t-28 42t31 91q34 56 72 47q60 -13 60 -38z" />
    <glyph glyph-name="Acircumflex" unicode="&#xc2;" horiz-adv-x="698" 
d="M358 148q0 49 20 144t20 143q0 28 -10 49q-13 27 -38 27q-37 0 -51 -22q-10 -16 -10 -57q0 -46 20 -136t20 -136q0 -92 -37.5 -129.5t-129.5 -37.5q-63 0 -97 44q-31 39 -31 104q0 76 67 208.5t67 208.5q0 34 -24.5 93t-24.5 87q0 78 199 78q17 0 53 -1h54q160 0 160 -69
q0 -32 -23.5 -91t-23.5 -91q0 -77 63 -217.5t63 -219.5q0 -133 -170 -133q-67 0 -103 44q-33 41 -33 110zM345 714q-42 -1 -42 -48q0 -26 9.5 -33t35.5 -7q46 0 47 41q1 25 -11 36t-39 11zM361 934q-63 -85 -101 -85q-27 0 -27 42q0 34 43.5 91.5t76.5 57.5q38 0 87 -58
q46 -55 46 -93q0 -41 -28 -41q-22 0 -56 32t-41 54z" />
    <glyph glyph-name="Atilde" unicode="&#xc3;" horiz-adv-x="698" 
d="M358 148q0 49 20 144t20 143q0 28 -10 49q-13 27 -38 27q-37 0 -51 -22q-10 -16 -10 -57q0 -46 20 -136t20 -136q0 -92 -37.5 -129.5t-129.5 -37.5q-63 0 -97 44q-31 39 -31 104q0 76 67 208.5t67 208.5q0 34 -24.5 93t-24.5 87q0 78 199 78q17 0 53 -1h54q160 0 160 -69
q0 -32 -23.5 -91t-23.5 -91q0 -77 63 -217.5t63 -219.5q0 -133 -170 -133q-67 0 -103 44q-33 41 -33 110zM345 714q-42 -1 -42 -48q0 -26 9.5 -33t35.5 -7q46 0 47 41q1 25 -11 36t-39 11zM304 893q-13 0 -15 -3q-8 -18 -17 -35t-31 -19q-49 -6 -49 50q0 40 21 72
q25 36 64 36q32 0 69 -26.5t56 -25.5q10 1 30 24.5t39 25.5q46 5 46 -46q0 -39 -21 -72q-25 -38 -63 -38q-29 0 -69 28.5t-60 28.5z" />
    <glyph glyph-name="Adieresis" unicode="&#xc4;" horiz-adv-x="683" 
d="M358 148q0 49 20 144t20 143q0 28 -10 49q-13 27 -38 27q-37 0 -51 -22q-10 -16 -10 -57q0 -46 20 -136t20 -136q0 -92 -37.5 -129.5t-129.5 -37.5q-63 0 -97 44q-31 39 -31 104q0 76 67 208.5t67 208.5q0 34 -24.5 93t-24.5 87q0 78 199 78q17 0 53 -1h54q160 0 160 -69
q0 -32 -23.5 -91t-23.5 -91q0 -77 63 -217.5t63 -219.5q0 -133 -170 -133q-67 0 -103 44q-33 41 -33 110zM345 714q-42 -1 -42 -48q0 -26 9.5 -33t35.5 -7q46 0 47 41q1 25 -11 36t-39 11zM362 923q0 29 15 57q19 33 47 33q26 0 45 -25q16 -23 16 -51t-11 -54
q-15 -34 -40 -34q-33 0 -52.5 21t-19.5 53zM212 917q0 32 12 60q15 36 43 36q27 0 47 -25t20 -52q0 -26 -13 -52q-15 -31 -40 -31q-69 0 -69 64z" />
    <glyph glyph-name="Aring" unicode="&#xc5;" horiz-adv-x="698" 
d="M358 148q0 49 20 144t20 143q0 28 -10 49q-13 27 -38 27q-37 0 -51 -22q-10 -16 -10 -57q0 -46 20 -136t20 -136q0 -92 -37.5 -129.5t-129.5 -37.5q-63 0 -97 44q-31 39 -31 104q0 76 67 208.5t67 208.5q0 34 -24.5 93t-24.5 87q0 78 199 78q17 0 53 -1h54q160 0 160 -69
q0 -32 -23.5 -91t-23.5 -91q0 -77 63 -217.5t63 -219.5q0 -133 -170 -133q-67 0 -103 44q-33 41 -33 110zM345 714q-42 -1 -42 -48q0 -26 9.5 -33t35.5 -7q46 0 47 41q1 25 -11 36t-39 11z" />
    <glyph glyph-name="AE" unicode="&#xc6;" horiz-adv-x="829" 
d="M345 714q-42 0 -42 -48q0 -26 9.5 -33t35.5 -7q47 0 47 47q0 41 -50 41zM591 819q57 0 81 -13q34 -18 34 -70q0 -50 -39 -50q-23 0 -47.5 16t-53.5 16q-47 0 -47 -55q0 -31 41 -36l76 -6q42 -8 42 -47q0 -26 -31 -32t-61 -10q-32 -9 -32 -38q0 -42 56 -42q22 0 52 23.5
t42 23.5q58 0 75 -137q7 -54 7 -186q0 -110 -36.5 -146.5t-148.5 -36.5q-11 0 -31.5 1.5t-31.5 1.5q-7 0 -21.5 -1t-22.5 -1q-67 0 -103 44q-33 41 -33 110q0 49 20 144t20 143q0 28 -10 49q-13 27 -38 27q-38 0 -51 -22q-10 -17 -10 -57q0 -46 20 -136t20 -136
q0 -92 -37.5 -129.5t-129.5 -37.5q-63 0 -97 44q-31 39 -31 104q0 76 67 208.5t67 208.5q0 34 -24.5 92.5t-24.5 87.5q0 79 212 79q23 0 55 -1t39 -1q28 0 83 2t83 2z" />
    <glyph glyph-name="Ccedilla" unicode="&#xc7;" horiz-adv-x="487" 
d="M335 -77q0 -58 -41 -98.5t-99 -40.5h-6q-6 6 -6 14t16.5 32t16.5 43q0 20 -14 43t-14 42q0 24 14 40q-98 25 -144 144q-34 90 -34 213q0 157 57 289q73 171 208 171q137 0 137 -145q0 -16 -21 -33t-37 -17q-36 0 -46 23q-4 23 -7 47q-5 30 -28 40q-42 0 -61 -55
q-14 -38 -14 -90q0 -48 24 -84q28 -42 73 -42q27 0 50 28t35 28q9 0 17 -4q53 -107 53 -229q0 -100 -33 -171q-41 -88 -126 -111q30 -23 30 -77z" />
    <glyph glyph-name="Egrave" unicode="&#xc8;" horiz-adv-x="492" 
d="M123 556q0 34 -31 93.5t-31 93.5q0 72 141 72h68q72 0 97 -10q45 -18 45 -77q0 -48 -38 -48q-25 0 -42 16t-47 16q-36 0 -36 -29q0 -23 23 -28t45 -10q23 -12 23 -51q0 -21 -23 -25.5t-45 -7.5q-24 -8 -24 -37q0 -25 11 -33t36 -8q22 0 52 32.5t41 32.5q78 0 78 -284
q0 -151 -26 -199q-41 -72 -179 -72q-89 0 -149 21q-88 32 -88 103q0 77 49.5 219.5t49.5 219.5zM145 977q0 25 60 38q38 9 72 -47q31 -49 31 -91t-29 -42q-27 0 -80.5 58t-53.5 84z" />
    <glyph glyph-name="Eacute" unicode="&#xc9;" horiz-adv-x="492" 
d="M123 556q0 34 -31 93.5t-31 93.5q0 72 141 72h68q72 0 97 -10q45 -18 45 -77q0 -48 -38 -48q-25 0 -42 16t-47 16q-36 0 -36 -29q0 -23 23 -28t45 -10q23 -12 23 -51q0 -21 -23 -25.5t-45 -7.5q-24 -8 -24 -37q0 -25 11 -33t36 -8q22 0 52 32.5t41 32.5q78 0 78 -284
q0 -151 -26 -199q-41 -72 -179 -72q-89 0 -149 21q-88 32 -88 103q0 77 49.5 219.5t49.5 219.5zM371 987q0 -26 -53.5 -84t-81.5 -58t-28 42t31 91q34 56 72 47q60 -13 60 -38z" />
    <glyph glyph-name="Ecircumflex" unicode="&#xca;" horiz-adv-x="492" 
d="M123 556q0 34 -31 93.5t-31 93.5q0 72 141 72h68q72 0 97 -10q45 -18 45 -77q0 -48 -38 -48q-25 0 -42 16t-47 16q-36 0 -36 -29q0 -23 23 -28t45 -10q23 -12 23 -51q0 -21 -23 -25.5t-45 -7.5q-24 -8 -24 -37q0 -25 11 -33t36 -8q22 0 52 32.5t41 32.5q78 0 78 -284
q0 -151 -26 -199q-41 -72 -179 -72q-89 0 -149 21q-88 32 -88 103q0 77 49.5 219.5t49.5 219.5zM271 934q-63 -85 -101 -85q-27 0 -27 42q0 34 43.5 91.5t76.5 57.5q38 0 87 -58q46 -55 46 -93q0 -41 -28 -41q-22 0 -56 32t-41 54z" />
    <glyph glyph-name="Edieresis" unicode="&#xcb;" horiz-adv-x="492" 
d="M123 556q0 34 -31 93.5t-31 93.5q0 72 141 72h68q72 0 97 -10q45 -18 45 -77q0 -48 -38 -48q-25 0 -42 16t-47 16q-36 0 -36 -29q0 -23 23 -28t45 -10q23 -12 23 -51q0 -21 -23 -25.5t-45 -7.5q-24 -8 -24 -37q0 -25 11 -33t36 -8q22 0 52 32.5t41 32.5q78 0 78 -284
q0 -151 -26 -199q-41 -72 -179 -72q-89 0 -149 21q-88 32 -88 103q0 77 49.5 219.5t49.5 219.5zM262 923q0 29 15 57q19 33 47 33q26 0 45 -25q16 -23 16 -51t-11 -54q-15 -34 -40 -34q-33 0 -52.5 21t-19.5 53zM112 917q0 32 12 60q15 36 43 36q27 0 47 -25t20 -52
q0 -26 -13 -52q-15 -31 -40 -31q-69 0 -69 64z" />
    <glyph glyph-name="Igrave" unicode="&#xcc;" horiz-adv-x="374" 
d="M18 152q0 71 48.5 201.5t48.5 201.5q0 33 -28 89.5t-28 87.5q0 83 138 83q67 0 95 -11q45 -19 45 -76q0 -39 -36 -108.5t-36 -110.5q0 -59 44.5 -172t44.5 -175q0 -169 -148 -169q-56 0 -106 22q-61 26 -75 72q-7 22 -7 65zM95 977q0 25 60 38q38 9 72 -47q31 -49 31 -91
t-29 -42q-27 0 -80.5 58t-53.5 84z" />
    <glyph glyph-name="Iacute" unicode="&#xcd;" horiz-adv-x="374" 
d="M18 152q0 71 48.5 201.5t48.5 201.5q0 33 -28 89.5t-28 87.5q0 83 138 83q67 0 95 -11q45 -19 45 -76q0 -39 -36 -108.5t-36 -110.5q0 -59 44.5 -172t44.5 -175q0 -169 -148 -169q-56 0 -106 22q-61 26 -75 72q-7 22 -7 65zM341 987q0 -26 -53.5 -84t-81.5 -58t-28 42
t31 91q34 56 72 47q60 -13 60 -38z" />
    <glyph glyph-name="Icircumflex" unicode="&#xce;" horiz-adv-x="374" 
d="M18 152q0 71 48.5 201.5t48.5 201.5q0 33 -28 89.5t-28 87.5q0 83 138 83q67 0 95 -11q45 -19 45 -76q0 -39 -36 -108.5t-36 -110.5q0 -59 44.5 -172t44.5 -175q0 -169 -148 -169q-56 0 -106 22q-61 26 -75 72q-7 22 -7 65zM211 934q-63 -85 -101 -85q-27 0 -27 42
q0 34 43.5 91.5t76.5 57.5q38 0 87 -58q46 -55 46 -93q0 -41 -28 -41q-22 0 -56 32t-41 54z" />
    <glyph glyph-name="Idieresis" unicode="&#xcf;" horiz-adv-x="374" 
d="M18 152q0 71 48.5 201.5t48.5 201.5q0 33 -28 89.5t-28 87.5q0 83 138 83q67 0 95 -11q45 -19 45 -76q0 -39 -36 -108.5t-36 -110.5q0 -59 44.5 -172t44.5 -175q0 -169 -148 -169q-56 0 -106 22q-61 26 -75 72q-7 22 -7 65zM222 923q0 29 15 57q19 33 47 33q26 0 45 -25
q16 -23 16 -51t-11 -54q-15 -34 -40 -34q-33 0 -52.5 21t-19.5 53zM72 917q0 32 12 60q15 36 43 36q27 0 47 -25t20 -52q0 -26 -13 -52q-15 -31 -40 -31q-69 0 -69 64z" />
    <glyph glyph-name="Eth" unicode="&#xd0;" horiz-adv-x="532" 
d="M15 121q0 10 23 78q62 183 62 278q0 15 -1 40q-37 1 -60 14q10 54 39 70h5q-3 5 -35 72q-28 57 -28 64q0 78 176 78q76 0 121 -22q86 -42 139 -186q43 -119 43 -235q0 -368 -329 -368q-58 0 -103 29q-52 34 -52 88zM232 677v-77h33q8 -8 8 -18t-22 -55q-6 -4 -16 -6
q4 -26 13 -57q8 -2 14 -2q26 0 42 39q13 31 13 62q0 39 -13 75q-17 47 -49 47q-12 0 -23 -8z" />
    <glyph glyph-name="Ntilde" unicode="&#xd1;" horiz-adv-x="653" 
d="M282 925q-13 0 -14 -4q-9 -18 -18 -34.5t-31 -19.5q-49 -6 -49 51q0 40 21 72q25 36 64 36q32 0 69 -26.5t57 -25.5q9 1 29 24t39 26q46 5 46 -46q0 -39 -21 -73q-24 -38 -63 -38q-28 0 -68 29t-61 29zM500 -7q-50 0 -77 12q-42 18 -67 127q-2 10 -35 190
q-22 114 -49 186l-6 8l-9 3q-25 -18 -25 -59q0 -61 49 -177.5t49 -164.5q0 -70 -70 -118q-34 -7 -88 -7q-81 0 -113 48q-25 38 -25 71q0 72 44.5 207.5t44.5 206.5q0 46 -33.5 119t-33.5 107q0 41 45 63q35 16 82 16q66 0 106 -45q24 -26 64 -161q26 -91 52 -181l10 -35
q8 -21 18 -30l6 11q0 154 -55 298q-18 47 -18 57q0 75 144 75q56 0 92 -42q4 -16 4 -29q0 -38 -34.5 -106t-34.5 -107q0 -70 43 -202t43 -202q0 -55 -14 -99q-33 -40 -109 -40z" />
    <glyph glyph-name="Ograve" unicode="&#xd2;" horiz-adv-x="522" 
d="M31 314q0 131 19 225q18 84 50 154q45 97 102 113q31 9 84 9q125 0 178 -200q33 -125 33 -302v-113q0 -59 -39 -122q-63 -101 -192 -101q-121 0 -184 114q-51 92 -51 223zM265 706q-25 0 -38 -29q-1 -2 -18 -56q-8 -27 -5 -79q0 -17 22 -27q18 -8 39 -8q19 0 37 8
q22 11 22 27q2 52 -6 79q-15 51 -17 56q-13 29 -36 29zM145 977q0 25 60 38q38 9 72 -47q31 -49 31 -91t-29 -42q-27 0 -80.5 58t-53.5 84z" />
    <glyph glyph-name="Oacute" unicode="&#xd3;" horiz-adv-x="522" 
d="M31 314q0 131 19 225q18 84 50 154q45 97 102 113q31 9 84 9q125 0 178 -200q33 -125 33 -302v-113q0 -59 -39 -122q-63 -101 -192 -101q-121 0 -184 114q-51 92 -51 223zM265 706q-25 0 -38 -29q-1 -2 -18 -56q-8 -27 -5 -79q0 -17 22 -27q18 -8 39 -8q19 0 37 8
q22 11 22 27q2 52 -6 79q-15 51 -17 56q-13 29 -36 29zM391 987q0 -26 -53.5 -84t-81.5 -58t-28 42t31 91q34 56 72 47q60 -13 60 -38z" />
    <glyph glyph-name="Ocircumflex" unicode="&#xd4;" horiz-adv-x="522" 
d="M31 314q0 131 19 225q18 84 50 154q45 97 102 113q31 9 84 9q125 0 178 -200q33 -125 33 -302v-113q0 -59 -39 -122q-63 -101 -192 -101q-121 0 -184 114q-51 92 -51 223zM265 706q-25 0 -38 -29q-1 -2 -18 -56q-8 -27 -5 -79q0 -17 22 -27q18 -8 39 -8q19 0 37 8
q22 11 22 27q2 52 -6 79q-15 51 -17 56q-13 29 -36 29zM271 934q-63 -85 -101 -85q-27 0 -27 42q0 34 43.5 91.5t76.5 57.5q38 0 87 -58q46 -55 46 -93q0 -41 -28 -41q-22 0 -56 32t-41 54z" />
    <glyph glyph-name="Otilde" unicode="&#xd5;" horiz-adv-x="522" 
d="M31 314q0 131 19 225q18 84 50 154q45 97 102 113q31 9 84 9q125 0 178 -200q33 -125 33 -302v-113q0 -59 -39 -122q-63 -101 -192 -101q-121 0 -184 114q-51 92 -51 223zM265 706q-25 0 -38 -29q-1 -2 -18 -56q-8 -27 -5 -79q0 -17 22 -27q18 -8 39 -8q19 0 37 8
q22 11 22 27q2 52 -6 79q-15 51 -17 56q-13 29 -36 29zM224 893q-13 0 -15 -3q-8 -18 -17 -35t-31 -19q-49 -6 -49 50q0 40 21 72q25 36 64 36q32 0 69 -26.5t56 -25.5q10 1 30 24.5t39 25.5q46 5 46 -46q0 -39 -21 -72q-25 -38 -63 -38q-29 0 -69 28.5t-60 28.5z" />
    <glyph glyph-name="Odieresis" unicode="&#xd6;" horiz-adv-x="517" 
d="M31 314q0 131 19 225q18 84 50 154q45 97 102 113q31 9 84 9q125 0 178 -200q33 -125 33 -302v-113q0 -59 -39 -122q-63 -101 -192 -101q-121 0 -184 114q-51 92 -51 223zM265 706q-25 0 -38 -29q-1 -2 -18 -56q-8 -27 -5 -79q0 -17 22 -27q18 -8 39 -8q19 0 37 8
q22 11 22 27q2 52 -6 79q-15 51 -17 56q-13 29 -36 29zM292 923q0 29 15 57q19 33 47 33q26 0 45 -25q16 -23 16 -51t-11 -54q-15 -34 -40 -34q-33 0 -52.5 21t-19.5 53zM142 917q0 32 12 60q15 36 43 36q27 0 47 -25t20 -52q0 -26 -13 -52q-15 -31 -40 -31q-69 0 -69 64z
" />
    <glyph glyph-name="multiply" unicode="&#xd7;" horiz-adv-x="504" 
d="M355 94q-47 0 -64 26q-12 18 -12 61q0 22 2.5 64t2.5 64t-8 33l-26 28q-12 -15 -25 -30q-8 -11 -8 -29q0 -20 1.5 -58t1.5 -59q0 -66 -51 -91q-20 -9 -47 -9q-51 0 -73 21q-19 18 -19 60q0 67 51 135q58 65 116 131q-14 34 -60 73q-37 30 -75 61q-2 8 -2 13q0 20 28 32
q22 9 45 9q37 0 75 -32q31 -26 53 -64q14 9 36 37.5t37 40.5q26 18 62 18q63 0 67 -32v-9q-1 -3 -6 -11q-22 -35 -67 -68q-55 -39 -68 -54q53 -68 105 -137t52 -132q0 -34 -11 -62q-36 -30 -113 -30z" />
    <glyph glyph-name="Oslash" unicode="&#xd8;" horiz-adv-x="522" 
d="M110 43q-16 -40 -20 -46q-16 -31 -34 -31q-15 0 -32 11t-17 26q0 8 55 117q-36 86 -36 194q0 137 19 224.5t50 154.5q45 98 101 113q34 9 85 9q59 0 98 -46q19 55 45 55q17 0 32 -10.5t15 -25.5q0 -11 -42 -92q64 -127 64 -379q0 -19 -1 -59v-58q0 -57 -39 -122
q-61 -101 -192 -101q-90 0 -151 66zM197 396l112 230q-2 28 -12 50q-14 30 -37 30q-47 0 -52 -88zM206 241q22 -12 46 -12q21 0 39 9q23 10 23 28l-3 190z" />
    <glyph glyph-name="Ugrave" unicode="&#xd9;" horiz-adv-x="553" 
d="M504 179q0 -74 -35 -120q-18 -24 -57.5 -45t-68.5 -21h-62q-127 0 -184 52t-57 178q0 58 17.5 173.5t17.5 173.5q0 33 -24.5 90.5t-24.5 83.5q0 71 98 71q124 0 124 -103q0 -28 -15.5 -89.5t-15.5 -89.5q0 -61 56 -61q69 0 69 70q0 31 -16.5 97.5t-16.5 96.5q0 76 110 76
q102 0 102 -74q0 -42 -28.5 -120t-28.5 -120q0 -54 20 -159.5t20 -159.5zM165 977q0 25 60 38q38 9 72 -47q31 -49 31 -91t-29 -42q-27 0 -80.5 58t-53.5 84z" />
    <glyph glyph-name="Uacute" unicode="&#xda;" horiz-adv-x="553" 
d="M504 179q0 -74 -35 -120q-18 -24 -57.5 -45t-68.5 -21h-62q-127 0 -184 52t-57 178q0 58 17.5 173.5t17.5 173.5q0 33 -24.5 90.5t-24.5 83.5q0 71 98 71q124 0 124 -103q0 -28 -15.5 -89.5t-15.5 -89.5q0 -61 56 -61q69 0 69 70q0 31 -16.5 97.5t-16.5 96.5q0 76 110 76
q102 0 102 -74q0 -42 -28.5 -120t-28.5 -120q0 -54 20 -159.5t20 -159.5zM421 987q0 -26 -53.5 -84t-81.5 -58t-28 42t31 91q34 56 72 47q60 -13 60 -38z" />
    <glyph glyph-name="Ucircumflex" unicode="&#xdb;" horiz-adv-x="553" 
d="M504 179q0 -74 -35 -120q-18 -24 -57.5 -45t-68.5 -21h-62q-127 0 -184 52t-57 178q0 58 17.5 173.5t17.5 173.5q0 33 -24.5 90.5t-24.5 83.5q0 71 98 71q124 0 124 -103q0 -28 -15.5 -89.5t-15.5 -89.5q0 -61 56 -61q69 0 69 70q0 31 -16.5 97.5t-16.5 96.5q0 76 110 76
q102 0 102 -74q0 -42 -28.5 -120t-28.5 -120q0 -54 20 -159.5t20 -159.5zM291 934q-63 -85 -101 -85q-27 0 -27 42q0 34 43.5 91.5t76.5 57.5q38 0 87 -58q46 -55 46 -93q0 -41 -28 -41q-22 0 -56 32t-41 54z" />
    <glyph glyph-name="Udieresis" unicode="&#xdc;" horiz-adv-x="528" 
d="M504 179q0 -74 -35 -120q-18 -24 -57.5 -45t-68.5 -21h-62q-127 0 -184 52t-57 178q0 58 17.5 173.5t17.5 173.5q0 33 -24.5 90.5t-24.5 83.5q0 71 98 71q124 0 124 -103q0 -28 -15.5 -89.5t-15.5 -89.5q0 -61 56 -61q69 0 69 70q0 31 -16.5 97.5t-16.5 96.5q0 76 110 76
q102 0 102 -74q0 -42 -28.5 -120t-28.5 -120q0 -54 20 -159.5t20 -159.5zM302 923q0 29 15 57q19 33 47 33q26 0 45 -25q16 -23 16 -51t-11 -54q-15 -34 -40 -34q-33 0 -52.5 21t-19.5 53zM152 917q0 32 12 60q15 36 43 36q27 0 47 -25t20 -52q0 -26 -13 -52
q-15 -31 -40 -31q-69 0 -69 64z" />
    <glyph glyph-name="Yacute" unicode="&#xdd;" horiz-adv-x="501" 
d="M413 159q0 -77 -46 -121.5t-123 -44.5q-87 0 -136.5 50.5t-49.5 137.5q0 58 53 157t53 156q0 51 -69 129.5t-69 131.5q0 38 29 51q20 9 62 9q62 0 76 -27q8 -15 8 -84q0 -80 45 -80q41 0 51 47q4 17 4 79q0 40 31 54q20 9 66 9q29 0 53 -12q29 -15 29 -42q0 -31 -39 -81
q-36 -45 -73 -91q-39 -56 -39 -100q0 -37 21 -85q18 -40 36 -81q27 -69 27 -162zM391 987q0 -26 -53.5 -84t-81.5 -58t-28 42t31 91q34 56 72 47q60 -13 60 -38z" />
    <glyph glyph-name="Thorn" unicode="&#xde;" horiz-adv-x="461" 
d="M360 85q0 -28 -10 -54q-49 -54 -149 -54q-181 0 -181 98q0 73 31 215.5t31 215.5q0 127 -62 211q-2 9 -2 17q0 41 51 68q43 21 88 21q58 0 58 -38q0 -18 -8.5 -52.5t-8.5 -52.5q0 -14 9 -14q79 0 146 -34q81 -42 81 -114q0 -60 -52 -110q-49 -36 -97 -73q-53 -40 -53 -76
q0 -49 33 -73l62 -34q33 -23 33 -67zM215 560q-15 -17 -15 -39q0 -13 5 -42t4 -45q52 6 52 78v16q0 14 -15 23t-31 9z" />
    <glyph glyph-name="germandbls" unicode="&#xdf;" horiz-adv-x="612" 
d="M314 60q-45 -83 -126 -83q-65 0 -105.5 37t-40.5 103q0 48 37 128q39 84 43 126q2 17 2 44q0 45 -4 61q-8 31 -35 47q-41 2 -46 3q-21 7 -21 38q0 48 47 48q32 0 32 22q0 11 -2 32t-2 32q0 52 47 87q44 32 101 32q69 0 124 -36q62 -42 62 -109q0 -26 -21.5 -78t-21.5 -79
q0 -48 52 -80q76 -47 97 -73q52 -65 52 -194q0 -21 -12 -59q-23 -71 -51 -100q-36 -37 -103 -37q-30 0 -62 31q-27 25 -43 57zM332 653q0 30 -4 40q-8 17 -32 17q-28 0 -47 -19.5t-19 -44.5q0 -227 33 -338q18 59 31 59q8 0 20.5 -34.5t34.5 -34.5q14 0 26 12.5t12 26.5
q0 34 -55.5 73t-55.5 78q0 28 28 82.5t28 82.5z" />
    <glyph glyph-name="agrave" unicode="&#xe0;" horiz-adv-x="427" 
d="M233 -7q-102 0 -152 33q-60 41 -60 138q0 152 76 236q6 6 80 55q58 38 58 63q0 34 -32 34q-22 0 -40.5 -44.5t-50.5 -44.5q-45 0 -45 60q0 56 60 88q49 26 110 26q104 0 129 -57q1 -4 1 -11q0 -16 -19 -81.5t-19 -97.5q0 -42 39 -134.5t39 -148.5q0 -50 -10 -63
q-25 -33 -74 -44q-31 -7 -90 -7zM167 324q0 -65 36 -59q17 2 19 34q-2 -28 -2 53v40q0 4 -3 6t-7 0q-43 -21 -43 -74zM135 817q0 25 60 38q38 9 72 -47q31 -49 31 -91t-29 -42q-27 0 -80.5 58t-53.5 84z" />
    <glyph glyph-name="aacute" unicode="&#xe1;" horiz-adv-x="427" 
d="M233 -7q-102 0 -152 33q-60 41 -60 138q0 152 76 236q6 6 80 55q58 38 58 63q0 34 -32 34q-22 0 -40.5 -44.5t-50.5 -44.5q-45 0 -45 60q0 56 60 88q49 26 110 26q104 0 129 -57q1 -4 1 -11q0 -16 -19 -81.5t-19 -97.5q0 -42 39 -134.5t39 -148.5q0 -50 -10 -63
q-25 -33 -74 -44q-31 -7 -90 -7zM167 324q0 -65 36 -59q17 2 19 34q-2 -28 -2 53v40q0 4 -3 6t-7 0q-43 -21 -43 -74zM341 817q0 -26 -53.5 -84t-81.5 -58t-28 42t31 91q34 56 72 47q60 -13 60 -38z" />
    <glyph glyph-name="acircumflex" unicode="&#xe2;" horiz-adv-x="427" 
d="M233 -7q-102 0 -152 33q-60 41 -60 138q0 152 76 236q6 6 80 55q58 38 58 63q0 34 -32 34q-22 0 -40.5 -44.5t-50.5 -44.5q-45 0 -45 60q0 56 60 88q49 26 110 26q104 0 129 -57q1 -4 1 -11q0 -16 -19 -81.5t-19 -97.5q0 -42 39 -134.5t39 -148.5q0 -50 -10 -63
q-25 -33 -74 -44q-31 -7 -90 -7zM167 324q0 -65 36 -59q17 2 19 34q-2 -28 -2 53v40q0 4 -3 6t-7 0q-43 -21 -43 -74zM231 764q-63 -85 -101 -85q-27 0 -27 42q0 34 43.5 91.5t76.5 57.5q38 0 87 -58q46 -55 46 -93q0 -41 -28 -41q-22 0 -56 32t-41 54z" />
    <glyph glyph-name="atilde" unicode="&#xe3;" horiz-adv-x="427" 
d="M233 -7q-102 0 -152 33q-60 41 -60 138q0 152 76 236q6 6 80 55q58 38 58 63q0 34 -32 34q-22 0 -40.5 -44.5t-50.5 -44.5q-45 0 -45 60q0 56 60 88q49 26 110 26q104 0 129 -57q1 -4 1 -11q0 -16 -19 -81.5t-19 -97.5q0 -42 39 -134.5t39 -148.5q0 -50 -10 -63
q-25 -33 -74 -44q-31 -7 -90 -7zM167 324q0 -65 36 -59q17 2 19 34q-2 -28 -2 53v40q0 4 -3 6t-7 0q-43 -21 -43 -74zM184 743q-13 0 -15 -3q-8 -18 -17 -35t-31 -19q-49 -6 -49 50q0 40 21 72q25 36 64 36q32 0 69 -26.5t56 -25.5q10 1 30 24.5t39 25.5q46 5 46 -46
q0 -39 -21 -72q-25 -38 -63 -38q-29 0 -69 28.5t-60 28.5z" />
    <glyph glyph-name="adieresis" unicode="&#xe4;" horiz-adv-x="422" 
d="M233 -7q-102 0 -152 33q-60 41 -60 138q0 152 76 236q6 6 80 55q58 38 58 63q0 34 -32 34q-22 0 -40.5 -44.5t-50.5 -44.5q-45 0 -45 60q0 56 60 88q49 26 110 26q104 0 129 -57q1 -4 1 -11q0 -16 -19 -81.5t-19 -97.5q0 -42 39 -134.5t39 -148.5q0 -50 -10 -63
q-25 -33 -74 -44q-31 -7 -90 -7zM167 324q0 -65 36 -59q17 2 19 34q-2 -28 -2 53v40q0 4 -3 6t-7 0q-43 -21 -43 -74zM232 733q0 29 15 57q19 33 47 33q26 0 45 -25q16 -23 16 -51t-11 -54q-15 -34 -40 -34q-33 0 -52.5 21t-19.5 53zM82 727q0 32 12 60q15 36 43 36
q27 0 47 -25t20 -52q0 -26 -13 -52q-15 -31 -40 -31q-69 0 -69 64z" />
    <glyph glyph-name="aring" unicode="&#xe5;" horiz-adv-x="427" 
d="M150 741q0 27 28 66t53 39t56 -36.5t31 -62.5q0 -40 -20 -65q-22 -28 -61 -28q-87 0 -87 87zM204 741q0 -46 29 -46q31 0 31 49q0 12 -10 34.5t-20 22.5q-11 0 -22 -25q-8 -21 -8 -35zM233 -7q-102 0 -152 33q-60 41 -60 138q0 152 76 236q6 6 80 55q58 38 58 63
q0 34 -32 34q-22 0 -40.5 -44.5t-50.5 -44.5q-45 0 -45 60q0 56 60 88q49 26 110 26q104 0 129 -57q1 -4 1 -11q0 -16 -19 -81.5t-19 -97.5q0 -42 39 -134.5t39 -148.5q0 -50 -10 -63q-25 -33 -74 -44q-31 -7 -90 -7zM167 324q0 -65 36 -59q17 2 19 34q-2 -28 -2 53v40
q0 4 -3 6t-7 0q-43 -21 -43 -74z" />
    <glyph glyph-name="ae" unicode="&#xe6;" horiz-adv-x="637" 
d="M334 42q-45 -49 -101 -49q-102 0 -152 33q-60 41 -60 138q0 151 76 236q7 7 80 55q58 37 58 63q0 34 -32 34q-22 0 -40.5 -44.5t-50.5 -44.5q-45 0 -45 60q0 56 60 88q49 26 110 26q68 0 110 -33q41 25 91 25q47 0 82 -18q42 -21 48 -63q0 -4 3 -50q-23 -50 -57 -62
q-11 -12 -35 -12q-14 0 -42 3.5t-42 3.5q-33 0 -33 -29q0 -32 26 -42q17 -6 54 -6q30 0 62 31.5t41 31.5q38 0 56 -111q12 -73 12 -150q0 -74 -60 -120q-55 -43 -131 -43q-47 0 -88 49zM410 552q-22 0 -37 -15t-15 -37h107q16 0 16 19q0 15 -15.5 24t-32.5 9h-23zM167 324
q0 -61 36 -59q17 30 17 87v40l-8 6q-45 -19 -45 -74z" />
    <glyph glyph-name="ccedilla" unicode="&#xe7;" horiz-adv-x="423" 
d="M284 -81q0 -51 -32 -93q-34 -45 -83 -46q-4 6 -4 10q0 6 13.5 22.5t13.5 29.5q0 19 -14.5 51.5t-14.5 50.5q0 29 27 49q-98 1 -143 106q-33 77 -33 190q0 132 47 220q59 112 178 112q98 0 98 -104q0 -31 -18 -54q-22 -13 -46 -13q-14 0 -27 6q-6 10 -8 34t-6 33
q-8 14 -32 13h-4q-43 -36 -43 -108q0 -32 24.5 -57t56.5 -25q19 0 51 20t45 20q10 0 18 -3q45 -68 45 -168q0 -190 -147 -218q38 -20 38 -78z" />
    <glyph glyph-name="egrave" unicode="&#xe8;" horiz-adv-x="434" 
d="M22 285q0 130 44 226q57 125 170 125q47 0 81 -18q42 -22 48 -64q2 -13 2 -24q0 -63 -56 -89q-26 -12 -34 -12q-14 0 -42 3t-42 3q-33 0 -33 -29q0 -57 81 -57q30 0 63 31t43 31q37 0 56 -103q13 -70 13 -142q0 -75 -63 -126q-58 -47 -133 -47q-65 0 -102 27
q-46 33 -73 121q-23 74 -23 144zM202 560q-15 -1 -27.5 -16t-12.5 -27q0 -9 7 -8l93 -4q16 -1 16 19q0 16 -14.5 27t-30.5 10zM135 817q0 25 60 38q38 9 72 -47q31 -49 31 -91t-29 -42q-27 0 -80.5 58t-53.5 84z" />
    <glyph glyph-name="eacute" unicode="&#xe9;" horiz-adv-x="434" 
d="M22 285q0 130 44 226q57 125 170 125q47 0 81 -18q42 -22 48 -64q2 -13 2 -24q0 -63 -56 -89q-26 -12 -34 -12q-14 0 -42 3t-42 3q-33 0 -33 -29q0 -57 81 -57q30 0 63 31t43 31q37 0 56 -103q13 -70 13 -142q0 -75 -63 -126q-58 -47 -133 -47q-65 0 -102 27
q-46 33 -73 121q-23 74 -23 144zM202 560q-15 -1 -27.5 -16t-12.5 -27q0 -9 7 -8l93 -4q16 -1 16 19q0 16 -14.5 27t-30.5 10zM341 817q0 -26 -53.5 -84t-81.5 -58t-28 42t31 91q34 56 72 47q60 -13 60 -38z" />
    <glyph glyph-name="ecircumflex" unicode="&#xea;" horiz-adv-x="434" 
d="M22 285q0 130 44 226q57 125 170 125q47 0 81 -18q42 -22 48 -64q2 -13 2 -24q0 -63 -56 -89q-26 -12 -34 -12q-14 0 -42 3t-42 3q-33 0 -33 -29q0 -57 81 -57q30 0 63 31t43 31q37 0 56 -103q13 -70 13 -142q0 -75 -63 -126q-58 -47 -133 -47q-65 0 -102 27
q-46 33 -73 121q-23 74 -23 144zM202 560q-15 -1 -27.5 -16t-12.5 -27q0 -9 7 -8l93 -4q16 -1 16 19q0 16 -14.5 27t-30.5 10zM241 764q-63 -85 -101 -85q-27 0 -27 42q0 34 43.5 91.5t76.5 57.5q38 0 87 -58q46 -55 46 -93q0 -41 -28 -41q-22 0 -56 32t-41 54z" />
    <glyph glyph-name="edieresis" unicode="&#xeb;" horiz-adv-x="434" 
d="M22 285q0 130 44 226q57 125 170 125q47 0 81 -18q42 -22 48 -64q2 -13 2 -24q0 -63 -56 -89q-26 -12 -34 -12q-14 0 -42 3t-42 3q-33 0 -33 -29q0 -57 81 -57q30 0 63 31t43 31q37 0 56 -103q13 -70 13 -142q0 -75 -63 -126q-58 -47 -133 -47q-65 0 -102 27
q-46 33 -73 121q-23 74 -23 144zM202 560q-15 -1 -27.5 -16t-12.5 -27q0 -9 7 -8l93 -4q16 -1 16 19q0 16 -14.5 27t-30.5 10zM252 733q0 29 15 57q19 33 47 33q26 0 45 -25q16 -23 16 -51t-11 -54q-15 -34 -40 -34q-33 0 -52.5 21t-19.5 53zM102 727q0 32 12 60
q15 36 43 36q27 0 47 -25t20 -52q0 -26 -13 -52q-15 -31 -40 -31q-69 0 -69 64z" />
    <glyph glyph-name="igrave" unicode="&#xec;" horiz-adv-x="329" 
d="M18 117q0 50 44.5 149t44.5 158q0 31 -24 79.5t-24 70.5q0 38 44 56q32 13 77 13q32 0 58.5 -21.5t26.5 -51.5q0 -28 -24.5 -87t-24.5 -94q0 -52 48.5 -143.5t48.5 -136.5q0 -56 -51 -91q-45 -32 -103 -32q-63 0 -102 34.5t-39 96.5zM45 817q0 25 60 38q38 9 72 -47
q31 -49 31 -91t-29 -42q-27 0 -80.5 58t-53.5 84z" />
    <glyph glyph-name="iacute" unicode="&#xed;" horiz-adv-x="329" 
d="M18 117q0 50 44.5 149t44.5 158q0 31 -24 79.5t-24 70.5q0 38 44 56q32 13 77 13q32 0 58.5 -21.5t26.5 -51.5q0 -28 -24.5 -87t-24.5 -94q0 -52 48.5 -143.5t48.5 -136.5q0 -56 -51 -91q-45 -32 -103 -32q-63 0 -102 34.5t-39 96.5zM301 817q0 -26 -53.5 -84t-81.5 -58
t-28 42t31 91q34 56 72 47q60 -13 60 -38z" />
    <glyph glyph-name="icircumflex" unicode="&#xee;" horiz-adv-x="329" 
d="M18 117q0 50 44.5 149t44.5 158q0 31 -24 79.5t-24 70.5q0 38 44 56q32 13 77 13q32 0 58.5 -21.5t26.5 -51.5q0 -28 -24.5 -87t-24.5 -94q0 -52 48.5 -143.5t48.5 -136.5q0 -56 -51 -91q-45 -32 -103 -32q-63 0 -102 34.5t-39 96.5zM181 764q-63 -85 -101 -85
q-27 0 -27 42q0 34 43.5 91.5t76.5 57.5q38 0 87 -58q46 -55 46 -93q0 -41 -28 -41q-22 0 -56 32t-41 54z" />
    <glyph glyph-name="idieresis" unicode="&#xef;" horiz-adv-x="329" 
d="M18 117q0 50 44.5 149t44.5 158q0 31 -24 79.5t-24 70.5q0 38 44 56q32 13 77 13q32 0 58.5 -21.5t26.5 -51.5q0 -28 -24.5 -87t-24.5 -94q0 -52 48.5 -143.5t48.5 -136.5q0 -56 -51 -91q-45 -32 -103 -32q-63 0 -102 34.5t-39 96.5zM182 733q0 29 15 57q19 33 47 33
q26 0 45 -25q16 -23 16 -51t-11 -54q-15 -34 -40 -34q-33 0 -52.5 21t-19.5 53zM32 727q0 32 12 60q15 36 43 36q27 0 47 -25t20 -52q0 -26 -13 -52q-15 -31 -40 -31q-69 0 -69 64z" />
    <glyph glyph-name="eth" unicode="&#xf0;" horiz-adv-x="450" 
d="M18 274q0 98 21 197q31 146 90 146q13 0 37 -14.5t42 -14.5q10 0 22 4l7 8q-11 16 -35 46q-27 -7 -46 -7q-20 0 -20 17q0 18 21 35q-17 20 -17 39q0 36 48 61q40 23 80 23q15 0 33 -3l7 -5q3 -29 9 -68q35 11 49 11q11 0 11 -13q0 -41 -51 -56q19 -117 19 -176
q0 -80 34 -166q20 -51 20 -132q0 -51 -11 -81q-28 -86 -63 -113t-110 -27q-123 0 -167 90q-30 61 -30 199zM160 443v-24q0 -4 3 -31q18 -36 33 -36q33 0 33 23q0 8 1 24.5t1 24.5q0 79 -33 79q-16 0 -27 -21t-11 -39z" />
    <glyph glyph-name="ntilde" unicode="&#xf1;" horiz-adv-x="522" 
d="M194 744q-13 0 -14 -3q-9 -18 -18 -35t-31 -19q-49 -6 -49 51q0 40 21 71q25 36 64 36q32 0 69 -26t57 -25q9 0 29 23.5t39 25.5q46 6 46 -45q0 -40 -21 -73q-25 -38 -63 -38q-28 0 -68.5 28.5t-60.5 28.5zM269 150q0 48 16 142.5t16 142.5q0 93 -36 93q-42 0 -42 -120
q0 -47 12.5 -139.5t12.5 -138.5q0 -104 -34 -120q-9 -4 -44 -11q-31 -6 -52 -6q-38 0 -65 22t-27 60q0 59 46.5 163.5t46.5 157.5q0 45 -32.5 106.5t-32.5 72.5q0 20 14 33t34 13q18 0 33 -7q16 -30 29 -30q3 0 8 2q22 33 65 44q28 7 81 7q103 0 103 -75q0 -25 -13.5 -73
t-13.5 -73q0 -58 51.5 -176.5t51.5 -185.5q0 -32 -48 -49q-34 -12 -74 -12q-68 0 -91 48q-15 33 -15 109z" />
    <glyph glyph-name="ograve" unicode="&#xf2;" horiz-adv-x="413" 
d="M21 283q0 106 39 214q52 140 137 140q5 0 17 1h16q80 0 127 -142q35 -107 35 -211q0 -179 -72 -250q-43 -42 -84 -42q-215 0 -215 290zM210 544q-27 0 -41 -58q-9 -40 -9 -83q0 -53 54 -53q50 0 50 41q0 34 -13 86q-17 67 -41 67zM95 817q0 25 60 38q38 9 72 -47
q31 -49 31 -91t-29 -42q-27 0 -80.5 58t-53.5 84z" />
    <glyph glyph-name="oacute" unicode="&#xf3;" horiz-adv-x="413" 
d="M21 283q0 106 39 214q52 140 137 140q5 0 17 1h16q80 0 127 -142q35 -107 35 -211q0 -179 -72 -250q-43 -42 -84 -42q-215 0 -215 290zM210 544q-27 0 -41 -58q-9 -40 -9 -83q0 -53 54 -53q50 0 50 41q0 34 -13 86q-17 67 -41 67zM341 817q0 -26 -53.5 -84t-81.5 -58
t-28 42t31 91q34 56 72 47q60 -13 60 -38z" />
    <glyph glyph-name="ocircumflex" unicode="&#xf4;" horiz-adv-x="413" 
d="M21 283q0 106 39 214q52 140 137 140q5 0 17 1h16q80 0 127 -142q35 -107 35 -211q0 -179 -72 -250q-43 -42 -84 -42q-215 0 -215 290zM210 544q-27 0 -41 -58q-9 -40 -9 -83q0 -53 54 -53q50 0 50 41q0 34 -13 86q-17 67 -41 67zM221 764q-63 -85 -101 -85q-27 0 -27 42
q0 34 43.5 91.5t76.5 57.5q38 0 87 -58q46 -55 46 -93q0 -41 -28 -41q-22 0 -56 32t-41 54z" />
    <glyph glyph-name="otilde" unicode="&#xf5;" horiz-adv-x="413" 
d="M21 283q0 106 39 214q52 140 137 140q5 0 17 1h16q80 0 127 -142q35 -107 35 -211q0 -179 -72 -250q-43 -42 -84 -42q-215 0 -215 290zM210 544q-27 0 -41 -58q-9 -40 -9 -83q0 -53 54 -53q50 0 50 41q0 34 -13 86q-17 67 -41 67zM176 742q-12 0 -14 -3q-8 -18 -16 -34.5
t-29 -18.5q-45 -6 -45 50q0 39 20 70q22 36 59 36q29 0 63 -26t53 -25q8 1 26.5 24t36.5 25q42 5 42 -45q0 -39 -19 -72q-23 -37 -58 -37q-27 0 -64 28t-55 28z" />
    <glyph glyph-name="odieresis" unicode="&#xf6;" horiz-adv-x="413" 
d="M21 283q0 106 39 214q52 140 137 140q5 0 17 1h16q80 0 127 -142q35 -107 35 -211q0 -179 -72 -250q-43 -42 -84 -42q-215 0 -215 290zM210 544q-27 0 -41 -58q-9 -40 -9 -83q0 -53 54 -53q50 0 50 41q0 34 -13 86q-17 67 -41 67zM232 733q0 29 15 57q19 33 47 33
q26 0 45 -25q16 -23 16 -51t-11 -54q-15 -34 -40 -34q-33 0 -52.5 21t-19.5 53zM82 727q0 32 12 60q15 36 43 36q27 0 47 -25t20 -52q0 -26 -13 -52q-15 -31 -40 -31q-69 0 -69 64z" />
    <glyph glyph-name="divide" unicode="&#xf7;" horiz-adv-x="389" 
d="M103 516q0 39 31 96q34 65 69 65q37 0 62 -60q21 -49 21 -91q0 -77 -110 -77q-32 0 -52.5 18t-20.5 49zM72 105q0 48 37 114q42 73 86 73q52 0 90 -72q32 -60 32 -119q0 -111 -133 -111q-61 0 -86.5 26.5t-25.5 88.5zM193 322q-139 0 -176 20q12 35 17 44q14 24 44 35
q165 0 289 -1q12 -9 12 -21q0 -11 -34 -62q-36 -15 -152 -15z" />
    <glyph glyph-name="oslash" unicode="&#xf8;" horiz-adv-x="413" 
d="M392 285q0 -178 -72 -250q-42 -42 -84 -42q-99 0 -149 58q-26 -52 -43 -52q-15 0 -31 14.5t-16 30.5q0 10 48 84q-24 67 -24 155q0 106 39 214q52 140 137 140q43 0 70 -12.5t50 -46.5q28 54 47 54q16 0 30 -13t14 -30q0 -12 -52 -93q36 -107 36 -211zM181 529
q-11 -41 -13 -100q-1 -51 -2 -101l84 139q-12 77 -40 77q-17 0 -29 -15zM172 192q13 -13 40 -13q14 0 36 27.5t22 41.5q0 2 -8 92z" />
    <glyph glyph-name="ugrave" unicode="&#xf9;" 
d="M28 122q0 42 23.5 122t23.5 122q0 39 -28.5 102.5t-28.5 94.5q0 74 103 74q39 0 59 -28.5t20 -68.5q0 -28 -12 -76t-12 -75q0 -44 49 -44q60 0 60 58q0 37 -16 82q-16 39 -33 78q0 36 36 57q30 17 69 17q44 0 69 -40v-11q0 -40 -19.5 -117t-19.5 -117q0 -37 19.5 -106.5
t19.5 -105.5q0 -76 -58 -114q-50 -33 -130 -33q-194 0 -194 129zM105 817q0 25 60 38q38 9 72 -47q31 -49 31 -91t-29 -42q-27 0 -80.5 58t-53.5 84z" />
    <glyph glyph-name="uacute" unicode="&#xfa;" 
d="M28 122q0 42 23.5 122t23.5 122q0 39 -28.5 102.5t-28.5 94.5q0 74 103 74q39 0 59 -28.5t20 -68.5q0 -28 -12 -76t-12 -75q0 -44 49 -44q60 0 60 58q0 37 -16 82q-16 39 -33 78q0 36 36 57q30 17 69 17q44 0 69 -40v-11q0 -40 -19.5 -117t-19.5 -117q0 -37 19.5 -106.5
t19.5 -105.5q0 -76 -58 -114q-50 -33 -130 -33q-194 0 -194 129zM341 817q0 -26 -53.5 -84t-81.5 -58t-28 42t31 91q34 56 72 47q60 -13 60 -38z" />
    <glyph glyph-name="ucircumflex" unicode="&#xfb;" 
d="M28 122q0 42 23.5 122t23.5 122q0 39 -28.5 102.5t-28.5 94.5q0 74 103 74q39 0 59 -28.5t20 -68.5q0 -28 -12 -76t-12 -75q0 -44 49 -44q60 0 60 58q0 37 -16 82q-16 39 -33 78q0 36 36 57q30 17 69 17q44 0 69 -40v-11q0 -40 -19.5 -117t-19.5 -117q0 -37 19.5 -106.5
t19.5 -105.5q0 -76 -58 -114q-50 -33 -130 -33q-194 0 -194 129zM231 764q-63 -85 -101 -85q-27 0 -27 42q0 34 43.5 91.5t76.5 57.5q38 0 87 -58q46 -55 46 -93q0 -41 -28 -41q-22 0 -56 32t-41 54z" />
    <glyph glyph-name="udieresis" unicode="&#xfc;" 
d="M28 122q0 42 23.5 122t23.5 122q0 39 -28.5 102.5t-28.5 94.5q0 74 103 74q39 0 59 -28.5t20 -68.5q0 -28 -12 -76t-12 -75q0 -44 49 -44q60 0 60 58q0 37 -16 82q-16 39 -33 78q0 36 36 57q30 17 69 17q44 0 69 -40v-11q0 -40 -19.5 -117t-19.5 -117q0 -37 19.5 -106.5
t19.5 -105.5q0 -76 -58 -114q-50 -33 -130 -33q-194 0 -194 129zM242 733q0 29 15 57q19 33 47 33q26 0 45 -25q16 -23 16 -51t-11 -54q-15 -34 -40 -34q-33 0 -52.5 21t-19.5 53zM92 727q0 32 12 60q15 36 43 36q27 0 47 -25t20 -52q0 -26 -13 -52q-15 -31 -40 -31
q-69 0 -69 64z" />
    <glyph glyph-name="yacute" unicode="&#xfd;" horiz-adv-x="396" 
d="M309 131q0 -62 -41.5 -100t-103.5 -38q-60 0 -95.5 37t-35.5 98q0 50 47.5 138t47.5 134q0 44 -31 82q-9 11 -59 55q-31 28 -31 48q0 26 26 41q22 11 51 11q49 0 65 -37q9 -21 11 -79q2 -61 18 -61q18 0 26 46q12 68 20 85q21 46 69 46q57 0 57 -33q0 -20 -29 -53
q-43 -48 -54 -66q-30 -47 -30 -101q0 -46 36 -127.5t36 -125.5zM341 817q0 -26 -53.5 -84t-81.5 -58t-28 42t31 91q34 56 72 47q60 -13 60 -38z" />
    <glyph glyph-name="thorn" unicode="&#xfe;" 
d="M294 47q0 -54 -111 -54h-45q-66 0 -96 23q-34 26 -34 91q0 61 30 160q49 166 49 287q0 42 -28.5 111t-28.5 83q0 71 130 71q43 0 71 -23q30 -26 30 -68q0 -27 -47 -112q82 -6 134 -35q69 -38 69 -111q0 -59 -46 -79q-47 -10 -93 -20q-56 -12 -70 -51q1 -49 43.5 -136.5
t42.5 -136.5zM202 523q-14 -7 -14 -25q0 -30 11 -64q5 -2 11 -4q20 0 38 23t18 43q0 27 -48 27h-16z" />
    <glyph glyph-name="ydieresis" unicode="&#xff;" horiz-adv-x="396" 
d="M309 131q0 -62 -41.5 -100t-103.5 -38q-60 0 -95.5 37t-35.5 98q0 50 47.5 138t47.5 134q0 44 -31 82q-9 11 -59 55q-31 28 -31 48q0 26 26 41q22 11 51 11q49 0 65 -37q9 -21 11 -79q2 -61 18 -61q18 0 26 46q12 68 20 85q21 46 69 46q57 0 57 -33q0 -20 -29 -53
q-43 -48 -54 -66q-30 -47 -30 -101q0 -46 36 -127.5t36 -125.5zM212 733q0 29 15 57q19 33 47 33q26 0 45 -25q16 -23 16 -51t-11 -54q-15 -34 -40 -34q-33 0 -52.5 21t-19.5 53zM62 727q0 32 12 60q15 36 43 36q27 0 47 -25t20 -52q0 -26 -13 -52q-15 -31 -40 -31
q-69 0 -69 64z" />
    <glyph glyph-name="Gbreve" unicode="&#x11e;" horiz-adv-x="501" 
d="M381 59q-72 -66 -156 -66q-200 0 -200 365q0 373 201 453q18 7 54 7q152 0 152 -109q0 -72 -69 -70q-34 1 -44 41.5t-38 40.5q-32 0 -58 -70q-22 -58 -22 -97q0 -37 18 -66q20 -33 55 -33q13 0 25.5 11t12.5 24q0 34 -35 33q-15 0 -15 20q0 28 16 37q10 5 28 6
q12 1 32 -0.5t23 -1.5q76 2 91 -21q9 -13 9 -58q0 -24 -3.5 -71t-3.5 -70q0 -55 11 -166t11 -165q0 -40 -32 -40q-20 0 -37 24zM272 936q30 -2 72.5 27t53.5 29q27 0 27 -39q0 -32 -47 -72q-51 -42 -102 -41q-51 2 -96 40.5t-45 73.5q0 39 27 39q13 0 48.5 -28t61.5 -29z
" />
    <glyph glyph-name="gbreve" unicode="&#x11f;" horiz-adv-x="470" 
d="M22 194q0 179 61 179q16 0 55 -16.5t63 -16.5q28 0 50.5 13t22.5 39q0 24 -16 24q-4 0 -13 -1.5t-13 -1.5q-15 0 -42.5 -3t-42.5 -3q-36 0 -64.5 28.5t-28.5 64.5q0 70 68 107q55 30 132 30q48 0 92 -12q65 -17 65 -51q0 -29 -21 -84.5t-21 -85.5q0 -50 38.5 -141
t38.5 -139q0 -67 -68 -102q-54 -29 -127 -29q-229 0 -229 201zM230 544q-18 0 -37 -9q-22 -10 -22 -27q0 -18 25 -18h10q7 1 11 1h16q8 0 24 -3t24 -3q17 0 17 13q0 20 -23.5 33t-44.5 13zM229 764q30 -2 72 28t53 30q27 0 27 -40q0 -34 -47 -74q-49 -44 -100 -42
q-51 1 -95 41t-44 76q0 40 27 40q13 0 47 -28.5t60 -30.5z" />
    <glyph glyph-name="Idotaccent" unicode="&#x130;" horiz-adv-x="374" 
d="M18 152q0 71 48.5 201.5t48.5 201.5q0 33 -28 89.5t-28 87.5q0 83 138 83q67 0 95 -11q45 -19 45 -76q0 -39 -36 -108.5t-36 -110.5q0 -59 44.5 -172t44.5 -175q0 -169 -148 -169q-56 0 -106 22q-61 26 -75 72q-7 22 -7 65zM156 926q0 24 17 41.5t42 17.5q24 0 41 -18.5
t17 -42.5q0 -23 -17 -41t-40 -18q-25 0 -42.5 18t-17.5 43z" />
    <glyph glyph-name="dotlessi" unicode="&#x131;" horiz-adv-x="329" 
d="M18 117q0 50 44.5 149t44.5 158q0 31 -24 79.5t-24 70.5q0 38 44 56q32 13 77 13q32 0 58.5 -21.5t26.5 -51.5q0 -28 -24.5 -87t-24.5 -94q0 -52 48.5 -143.5t48.5 -136.5q0 -56 -51 -91q-45 -32 -103 -32q-63 0 -102 34.5t-39 96.5z" />
    <glyph glyph-name="OE" unicode="&#x152;" horiz-adv-x="719" 
d="M261 -13q-121 0 -184 109q-51 89 -51 218q0 137 19.5 224.5t49.5 154.5q45 97 101 113q33 9 85 9q36 0 62 -14q38 15 105 15h35q24 1 36 1q62 0 91 -16q39 -23 39 -83q0 -47 -34 -47q-22 0 -50 20.5t-51 20.5q-32 0 -32 -29q0 -24 22.5 -28.5t44.5 -9.5q24 -12 24 -51
q0 -21 -23 -25.5t-45 -7.5q-24 -8 -24 -37q0 -25 10.5 -33t35.5 -8q22 0 52 32.5t41 32.5q79 0 79 -284q0 -151 -27 -199q-40 -72 -179 -72q-51 0 -112 42q-56 -48 -120 -48zM260 706q-26 0 -41 -33q-11 -26 -11 -55v-76q0 -35 52 -35q49 0 49 35v79q0 27 -11 53
q-15 32 -38 32z" />
    <glyph glyph-name="oe" unicode="&#x153;" horiz-adv-x="645" 
d="M323 56q-18 -35 -33 -47q-19 -16 -54 -16q-215 0 -215 290q0 106 39 214q52 140 137 140q48 0 76.5 -15.5t51.5 -55.5q55 63 134 63q131 0 131 -120q0 -38 -26 -61.5t-64 -23.5q-15 0 -43 3.5t-42 3.5q-33 0 -33 -29q0 -32 27 -42q16 -6 54 -6q29 0 63 26t44 26
q37 0 53 -109q10 -66 10 -141q0 -45 -30 -88t-73 -61q-35 -15 -117 -15q-44 0 -58 13q-4 4 -32 51zM430 552q-22 0 -37 -15t-15 -37h107q16 0 16 19q0 15 -15.5 24t-32.5 9h-23zM210 544q-17 0 -29 -15q-14 -48 -14 -94q0 -49 50 -49q35 0 35 18v47q0 24 -10 55
q-13 38 -32 38z" />
    <glyph glyph-name="Scedilla" unicode="&#x15e;" horiz-adv-x="477" 
d="M162 -201q-6 5 -6 10t16.5 21.5t16.5 28.5q0 17 -17.5 48.5t-17.5 47.5q0 26 25 43q-77 17 -118 89q-36 64 -36 155v98q0 38 9 74q13 52 39 52q14 0 38.5 -12t38.5 -12t27 8t13 20q0 36 -32 73q-30 31 -59 63q-32 41 -32 85q0 60 56 94q48 30 112 30q58 0 105 -26
q57 -31 57 -83q0 -30 -18 -53.5t-48 -23.5q-31 0 -44 30q-8 28 -17 57.5t-35 29.5q-23 0 -41 -18.5t-18 -42.5q0 -10 111 -100q117 -96 132 -124q35 -64 35 -159q0 -114 -39 -192q-47 -95 -142 -113q28 -20 28 -65q0 -42 -35 -84q-40 -49 -97 -49h-7z" />
    <glyph glyph-name="scedilla" unicode="&#x15f;" horiz-adv-x="381" 
d="M112 -201q-6 5 -6 10t16.5 21.5t16.5 28.5q0 17 -17.5 48.5t-17.5 47.5q0 29 28 45q-114 37 -114 227q0 47 9 95q12 70 36 70q10 0 22 -22.5t27 -22.5q25 0 36 21q0 34 -49 70.5t-49 50.5v32q0 55 45 87q39 29 97 29q123 0 123 -112q0 -56 -42 -56q-29 0 -39 22
q-6 20 -12 40.5t-28 20.5q-34 0 -34 -27q0 -37 51 -67q72 -43 97 -75q52 -67 52 -192q0 -23 -12 -60q-39 -117 -124 -134q27 -20 27 -65q0 -42 -35 -84q-40 -49 -97 -49h-7z" />
    <glyph glyph-name="Scaron" unicode="&#x160;" horiz-adv-x="477" 
d="M25 340q0 38 9 74q13 52 39 52q14 0 38.5 -12t38.5 -12t27 8t13 20q0 36 -32 73q-30 31 -59 63q-32 41 -32 85q0 60 56 94q48 30 112 30q58 0 105 -26q57 -31 57 -83q0 -30 -18 -53.5t-48 -23.5q-31 0 -44 30q-8 28 -17 57.5t-35 29.5q-23 0 -41 -18.5t-18 -42.5
q0 -10 111 -100q117 -96 132 -124q35 -64 35 -159q0 -128 -49 -209q-59 -100 -178 -100q-101 0 -154 77q-48 67 -48 172v98zM240 912q55 68 88 68q24 0 24 -34q0 -27 -38 -73.5t-67 -46.5q-33 0 -74.5 45.5t-41.5 75.5q0 34 24 34q19 0 49 -26t36 -43z" />
    <glyph glyph-name="scaron" unicode="&#x161;" horiz-adv-x="381" 
d="M18 227q0 47 9 95q12 70 36 70q10 0 22 -22.5t27 -22.5q25 0 36 21q0 34 -49 70.5t-49 50.5v32q0 55 45 87q39 29 97 29q123 0 123 -112q0 -56 -42 -56q-29 0 -39 22q-6 20 -12 40.5t-28 20.5q-34 0 -34 -27q0 -37 51 -67q72 -43 97 -75q52 -67 52 -192q0 -23 -12 -60
q-23 -70 -57 -101q-40 -37 -109 -37q-89 0 -131 77q-33 61 -33 157zM200 732q55 68 88 68q24 0 24 -34q0 -27 -38 -73.5t-67 -46.5q-33 0 -74.5 45.5t-41.5 75.5q0 34 24 34q19 0 49 -26t36 -43z" />
    <glyph glyph-name="Ydieresis" unicode="&#x178;" horiz-adv-x="501" 
d="M413 159q0 -77 -46 -121.5t-123 -44.5q-87 0 -136.5 50.5t-49.5 137.5q0 58 53 157t53 156q0 51 -69 129.5t-69 131.5q0 38 29 51q20 9 62 9q62 0 76 -27q8 -15 8 -84q0 -80 45 -80q41 0 51 47q4 17 4 79q0 40 31 54q20 9 66 9q29 0 53 -12q29 -15 29 -42q0 -31 -39 -81
q-36 -45 -73 -91q-39 -56 -39 -100q0 -37 21 -85q18 -40 36 -81q27 -69 27 -162zM272 923q0 29 15 57q19 33 47 33q26 0 45 -25q16 -23 16 -51t-11 -54q-15 -34 -40 -34q-33 0 -52.5 21t-19.5 53zM122 917q0 32 12 60q15 36 43 36q27 0 47 -25t20 -52q0 -26 -13 -52
q-15 -31 -40 -31q-69 0 -69 64z" />
    <glyph glyph-name="florin" unicode="&#x192;" horiz-adv-x="404" 
d="M292 716q-28 0 -28 -42q0 -37 12 -46q8 -5 46 -5q28 0 33 -16q1 -5 1 -32q0 -47 -39 -46q-52 0 -52 -30q0 -76 37 -205t37 -181q0 -58 -33.5 -91.5t-88.5 -33.5h-45q-54 0 -107 39.5t-53 80.5q0 24 22 40q68 51 92.5 83.5t29.5 77.5q1 15 1 118q0 83 -39 106q-46 3 -47 3
q-20 7 -20 38q0 32 7 40t39 8t32 22q0 11 -2 32t-2 32q0 53 37 81q34 27 90 27q166 0 166 -134q0 -41 -42 -41q-33 0 -45 20q-6 17 -12.5 36t-26.5 19z" />
    <glyph glyph-name="circumflex" unicode="&#x2c6;" 
d="M231 764q-63 -85 -101 -85q-27 0 -27 42q0 34 43.5 91.5t76.5 57.5q38 0 87 -58q46 -55 46 -93q0 -41 -28 -41q-22 0 -56 32t-41 54z" />
    <glyph glyph-name="caron" unicode="&#x2c7;" 
d="M224 782q63 84 101 84q27 0 27 -41q0 -34 -43.5 -91.5t-76.5 -57.5q-38 0 -85.5 56t-47.5 94q0 42 28 42q22 0 56 -32.5t41 -53.5z" />
    <glyph glyph-name="breve" unicode="&#x2d8;" 
d="M224 782q31 -2 74.5 29t54.5 31q28 0 28 -42q0 -35 -48 -77q-51 -45 -104 -44q-53 2 -98.5 43.5t-45.5 78.5q0 42 28 42q13 0 48.5 -30t62.5 -31z" />
    <glyph glyph-name="tilde" unicode="&#x2dc;" horiz-adv-x="505" 
d="M184 743q-13 0 -15 -3q-8 -18 -17 -35t-31 -19q-49 -6 -49 50q0 40 21 72q25 36 64 36q32 0 69 -26.5t56 -25.5q10 1 30 24.5t39 25.5q46 5 46 -46q0 -39 -21 -72q-25 -38 -63 -38q-29 0 -69 28.5t-60 28.5z" />
    <glyph glyph-name="endash" unicode="&#x2013;" horiz-adv-x="538" 
d="M209 260q-148 0 -188 35q13 67 18 82q16 46 47 66q277 0 409 -2q13 -17 13 -38q0 -22 -36 -117q-39 -26 -263 -26z" />
    <glyph glyph-name="emdash" unicode="&#x2014;" horiz-adv-x="717" 
d="M208 278q-109 0 -98 0q-66 3 -89 23q12 62 18 79q15 43 47 63q467 0 599 -2q13 -17 13 -38q0 -24 -24 -54.5t-59 -52.5q-23 -16 -201 -18q59 0 -206 0z" />
    <glyph glyph-name="quoteleft" unicode="&#x2018;" horiz-adv-x="254" 
d="M202 861q0 -14 -19.5 -41.5t-19.5 -46.5q0 -22 28.5 -62t28.5 -60q0 -33 -28 -77q-30 -49 -63 -49q-86 0 -86 128q0 69 37 140q45 84 111 81q11 0 11 -13z" />
    <glyph glyph-name="quoteright" unicode="&#x2019;" horiz-adv-x="253" 
d="M59 523q0 13 19 41t19 46q0 22 -28 62t-28 60q0 33 27 77q31 49 64 49q86 0 86 -128q0 -69 -37 -140q-45 -84 -111 -81q-11 0 -11 14z" />
    <glyph glyph-name="quotesinglbase" unicode="&#x201a;" horiz-adv-x="268" 
d="M26 -160q0 17 23.5 52.5t23.5 59.5q0 29 -34 80t-34 77q0 44 33 101q36 63 76 63q103 0 103 -166q0 -87 -49 -180q-57 -108 -136 -109q-6 10 -6 22z" />
    <glyph glyph-name="quotedblleft" unicode="&#x201c;" horiz-adv-x="453" 
d="M414 860q0 -14 -19 -41.5t-19 -46.5q0 -22 28 -61.5t28 -60.5q0 -33 -27 -77q-31 -49 -64 -49q-86 0 -86 128q0 70 38 140q45 84 110 82q11 -1 11 -14zM202 861q0 -14 -19.5 -41.5t-19.5 -46.5q0 -22 28.5 -62t28.5 -60q0 -33 -28 -77q-30 -49 -63 -49q-86 0 -86 128
q0 69 37 140q45 84 111 81q11 0 11 -13z" />
    <glyph glyph-name="quotedblright" unicode="&#x201d;" horiz-adv-x="463" 
d="M59 523q0 13 19 41t19 46q0 22 -28 62t-28 60q0 33 27 77q31 49 64 49q86 0 86 -128q0 -69 -37 -140q-45 -84 -111 -81q-11 0 -11 14zM271 522q0 13 19.5 41t19.5 46q0 23 -28.5 62.5t-28.5 59.5q0 33 28 77q30 49 63 49q86 0 86 -128q0 -69 -37 -139q-45 -84 -111 -82
q-11 0 -11 14z" />
    <glyph glyph-name="quotedblbase" unicode="&#x201e;" horiz-adv-x="503" 
d="M288 -176q-6 10 -6 21q0 17 23.5 53t23.5 61q0 29 -33 80t-33 78q0 42 33 100q36 64 75 64q102 0 102 -166q0 -77 -47 -177q-55 -115 -122 -115q-8 0 -16 1zM47 -158q0 18 23 53t23 60q0 29 -34 80t-34 77q0 43 33 100q37 63 77 63q102 0 102 -165q0 -88 -49 -180
q-56 -108 -135 -109q-6 10 -6 21z" />
    <glyph glyph-name="dagger" unicode="&#x2020;" horiz-adv-x="727" 
d="M488 279h-20l-6 -5q-8 -33 -8 -85q0 -215 30 -252q5 -7 29 -27q17 -15 24 -31v-9q0 -59 -169 -59q-171 0 -171 58q0 13 32.5 46t40 57.5t7.5 73.5v200q0 15 -4 28l-10 6q-54 -2 -63 -4q-32 -7 -47 -38v-7q1 -11 -16.5 -20.5t-30.5 -9.5q-67 0 -67 166q0 152 67 152
q23 0 37 -28q17 -33 30 -39q17 -8 88 -8l9 4q4 13 4 35q0 7 -1 22v23q0 34 -35.5 54t-35.5 37q0 41 65 61q46 14 100 14q55 0 99 -14q64 -19 64 -61q0 -22 -18 -29q-26 -11 -34 -20q-18 -22 -18 -80q0 -27 4 -41l8 -5q21 0 42 1q25 1 41.5 8t33.5 39q15 27 37 27
q66 0 66 -152q0 -166 -70 -166q-25 0 -34 20q-15 32 -22 38q-22 20 -78 20z" />
    <glyph glyph-name="daggerdbl" unicode="&#x2021;" horiz-adv-x="727" 
d="M596 32q-18 24 -39 31q-16 6 -50 6q-27 0 -41 -3l-3 -10l-1 -41q0 -44 18 -68q7 -10 33 -27q17 -12 17 -27q0 -36 -64 -56q-48 -16 -95 -16t-96 16q-65 21 -65 56q0 17 18 29q25 17 33 30q18 27 18 79q0 22 -3 34q-13 2 -36 2q-43 0 -87 -15q-27 -51 -54 -51
q-30 0 -47 37q-13 29 -13 64q0 109 61 109q8 0 49 -20.5t76 -20.5q56 0 56 15v127q0 14 -46 14q-38 0 -47 -1q-21 -1 -44.5 -24.5t-40.5 -23.5q-35 0 -51 39q-13 30 -13 70t11 73q16 46 47 46q23 0 46 -34v-1q19 -28 42 -36q16 -6 56 -6q21 0 33 4q5 14 5 37q0 71 -13 87
q-2 3 -34 27q-22 17 -22 34q0 38 64 60q48 17 97 17q48 0 96 -17q63 -21 63 -60q0 -15 -17 -29q-24 -19 -33 -35q-18 -32 -18 -90q0 -18 4 -31l9 -4h52q33 3 48 16q1 1 28 37q18 25 35 25q32 0 48 -42q11 -31 11 -69q0 -118 -60 -118q-11 0 -43 25t-81 25q-57 0 -57 -17
v-124q0 -17 64 -16l30 1l2 1q19 0 43.5 19.5t38.5 19.5q34 0 51 -36q13 -27 13 -65q0 -39 -10 -68q-15 -41 -46 -41q-8 0 -27 12t-19 19z" />
    <glyph glyph-name="bullet" unicode="&#x2022;" horiz-adv-x="222" 
d="M33 300q0 31 22.5 53t54.5 22t54.5 -23t22.5 -54q0 -29 -23 -52t-53 -23q-32 0 -55 23t-23 54z" />
    <glyph glyph-name="ellipsis" unicode="&#x2026;" horiz-adv-x="976" 
d="M689 72q0 45 37 108q40 69 81 69q50 0 86 -67q31 -59 31 -114q0 -103 -128 -103q-60 0 -83.5 23.5t-23.5 83.5zM353 67q0 45 36 108q40 69 82 69q50 0 86 -67q31 -59 31 -114q0 -103 -128 -103q-60 0 -83.5 23.5t-23.5 83.5zM17 62q0 45 36 108q40 69 81 69q50 0 86 -68
q32 -58 32 -113q0 -103 -129 -103q-60 0 -83 23.5t-23 83.5z" />
    <glyph glyph-name="perthousand" unicode="&#x2030;" horiz-adv-x="862" 
d="M596 164q0 64 26 129q32 85 88 85q70 0 103 -78q23 -57 23 -135q0 -63 -18 -110q-27 -66 -82 -66q-140 0 -140 175zM65 34q37 81 133 231q123 192 139 220q29 62 58 125q46 87 88 87q45 0 45 -22q0 -28 -121 -229l-152 -246q-16 -25 -85 -150q-27 -49 -54 -49
q-16 0 -33 6q-20 8 -20 20q0 3 2 7zM26 498q0 54 22 109q28 72 76 72q60 0 88 -67q21 -47 21 -113q0 -53 -16 -93q-23 -56 -71 -56q-120 0 -120 148zM719 323q-29 0 -29 -67q0 -30 33 -30q24 0 24 12v28q0 15 -7 34q-9 23 -21 23zM131 632q-24 0 -24 -56q0 -26 28 -26
q21 0 21 10v24q0 13 -7 30.5t-18 17.5zM336 164q0 64 26 129q32 85 88 85q70 0 103 -78q23 -57 23 -135q0 -63 -18 -110q-27 -66 -82 -66q-140 0 -140 175zM459 323q-29 0 -29 -67q0 -30 33 -30q24 0 24 12v28q0 15 -7 34q-9 23 -21 23z" />
    <glyph glyph-name="guilsinglleft" unicode="&#x2039;" horiz-adv-x="281" 
d="M18 267q0 39 82.5 128t120.5 89q18 0 32.5 -11.5t14.5 -28.5q0 -27 -44 -83t-44 -92q0 -27 43 -90v1q15 -22 31 -43q17 -27 17 -48q0 -14 -12 -27t-26 -13q-43 0 -129 87t-86 131z" />
    <glyph glyph-name="guilsinglright" unicode="&#x203a;" horiz-adv-x="282" 
d="M23 89q0 16 10 31v1q26 36 51 71q31 49 31 78q0 35 -44 88t-44 86q0 17 14 28.5t32 11.5q38 0 121 -87.5t83 -126.5q0 -44 -85.5 -132.5t-128.5 -88.5q-14 0 -27 13t-13 27z" />
    <glyph glyph-name="foursuperior" unicode="&#x2074;" horiz-adv-x="421" 
d="M311 660q-17 0 -17 -24q0 -28 22.5 -77.5t22.5 -77.5q0 -74 -98 -74q-30 0 -67 11q-46 13 -54 34q-4 11 -4 35q0 30 41.5 83.5t41.5 79.5q0 18 -28 21t-57 5q-35 7 -50 31q0 66 51 125q52 63 117 63q64 0 105 -43l2 -7q0 -1 -22 -33t-22 -61q0 -8 2 -19q26 -3 36 -10
q14 -9 14 -32q0 -16 -7 -30h-29zM147 768q0 -22 55 -29q9 39 9 55q0 17 -17 17q-18 0 -32.5 -12.5t-14.5 -30.5z" />
    <glyph glyph-name="Euro" unicode="&#x20ac;" horiz-adv-x="553" 
d="M409 599q3 -6 3 -12q0 -28 -81 -28l-57 -1q-2 -21 -1 -28v-19q108 1 103 1q32 0 32 -20q0 -31 -48 -42q-21 -5 -73 -7q3 -26 25 -45.5t45 -19.5q28 0 58 35t42 35q15 0 17 -3q50 -90 50 -194t-54 -177q-60 -81 -161 -81q-122 0 -180 127q-44 96 -44 234q0 42 5 90
q-85 3 -85 28q0 14 25 26q18 9 37 13q4 0 34 -1l10 44l-35 -1q-46 0 -46 19q0 14 22 27q18 10 35 12h42q73 204 220 204q61 0 97 -29q40 -31 40 -91q0 -16 -18 -28t-36 -12q-46 0 -52 28q-8 36 -32 47q-53 0 -69 -119q12 0 45 1q28 1 45 1q33 0 40 -14z" />
    <glyph glyph-name="trademark" unicode="&#x2122;" horiz-adv-x="744" 
d="M508 494q0 35 28.5 99t28.5 99q0 56 -22 56q-17 0 -17 -42q0 -11 2.5 -32.5t2.5 -32.5q0 -17 -12 -32t-30 -15q-17 0 -27.5 15t-10.5 32q0 10 3 31.5t3 31.5q0 41 -21 41q-20 0 -20 -35q0 -41 18 -94q18 -45 35 -90q11 -30 11 -42q0 -51 -45 -72q-9 -4 -51 -4
q-93 0 -93 78q0 41 26.5 120t26.5 120q0 25 -22 67.5t-22 63.5q0 54 74 54q71 0 99 -48q6 -12 19 -36q33 78 129 78q19 0 40 -9q26 -11 26 -28q0 -11 -24 -62t-24 -78q0 -44 57 -188q15 -39 15 -47q0 -23 -17 -49.5t-40 -34.5q-17 -6 -57 -6q-89 0 -89 91zM187 825
q0 -51 35 -146.5t35 -146.5q0 -119 -103 -119q-64 0 -90 31q-22 27 -22 89q0 47 40.5 137.5t40.5 143.5q0 18 -14 18q-10 0 -15.5 -38.5t-29.5 -38.5q-25 0 -25 44q0 50 7 68q13 34 57 34h117q15 0 23 -2q33 -10 33 -99q0 -45 -23 -45q-25 0 -33 41t-20 41q-13 0 -13 -12z
" />
    </font>
</defs>
</svg>
